<?xml version="1.0" encoding="UTF-8" standalone="no"?>
<svg
   xmlns:dc="http://purl.org/dc/elements/1.1/"
   xmlns:cc="http://creativecommons.org/ns#"
   xmlns:rdf="http://www.w3.org/1999/02/22-rdf-syntax-ns#"
   xmlns:svg="http://www.w3.org/2000/svg"
   xmlns="http://www.w3.org/2000/svg"
   xmlns:sodipodi="http://sodipodi.sourceforge.net/DTD/sodipodi-0.dtd"
   xmlns:inkscape="http://www.inkscape.org/namespaces/inkscape"
   width="100mm"
   height="100mm"
   viewBox="0 0 100 100"
   version="1.1"
   id="svg877"
   sodipodi:docname="double-note.svg"
   inkscape:version="1.0.2-2 (e86c870879, 2021-01-15)">
  <defs
     id="defs871" />
  <sodipodi:namedview
     id="base"
     pagecolor="#ffffff"
     bordercolor="#666666"
     borderopacity="1.0"
     inkscape:pageopacity="0.0"
     inkscape:pageshadow="2"
     inkscape:zoom="0.98994949"
     inkscape:cx="229.05127"
     inkscape:cy="189.05176"
     inkscape:document-units="mm"
     inkscape:current-layer="layer1"
     inkscape:document-rotation="0"
     showgrid="false"
     inkscape:window-width="1431"
     inkscape:window-height="1080"
     inkscape:window-x="2891"
     inkscape:window-y="102"
     inkscape:window-maximized="0" />
  <metadata
     id="metadata874">
    <rdf:RDF>
      <cc:Work
         rdf:about="">
        <dc:format>image/svg+xml</dc:format>
        <dc:type
           rdf:resource="http://purl.org/dc/dcmitype/StillImage" />
        <dc:title />
      </cc:Work>
    </rdf:RDF>
  </metadata>
  <g
     inkscape:label="Layer 1"
     inkscape:groupmode="layer"
     id="layer1">
    <path
       style="fill:none;stroke:#fbfbfb;stroke-width:3;stroke-linecap:butt;stroke-linejoin:miter;stroke-miterlimit:4;stroke-dasharray:none;stroke-opacity:1"
       d="m 38.351694,54.719024 c -2.254485,-5.11747 -6.769408,-6.453415 -11.882565,-6.992561 -4.771944,0.165364 -6.405636,-0.02027 -10.890458,2.385971 -3.624071,3.12502 -4.854726,5.37806 -5.17959,10.62247 -0.147683,4.96094 2.215438,7.8033 5.800288,10.77986 3.762025,2.03162 7.560621,2.64247 12.520459,1.5119 5.395015,-2.035913 6.620617,-3.891818 7.981481,-6.032221 1.795416,-3.49628 2.211406,-7.314489 1.650385,-12.275419 z"
       id="path867"
       sodipodi:nodetypes="cccccccc" />
    <path
       style="fill:none;stroke:#fbfbfb;stroke-width:3;stroke-linecap:round;stroke-linejoin:round;stroke-miterlimit:4;stroke-dasharray:none;stroke-opacity:1"
       d="M 38.304447,53.986694 37.433797,17.658768"
       id="path869"
       sodipodi:nodetypes="cc" />
    <path
       style="fill:none;stroke:#fbfbfb;stroke-width:3;stroke-linecap:butt;stroke-linejoin:miter;stroke-miterlimit:4;stroke-dasharray:none;stroke-opacity:1"
       d="m 85.989961,59.519536 c -2.25449,-5.117462 -6.769409,-6.453411 -11.882566,-6.992557 -4.771944,0.165364 -6.405636,-0.02027 -10.890458,2.385973 -3.624071,3.125019 -4.854726,5.378053 -5.17959,10.622473 -0.147683,4.960937 2.215438,7.803291 5.800288,10.779851 3.762025,2.03162 7.560621,2.64248 12.520459,1.51191 0.132589,-0.07366 0.254796,-0.162636 0.390188,-0.218973 4.717955,-1.963164 5.918652,-3.214571 7.635185,-5.686329 1.79541,-3.496283 2.167514,-7.44141 1.606494,-12.402348 z"
       id="path867-3"
       sodipodi:nodetypes="ccccccscc" />
    <path
       style="fill:none;stroke:#fbfbfb;stroke-width:3;stroke-linecap:round;stroke-linejoin:round;stroke-miterlimit:4;stroke-dasharray:none;stroke-opacity:1"
       d="M 85.942711,58.787207 85.072061,22.459284 37.433797,17.658768"
       id="path869-1"
       sodipodi:nodetypes="ccc" />
    <path
       style="fill:none;stroke:#fbfbfb;stroke-width:3;stroke-linecap:round;stroke-linejoin:round;stroke-miterlimit:4;stroke-dasharray:none;stroke-opacity:1"
       d="m 37.865169,28.233295 47.106254,5.144937"
       id="path1476"
       sodipodi:nodetypes="cc" />
  </g>
</svg>
