<svg xmlns="http://www.w3.org/2000/svg" width="100mm" height="100mm" viewBox="0 0 100 100"><path style="fill:none;stroke:#fbfbfb;stroke-width:3;stroke-linecap:butt;stroke-linejoin:miter;stroke-miterlimit:4;stroke-dasharray:none;stroke-opacity:1" d="M38.352 54.719c-2.255-5.117-6.77-6.453-11.883-6.993-4.772.166-6.406-.02-10.89 2.386-3.624 3.125-4.855 5.378-5.18 10.623-.148 4.96 2.216 7.803 5.8 10.78 3.762 2.031 7.561 2.642 12.52 1.512 5.396-2.036 6.621-3.892 7.982-6.033 1.796-3.496 2.212-7.314 1.65-12.275z"/><path style="fill:none;stroke:#fbfbfb;stroke-width:3;stroke-linecap:round;stroke-linejoin:round;stroke-miterlimit:4;stroke-dasharray:none;stroke-opacity:1" d="m38.304 53.987-.87-36.328"/><path style="fill:none;stroke:#fbfbfb;stroke-width:3;stroke-linecap:butt;stroke-linejoin:miter;stroke-miterlimit:4;stroke-dasharray:none;stroke-opacity:1" d="M85.99 59.52c-2.255-5.118-6.77-6.454-11.883-6.993-4.772.165-6.405-.02-10.89 2.386-3.624 3.125-4.855 5.378-5.18 10.622-.147 4.961 2.216 7.804 5.8 10.78 3.763 2.032 7.561 2.643 12.521 1.512.133-.073.255-.162.39-.219 4.718-1.963 5.919-3.214 7.635-5.686 1.796-3.496 2.168-7.442 1.607-12.402z"/><path style="fill:none;stroke:#fbfbfb;stroke-width:3;stroke-linecap:round;stroke-linejoin:round;stroke-miterlimit:4;stroke-dasharray:none;stroke-opacity:1" d="m85.943 58.787-.87-36.328-47.64-4.8M37.865 28.233l47.106 5.145"/></svg>