<svg xmlns="http://www.w3.org/2000/svg" width="960mm" height="250mm" viewBox="0 0 960 250">
  <path style="fill:#fff0c0;fill-opacity:.5;stroke:#fbfbfb;stroke-width:2.5;stroke-linecap:round;stroke-linejoin:round;stroke-miterlimit:4;stroke-dasharray:none;stroke-opacity:1" d="M146.339 38.156v12.92l19.708 7.644.04-14.252" transform="matrix(1.19702 0 0 1.19702 546.33 57.138)" />
  <path style="fill:#6b479d;fill-opacity:.497976;stroke:#fbfbfb;stroke-width:2.5;stroke-linecap:round;stroke-linejoin:round;stroke-miterlimit:4;stroke-dasharray:none;stroke-opacity:1" d="m142.812 35.873 24.627 8.204 18.803-9.875-21.028-12.5z" transform="matrix(1.19702 0 0 1.19702 546.33 57.138)" />
  <path style="fill:none;fill-opacity:1;stroke:#fbfbfb;stroke-width:2.5;stroke-linecap:round;stroke-linejoin:round;stroke-miterlimit:4;stroke-dasharray:none;stroke-opacity:1" d="m165.663 25.995 1.776 18.082" transform="matrix(1.19702 0 0 1.19702 546.33 57.138)" />
  <path style="fill:#fff0c0;fill-opacity:.5;stroke:#fbfbfb;stroke-width:2.5;stroke-linecap:round;stroke-linejoin:round;stroke-miterlimit:4;stroke-dasharray:none;stroke-opacity:1" d="m166.087 46.155-.04 12.565 16.648-9.612v-11.62" transform="matrix(1.19702 0 0 1.19702 546.33 57.138)" />
  <g>
    <path style="fill:#fff0c0;fill-opacity:.5;stroke:#fbfbfb;stroke-width:1.57677;stroke-linecap:round;stroke-linejoin:round;stroke-miterlimit:4;stroke-dasharray:none;stroke-opacity:1" d="M150.77 25.271v8.149l12.43 4.821.026-8.99" transform="matrix(1.89788 0 0 1.89788 401.126 73.012)" />
    <path style="fill:#6b479d;fill-opacity:.497976;stroke:#fbfbfb;stroke-width:1.57677;stroke-linecap:round;stroke-linejoin:round;stroke-miterlimit:4;stroke-dasharray:none;stroke-opacity:1" d="m148.546 23.83 15.533 5.176 11.86-6.229-13.264-7.884z" transform="matrix(1.89788 0 0 1.89788 401.126 73.012)" />
    <path style="fill:none;fill-opacity:1;stroke:#fbfbfb;stroke-width:1.57677;stroke-linecap:round;stroke-linejoin:round;stroke-miterlimit:4;stroke-dasharray:none;stroke-opacity:1" d="m162.958 17.601 1.12 11.405" transform="matrix(1.89788 0 0 1.89788 401.126 73.012)" />
    <path style="fill:#fff0c0;fill-opacity:.5;stroke:#fbfbfb;stroke-width:1.57675;stroke-linecap:round;stroke-linejoin:round;stroke-miterlimit:4;stroke-dasharray:none;stroke-opacity:1" d="m163.226 30.316-.025 7.925 10.5-6.062v-7.33" transform="matrix(1.89788 0 0 1.89788 401.126 73.012)" />
    <path style="fill:none;stroke:#fff;stroke-width:2.26568;stroke-linecap:round;stroke-linejoin:round;stroke-miterlimit:4;stroke-dasharray:none;stroke-opacity:1" d="M98.71 41.749c11.903-11.724 27.606-19.736 43.251-20.263M205.668 20.916c19.957-.691 48.34 14.943 54.342 29.325M-98.79 32.551c53.374-4.342 160.328-6.91 204.28 25.157" transform="matrix(1.89788 0 0 1.89788 401.126 73.012)" />
    <path style="fill:none;stroke:#fbfbfb;stroke-width:2.26568;stroke-linecap:round;stroke-linejoin:round;stroke-miterlimit:4;stroke-dasharray:none;stroke-opacity:1" d="M-201.61 49.177c6.706-6.064 15.027-8.783 21.611-9.351" transform="matrix(1.89788 0 0 1.89788 401.126 73.012)" />
  </g>
  <g>
    <path style="fill:#fff0c0;fill-opacity:.5;stroke:#fbfbfb;stroke-width:2.5;stroke-linecap:round;stroke-linejoin:round;stroke-miterlimit:4;stroke-dasharray:none;stroke-opacity:1" d="M146.339 38.156v12.92l19.708 7.644.04-14.252" transform="matrix(1.19702 0 0 1.19702 560.988 84.183)" />
    <path style="fill:#6b479d;fill-opacity:.497976;stroke:#fbfbfb;stroke-width:2.5;stroke-linecap:round;stroke-linejoin:round;stroke-miterlimit:4;stroke-dasharray:none;stroke-opacity:1" d="m142.812 35.873 24.627 8.204 18.803-9.875-21.028-12.5z" transform="matrix(1.19702 0 0 1.19702 560.988 84.183)" />
    <path style="fill:none;fill-opacity:1;stroke:#fbfbfb;stroke-width:2.5;stroke-linecap:round;stroke-linejoin:round;stroke-miterlimit:4;stroke-dasharray:none;stroke-opacity:1" d="m165.663 25.995 1.776 18.082" transform="matrix(1.19702 0 0 1.19702 560.988 84.183)" />
    <path style="fill:#fff0c0;fill-opacity:.5;stroke:#fbfbfb;stroke-width:2.5;stroke-linecap:round;stroke-linejoin:round;stroke-miterlimit:4;stroke-dasharray:none;stroke-opacity:1" d="m166.087 46.155-.04 12.565 16.648-9.612v-11.62" transform="matrix(1.19702 0 0 1.19702 560.988 84.183)" />
  </g>
</svg>