<svg xmlns="http://www.w3.org/2000/svg" width="100mm" height="100mm" viewBox="0 0 100 100"><path style="fill:#202039;stroke:#fbfbfb;stroke-width:2.279;stroke-linecap:round;stroke-linejoin:round;stroke-miterlimit:4;stroke-dasharray:none;stroke-opacity:1;fill-opacity:.5" d="M32.053 50.091c6.84-1.854 15.741-8.026 18.86-14.312l27.52 44.017c-2.517 6.679-6.92 7.317-11.159 8.487L32.054 50.09"/><path style="fill:none;stroke:#fbfbfb;stroke-width:2.27886;stroke-linecap:round;stroke-linejoin:round;stroke-miterlimit:4;stroke-dasharray:none;stroke-opacity:1" d="M26.916 41.906c9.59-2.783 12.858-5.99 17.968-12.771"/><path style="fill:gray;stroke:#fbfbfb;stroke-width:2.279;stroke-linecap:round;stroke-linejoin:round;stroke-miterlimit:4;stroke-dasharray:none;stroke-opacity:1;fill-opacity:.50196081" d="m32.053 50.091-8.974-7.163s-6.241-12.727 3.38-19.542c11.293-7.083 20.485 2.242 20.485 2.242l3.969 10.15c-4.159 6.996-10.788 11.41-18.86 14.313z"/><path style="fill:none;stroke:#fbfbfb;stroke-width:2.279;stroke-linecap:round;stroke-linejoin:round;stroke-miterlimit:4;stroke-dasharray:none;stroke-opacity:1" d="M41.577 59.91c2.287-.84 4.525-.924 9.016-4.331M52.153 63.838l1.533 1.883"/></svg>