<svg xmlns="http://www.w3.org/2000/svg" width="400" height="400"><g fill-rule="evenodd"><path d="M182.656 19.563c-.515.073-2.695.354-4.843.625-9.25 1.166-12.441 2.078-23.767 6.789-1.752.728-4.607 1.499-8.282 2.236-3.291.659-7.48 1.762-10.139 2.669-2.492.851-5.788 1.907-7.324 2.348-1.701.488-5.009 1.926-8.458 3.676-3.116 1.582-7.343 3.641-9.395 4.578-13.315 6.079-33.388 18.459-43.574 26.877-7.828 6.468-14.481 14.792-23.864 29.858-8.493 13.638-12.357 22.586-17.673 40.937-1.682 5.805-3.002 10.034-4.586 14.688-1.456 4.28-1.69 5.593-3.105 17.459-2.129 17.859-2.193 41.875-.134 50.197 1.041 4.207 1.531 8.886 1.543 14.738.012 5.653.78 8.567 6.085 23.075a873.843 873.843 0 0 1 2.51 6.936c1.26 3.57 6.35 15.537 8.214 19.314 1.605 3.252 2.059 3.875 4.773 6.562 7.943 7.861 19.406 18.404 23.738 21.831 1.633 1.292 4.227 3.538 5.765 4.99 4.914 4.641 13.279 8.972 30.274 15.673 7.335 2.893 8.429 4.202 6.66 7.975-1.502 3.203-5.657 10.088-7.639 12.656-1.127 1.461-2.776 3.781-3.664 5.156-.888 1.375-2.341 3.344-3.23 4.375-8.014 9.304-.165 20.421 10.646 15.078 3.612-1.786 5.079-3.296 7.557-7.777 2.155-3.898 3.147-5.317 6.305-9.019 1.059-1.242 2.534-3.611 3.794-6.094 6.35-12.519 7.25-12.993 18.615-9.802 2.366.665 6.726 1.628 9.688 2.141 2.962.513 7.213 1.276 9.448 1.696 2.234.419 6.242.919 8.906 1.11 5.867.42 11.641 1.06 16.875 1.868 8.151 1.259 18.394 1.102 27.813-.426a208.15 208.15 0 0 1 9.531-1.281c2.578-.271 7.148-1.037 10.156-1.7 3.008-.663 6.693-1.433 8.189-1.71 1.495-.278 4.062-.918 5.702-1.423 1.641-.505 4.552-1.214 6.47-1.576 1.918-.362 4.414-1.01 5.547-1.44 2.686-1.019 4.404-1.093 5.554-.24 3.715 2.752 3.414 7.081-1.315 18.877-4.436 11.064-4.437 14.135-.002 16.4 2.41 1.232 6.098 1.343 8.173.247 6.947-3.671 13.8-21.352 14.385-37.116.256-6.889.48-7.2 7.922-11.007 18.002-9.208 20.563-10.793 28.594-17.697a1269.27 1269.27 0 0 1 6.719-5.726c1.976-1.671 5.914-5.308 8.75-8.081 2.835-2.773 6.562-6.204 8.281-7.625 3.754-3.102 4.687-4.146 7.699-8.614a918.935 918.935 0 0 1 5.788-8.438c6.943-10 12.301-20.314 13.428-25.844.594-2.918 1.295-5.047 2.91-8.843 2.438-5.728 2.608-6.234 3.304-9.844.282-1.461.938-3.992 1.459-5.625.798-2.501.99-3.746 1.217-7.902.535-9.767.922-13.861 1.559-16.473.356-1.461.77-3.386.919-4.278.248-1.478.472-1.809 2.548-3.75 4.326-4.044 4.595-4.397 5.427-7.128 2.217-7.268-1.047-13.248-7.246-13.275l-1.612-.006-.329-2.11c-.181-1.16-.472-3.937-.647-6.172-.316-4.05-.464-4.785-1.982-9.876-.441-1.478-.893-3.728-1.006-5-.431-4.883-.735-5.925-3.132-10.749-1.386-2.789-2.662-5.889-3.153-7.656-6.117-22.031-24.632-48.335-46.214-65.656-12.405-9.955-39.492-24.045-62.031-32.266a2709.87 2709.87 0 0 1-7.344-2.695c-6.377-2.35-15.692-5.416-20-6.583l-5.311-1.442c-1.708-.465-15.741-1.932-28.282-2.955-7.603-.621-18.158-.995-20.157-.715M205 36.404c7.435.627 9.436.923 13.779 2.042 1.961.506 5.182 1.279 7.159 1.719 1.976.44 5 1.277 6.718 1.86 1.719.583 4.672 1.366 6.563 1.74 1.89.374 4.839 1.097 6.552 1.606 1.714.509 3.894 1.065 4.844 1.235.951.171 3.979 1.02 6.729 1.887a683.02 683.02 0 0 0 6.532 2.032c.843.251 4.177 1.565 7.408 2.919 3.232 1.354 6.48 2.622 7.218 2.817 2.181.578 10.704 4.261 15.248 6.591 5.584 2.863 8.856 5.363 14.688 11.225 3.019 3.036 6.314 5.971 8.75 7.794 7.472 5.594 9.947 8.171 17.862 18.599 2.348 3.093 5.403 6.96 6.79 8.593 4.296 5.057 5.864 7.225 7.683 10.625 2.63 4.915 5.729 11.831 6.905 15.412a357.34 357.34 0 0 0 1.986 5.856c.518 1.471 1.03 3.51 1.138 4.531.108 1.021.742 3.474 1.408 5.451.666 1.976 1.491 5.21 1.833 7.187.342 1.977.916 4.508 1.276 5.625 1.219 3.79 1.886 10.113 1.735 16.471l-.135 5.716.837.234c1.692.475 4.528.233 5.946-.506.747-.39 1.429-.638 1.515-.552.398.398-2.863 3.043-5.235 4.246-1.451.735-2.779 1.437-2.951 1.559-.593.421-5.587 2.265-6.56 2.423-.958.156-.986.125-1.489-1.685-1.315-4.729-4.386-4.957-5.073-.375-.29 1.931-.409 2.067-2.198 2.485-8.622 2.017-7.865 8.198 1.402 11.436 4.554 1.591 7.893 1.37 12.158-.806l1.316-.671-.202 1.653c-.111.909-.542 3.622-.956 6.028-.414 2.407-.897 5.571-1.072 7.032-.353 2.944-.883 5.238-2.022 8.75a52.82 52.82 0 0 0-1.226 4.587c-.256 1.235-.955 3.766-1.551 5.625a131.397 131.397 0 0 0-1.877 6.506c-1.704 6.722-4.344 13.666-6.784 17.841-7.623 13.045-22.732 28.607-35.296 36.358-2.307 1.423-5.953 4.01-8.101 5.75-6.113 4.949-9.154 6.804-19.375 11.818-5.242 2.572-11.359 5.577-13.594 6.679-4.537 2.236-10.671 4.828-13.281 5.611-.945.284-2.915.987-4.377 1.561-3.459 1.359-6.128 2.039-8.009 2.039-.832 0-2.851.282-4.486.628-1.634.345-6.136 1.196-10.003 1.889-3.867.694-8.437 1.662-10.156 2.152-1.719.489-3.547 1-4.063 1.134-.515.134-2.906.267-5.312.296-4.026.048-4.595.13-7.126 1.024-5.336 1.887-13.688 2.25-19.145.832-3.351-.871-6.743-1.3-13.417-1.699-4.816-.288-7.805-.768-13.621-2.188-2.124-.519-4.492-.943-5.261-.943-.769 0-2.53-.137-3.914-.303a295.295 295.295 0 0 0-6.054-.634c-2.034-.191-4.225-.599-5.156-.96-.89-.344-3.024-.913-4.742-1.264-1.718-.35-4.39-1.106-5.938-1.68-1.547-.574-3.854-1.349-5.124-1.722-2.587-.759-9.907-3.679-16.283-6.494-34.349-15.165-57.516-35.034-64.027-54.912-.676-2.063-1.583-4.675-2.016-5.805-.432-1.131-1.065-3.522-1.406-5.313-.341-1.791-.906-3.982-1.257-4.868-.873-2.208-1.564-4.973-1.918-7.679-.164-1.25-.7-3.257-1.192-4.46-1.19-2.909-1.616-4.725-1.905-8.113-.184-2.155-.522-3.523-1.423-5.769-.649-1.619-1.312-3.869-1.472-5-.161-1.131-.632-3.884-1.048-6.118-1.873-10.053-1.98-22.367-.242-27.656 1.411-4.294 2.741-10.83 4.009-19.708.235-1.645.798-3.965 1.25-5.157.453-1.192 1.243-3.503 1.755-5.135a1285.95 1285.95 0 0 1 1.985-6.25 145.928 145.928 0 0 0 1.716-5.782c.365-1.375 1.138-3.625 1.718-5 1.448-3.434 3.476-8.871 4.429-11.875 2.447-7.719 5.86-14.476 10.51-20.807 1.462-1.991 4.391-6.21 6.508-9.375 5.967-8.919 14.738-16.991 25.276-23.263 1.976-1.176 6.757-4.261 10.625-6.855 5.385-3.612 8.677-5.547 14.062-8.266 3.867-1.953 8.297-4.282 9.844-5.177 8.785-5.081 17.257-8.836 22.253-9.864a107.064 107.064 0 0 0 6.341-1.561c3.481-.989 7.96-1.862 9.554-1.863.529 0 1.935-.34 3.125-.755 3.252-1.134 5.416-1.428 11.565-1.574 4.521-.107 6.05-.262 7.943-.807 4.762-1.37 8.759-1.459 20.625-.46m77.188 77.663c-7.477 1.297-17.04 8.264-18.328 13.354-.699 2.766 3.423 3.585 9.136 1.815 11.53-3.571 14.155-3.596 24.072-.228 9.768 3.318 14.184 3.251 14.181-.216-.002-1.968-.736-3.036-3.309-4.816a638.346 638.346 0 0 1-4.467-3.125c-8.74-6.182-14.383-7.98-21.285-6.784m-85.938 5.836c-2.573.431-8.961 3.251-10.701 4.724a70.923 70.923 0 0 1-2.736 2.142c-2.625 1.956-7.837 7.318-9.063 9.325-.602.984-1.643 2.441-2.315 3.236-3.874 4.589-3.259 6.451 2.129 6.451 4.938 0 8.252-1.18 11.397-4.058 1.749-1.6 5.623-4.578 8.008-6.156 4.671-3.091 14.593-4.204 22.043-2.472 6.86 1.594 9.363 1.501 9.363-.348 0-5.835-18.775-14.409-28.125-12.844m92.283 27.844c-1.351.723-4.39 3.688-4.648 4.536-.115.377-.389.897-.608 1.155-.555.651-5.152 8.706-5.152 9.027 0 .922-4.105 4.41-5.19 4.41-1.131 0-3.247-1.035-3.247-1.588 0-.158-.176-.289-.391-.291-.215-.002-1.068-.776-1.895-1.719-.827-.943-1.689-1.714-1.916-1.714-.226 0-.772-.473-1.213-1.05-.44-.578-1.265-1.287-1.833-1.577a72.941 72.941 0 0 1-2.44-1.328c-2.762-1.571-9.493-1.252-11.104.528-.305.338-.728.614-.94.614-.211 0-.614.352-.896.781-.282.43-.724.782-.983.782-.26 0-.564.241-.678.537-.228.593-7.277 7.588-7.648 7.588-.128 0-.544.421-.925.937-.382.516-.875.938-1.096.938-.222 0-.633.351-.915.781-.282.429-.707.781-.945.781s-.432.13-.432.29c0 .159-.387.493-.86.743-.473.249-1.692.916-2.709 1.481-3.115 1.731-5.49 1.155-10.322-2.502-1.144-.866-2.125-1.574-2.18-1.574-.233 0-5.492-5.418-5.492-5.658 0-.146-.352-.496-.781-.777-.43-.282-.781-.704-.781-.938 0-.234-.352-.656-.782-.937-.429-.282-.781-.678-.781-.88 0-.419-2.538-2.998-2.951-2.998-.149 0-.751-.366-1.338-.814-6.134-4.679-11.944 4.054-7.143 10.736.616.857 1.12 1.703 1.12 1.879 0 .176.21.401.468.5.258.098.469.38.469.625 0 .244.211.526.469.625.258.098.469.391.469.651 0 .259.351.701.781.983.429.282.781.674.781.872 0 .387 6.265 6.756 6.646 6.756.125 0 .792.546 1.481 1.215.688.668 1.743 1.448 2.344 1.733.6.285 1.092.641 1.092.791 0 .234 4.901 2.782 6.718 3.492 3.569 1.395 7.828 1.695 10.938.771 3.769-1.12 10.441-4.791 10.905-6.001.093-.242.375-.439.626-.439.252 0 .758-.422 1.125-.937.367-.516.861-.938 1.096-.938.236 0 1.022-.703 1.747-1.562.724-.86 1.492-1.563 1.706-1.563.213 0 1.095-.773 1.959-1.719.864-.945 1.678-1.718 1.808-1.718.131 0 .543-.287.916-.638.843-.792 2.547-1.089 3.581-.624 1.515.681 2.062 1.132 4.655 3.84 1.44 1.504 2.814 2.734 3.054 2.734.239 0 .515.207.612.461.097.254.55.655 1.006.893 3.88 2.021 4.318 2.182 6.349 2.327 2.259.162 6.106-.785 6.854-1.686.197-.238.537-.432.756-.432.218 0 .478-.211.577-.469.098-.258.364-.469.59-.469.422 0 3.672-3.121 3.672-3.525 0-.123.546-.788 1.215-1.477.668-.688 1.442-1.729 1.718-2.313.277-.583 1.12-1.883 1.873-2.888 1.774-2.368 3.943-6.284 5.341-9.641.214-.515.538-1.289.72-1.718 1.128-2.669 1.355-7.058.433-8.39-.315-.456-.663-1.075-.771-1.376-.109-.301-.396-.547-.638-.547s-.615-.211-.829-.469c-.551-.664-3.914-.605-5.217.091M75.088 208.445c-5.342 2.484-6.816 9.228-2.843 13.01 2.501 2.382 5.347 3.179 15.568 4.362 7.604.88 9.736 1.159 12.812 1.678 3.565.602 8.637 1.332 13.106 1.887 1.278.158 3.388.498 4.687.755 8.625 1.702 11.947 1.564 16.582-.691 7.182-3.495 10.442-13.512 5.269-16.187-1.259-.652-4.251-.666-5.488-.026-.539.279-1.8.544-2.803.59l-1.822.083-.781-1.621c-2.327-4.83-6.375-4.458-7.075.651l-.19 1.383-2.071.2c-2.429.234-4.166-.07-8.008-1.4-3.204-1.11-6.607-2.046-8.437-2.321-.688-.103-3.071-.541-5.295-.973-12.484-2.424-20.005-2.871-23.211-1.38" fill="#fbfbfb"/><path d="M188.125 35.921c-.773.148-2.461.572-3.75.943-1.893.545-3.422.7-7.943.807-6.149.146-8.313.44-11.565 1.574-1.19.415-2.596.755-3.125.755-1.594.001-6.073.874-9.554 1.863a107.064 107.064 0 0 1-6.341 1.561c-4.996 1.028-13.468 4.783-22.253 9.864-1.547.895-5.977 3.224-9.844 5.177-5.385 2.719-8.677 4.654-14.062 8.266-3.868 2.594-8.649 5.679-10.625 6.855-10.538 6.272-19.309 14.344-25.276 23.263-2.117 3.165-5.046 7.384-6.508 9.375-4.65 6.331-8.063 13.088-10.51 20.807-.953 3.004-2.981 8.441-4.429 11.875-.58 1.375-1.353 3.625-1.718 5a145.928 145.928 0 0 1-1.716 5.782 1285.95 1285.95 0 0 0-1.985 6.25c-.512 1.632-1.302 3.943-1.755 5.135-.452 1.192-1.015 3.512-1.25 5.157-1.268 8.878-2.598 15.414-4.009 19.708-1.738 5.289-1.631 17.603.242 27.656.416 2.234.887 4.987 1.048 6.118.16 1.131.823 3.381 1.472 5 .901 2.246 1.239 3.614 1.423 5.769.289 3.388.715 5.204 1.905 8.113.492 1.203 1.028 3.21 1.192 4.46.354 2.706 1.045 5.471 1.918 7.679.351.886.916 3.077 1.257 4.868.341 1.791.974 4.182 1.406 5.313.433 1.13 1.34 3.742 2.016 5.805 6.511 19.878 29.678 39.747 64.027 54.912 6.376 2.815 13.696 5.735 16.283 6.494 1.27.373 3.577 1.148 5.124 1.722 1.548.574 4.22 1.33 5.938 1.68 1.718.351 3.852.92 4.742 1.264.931.361 3.122.769 5.156.96 1.946.183 4.67.468 6.054.634 1.384.166 3.145.303 3.914.303.769 0 3.137.424 5.261.943 5.816 1.42 8.805 1.9 13.621 2.188 6.674.399 10.066.828 13.417 1.699 5.457 1.418 13.809 1.055 19.145-.832 2.531-.894 3.1-.976 7.126-1.024 2.406-.029 4.797-.162 5.312-.296.516-.134 2.344-.645 4.063-1.134 1.719-.49 6.289-1.458 10.156-2.152 3.867-.693 8.369-1.544 10.003-1.889 1.635-.346 3.654-.628 4.486-.628 1.881 0 4.55-.68 8.009-2.039 1.462-.574 3.432-1.277 4.377-1.561 2.61-.783 8.744-3.375 13.281-5.611 2.235-1.102 8.352-4.107 13.594-6.679 10.221-5.014 13.262-6.869 19.375-11.818 2.148-1.74 5.794-4.327 8.101-5.75 12.564-7.751 27.673-23.313 35.296-36.358 2.44-4.175 5.08-11.119 6.784-17.841.435-1.718 1.28-4.646 1.877-6.506.596-1.859 1.295-4.39 1.551-5.625a52.82 52.82 0 0 1 1.226-4.587c1.139-3.512 1.669-5.806 2.022-8.75.175-1.461.658-4.625 1.072-7.032.414-2.406.845-5.119.956-6.028l.202-1.653-1.316.671c-4.265 2.176-7.604 2.397-12.158.806-9.267-3.238-10.024-9.419-1.402-11.436 1.789-.418 1.908-.554 2.198-2.485.687-4.582 3.758-4.354 5.073.375.503 1.81.531 1.841 1.489 1.685.973-.158 5.967-2.002 6.56-2.423.172-.122 1.5-.824 2.951-1.559 2.372-1.203 5.633-3.848 5.235-4.246-.086-.086-.768.162-1.515.552-1.418.739-4.254.981-5.946.506l-.837-.234.135-5.716c.151-6.358-.516-12.681-1.735-16.471-.36-1.117-.934-3.648-1.276-5.625-.342-1.977-1.167-5.211-1.833-7.187-.666-1.977-1.3-4.43-1.408-5.451-.108-1.021-.62-3.06-1.138-4.531a357.34 357.34 0 0 1-1.986-5.856c-1.176-3.581-4.275-10.497-6.905-15.412-1.819-3.4-3.387-5.568-7.683-10.625-1.387-1.633-4.442-5.5-6.79-8.593-7.915-10.428-10.39-13.005-17.862-18.599-2.436-1.823-5.731-4.758-8.75-7.794-5.832-5.862-9.104-8.362-14.688-11.225-4.544-2.33-13.067-6.013-15.248-6.591-.738-.195-3.986-1.463-7.218-2.817-3.231-1.354-6.565-2.668-7.408-2.919a683.02 683.02 0 0 1-6.532-2.032c-2.75-.867-5.778-1.716-6.729-1.887-.95-.17-3.13-.726-4.844-1.235-1.713-.509-4.662-1.232-6.552-1.606-1.891-.374-4.844-1.157-6.563-1.74-1.718-.583-4.742-1.42-6.718-1.86a266.076 266.076 0 0 1-7.159-1.719c-7.028-1.811-26.15-3.386-30.654-2.525m101.339 78.277c5.13.833 7.107 1.772 14.009 6.653 1.27.898 3.28 2.304 4.467 3.125 2.573 1.78 3.307 2.848 3.309 4.816.003 3.467-4.413 3.534-14.181.216-9.917-3.368-12.542-3.343-24.072.228-5.713 1.77-9.835.951-9.136-1.815 1.961-7.751 15.676-14.835 25.604-13.223m-85.663 5.933c11.351 2.195 24.318 11.354 19.559 13.815-1.129.584-2.987.395-8.348-.851-7.45-1.732-17.372-.619-22.043 2.472-2.385 1.578-6.259 4.556-8.008 6.156-3.145 2.878-6.459 4.058-11.397 4.058-5.388 0-6.003-1.862-2.129-6.451.672-.795 1.713-2.252 2.315-3.236 1.226-2.007 6.438-7.369 9.063-9.325a70.923 70.923 0 0 0 2.736-2.142c4.337-3.672 12.332-5.641 18.252-4.496m89.949 27.525c.214.258.587.469.829.469s.529.246.638.547c.108.301.456.92.771 1.376.922 1.332.695 5.721-.433 8.39-.182.429-.506 1.203-.72 1.718-1.398 3.357-3.567 7.273-5.341 9.641-.753 1.005-1.596 2.305-1.873 2.888-.276.584-1.05 1.625-1.718 2.313-.669.689-1.215 1.354-1.215 1.477 0 .404-3.25 3.525-3.672 3.525-.226 0-.492.211-.59.469-.099.258-.359.469-.577.469-.219 0-.559.194-.756.432-.748.901-4.595 1.848-6.854 1.686-2.031-.145-2.469-.306-6.349-2.327-.456-.238-.909-.639-1.006-.893-.097-.254-.373-.461-.612-.461-.24 0-1.614-1.23-3.054-2.734-2.593-2.708-3.14-3.159-4.655-3.84-1.034-.465-2.738-.168-3.581.624-.373.351-.785.638-.916.638-.13 0-.944.773-1.808 1.718-.864.946-1.746 1.719-1.959 1.719-.214 0-.982.703-1.706 1.563-.725.859-1.511 1.562-1.747 1.562-.235 0-.729.422-1.096.938-.367.515-.873.937-1.125.937-.251 0-.533.197-.626.439-.464 1.21-7.136 4.881-10.905 6.001-3.11.924-7.369.624-10.938-.771-1.817-.71-6.718-3.258-6.718-3.492 0-.15-.492-.506-1.092-.791-.601-.285-1.656-1.065-2.344-1.733-.689-.669-1.356-1.215-1.481-1.215-.381 0-6.646-6.369-6.646-6.756 0-.198-.352-.59-.781-.872-.43-.282-.781-.724-.781-.983 0-.26-.211-.553-.469-.651-.258-.099-.469-.381-.469-.625 0-.245-.211-.527-.469-.625-.258-.099-.468-.324-.468-.5s-.504-1.022-1.12-1.879c-4.801-6.682 1.009-15.415 7.143-10.736.587.448 1.189.814 1.338.814.413 0 2.951 2.579 2.951 2.998 0 .202.352.598.781.88.43.281.782.703.782.937 0 .234.351.656.781.938.429.281.781.631.781.777 0 .24 5.259 5.658 5.492 5.658.055 0 1.036.708 2.18 1.574 4.832 3.657 7.207 4.233 10.322 2.502a190.173 190.173 0 0 1 2.709-1.481c.473-.25.86-.584.86-.743 0-.16.194-.29.432-.29s.663-.352.945-.781c.282-.43.693-.781.915-.781.221 0 .714-.422 1.096-.938.381-.516.797-.937.925-.937.371 0 7.42-6.995 7.648-7.588.114-.296.418-.537.678-.537.259 0 .701-.352.983-.782.282-.429.685-.781.896-.781.212 0 .635-.276.94-.614 1.611-1.78 8.342-2.099 11.104-.528a72.941 72.941 0 0 0 2.44 1.328c.568.29 1.393.999 1.833 1.577.441.577.987 1.05 1.213 1.05.227 0 1.089.771 1.916 1.714s1.68 1.717 1.895 1.719c.215.002.391.133.391.291 0 .553 2.116 1.588 3.247 1.588 1.085 0 5.19-3.488 5.19-4.41 0-.321 4.597-8.376 5.152-9.027.219-.258.493-.778.608-1.155.967-3.177 8.238-6.587 9.865-4.627M90.017 208.388c2.33.358 6.057 1.005 8.282 1.437 2.224.432 4.607.87 5.295.973 1.83.275 5.233 1.211 8.437 2.321 3.842 1.33 5.579 1.634 8.008 1.4l2.071-.2.19-1.383c.7-5.109 4.748-5.481 7.075-.651l.781 1.621 1.822-.083c1.003-.046 2.264-.311 2.803-.59 1.237-.64 4.229-.626 5.488.026 5.173 2.675 1.913 12.692-5.269 16.187-4.635 2.255-7.957 2.393-16.582.691a79.598 79.598 0 0 0-4.687-.755c-4.469-.555-9.541-1.285-13.106-1.887-3.076-.519-5.208-.798-12.812-1.678-8.43-.976-10.236-1.343-12.969-2.636-5.134-2.429-6.421-7.839-2.92-12.269 2.735-3.459 7.601-4.138 18.093-2.524" fill="#8c74bc"/></g></svg>