<svg xmlns="http://www.w3.org/2000/svg" width="400" height="400"><g fill-rule="evenodd"><path d="M244.219 145.476c-.86.221-2.246.415-3.08.432-.835.016-2.343.244-3.353.505-1.009.262-2.858.61-4.107.775-1.25.164-4.312.59-6.804.946-4.473.639-5.905.777-17.73 1.711-3.305.261-6.891.678-7.968.927-1.077.248-3.927.61-6.333.803-5.006.402-5.898.574-14.219 2.742-6.231 1.624-12.832 4.07-19.531 7.238-1.891.894-5.477 2.442-7.969 3.44-2.492.998-5.61 2.321-6.928 2.939l-2.397 1.124-.193 2.112c-.106 1.161-.33 3.518-.498 5.236-.621 6.373.044 11 2.246 15.625.327.688.799 2.258 1.048 3.489.263 1.304.837 2.847 1.373 3.692.507.798 1.081 2.181 1.276 3.073.754 3.448 1.355 5.402 1.898 6.166.31.438.904 1.563 1.319 2.5 2.309 5.209 8.464 12.014 12.575 13.902 6.336 2.91 7.355 3.272 9.205 3.272 1.143 0 2.825.332 4.581.903 1.527.497 3.831 1.132 5.12 1.412 5.906 1.28 11.983 2.444 14.844 2.842 1.719.239 4.32.6 5.781.801 3.167.437 8.079.804 14.688 1.096 7.7.341 23.885-1.772 28.762-3.753 1.015-.413 3.079-1.054 4.588-1.425 5.336-1.313 9.297-2.587 15.087-4.855 1.633-.639 3.949-1.51 5.148-1.935 1.198-.425 2.577-1.162 3.063-1.638.487-.476 1.795-1.309 2.906-1.85 2.199-1.073 9.44-5.865 10.856-7.184.484-.451 2.593-2.024 4.687-3.495 4.385-3.079 5.97-4.853 7.982-8.938.748-1.519 2.261-4.54 3.363-6.713 1.655-3.267 2.054-4.359 2.301-6.311.165-1.297.655-3.764 1.09-5.48 1.22-4.812.992-5.993-1.9-9.84-.791-1.053-1.833-2.688-2.314-3.635-.634-1.245-1.946-2.731-4.744-5.374-5.131-4.846-5.79-5.343-9.29-7.007-1.646-.782-3.273-1.683-3.617-2.001-.575-.533-2.25-1.356-7.656-3.761-4.889-2.175-11.67-3.482-20.937-4.035-2.665-.159-6.04-.437-7.5-.617-3.275-.403-4.709-.373-6.719.144" fill="#f9edf2"/><path d="M257.381 103.348c-.123.123-5.525.322-12.005.443-11.556.215-17.564.832-19.449 1.997-.167.103-1.253.308-2.413.456-1.159.147-3.092.419-4.295.605a656.41 656.41 0 0 1-6.875.991c-6.614.923-7.377 1.11-16.875 4.139-4.512 1.438-9.24 3.397-11.221 4.65-5.289 3.341-17.06 11.25-17.06 11.461 0 .139-2.684 2.91-5.964 6.159-3.28 3.249-6.223 6.399-6.54 7.001-.317.602-2.213 3.183-4.214 5.737-3.235 4.128-3.669 4.828-3.909 6.305-.149.913-.494 2.093-.768 2.622-.314.608-.37.961-.152.961.649 0 7.328-2.735 12.015-4.92 2.578-1.202 5.039-2.293 5.469-2.424.43-.132 2.34-.906 4.245-1.721 2.19-.937 5.983-2.132 10.312-3.248 3.767-.972 7.552-1.954 8.412-2.182.859-.229 3.601-.592 6.094-.806 2.492-.215 5.949-.651 7.682-.969 1.734-.319 6.163-.8 9.844-1.07 6.729-.494 9.416-.761 15.755-1.566 1.89-.24 4.633-.588 6.094-.772 1.46-.185 3.592-.614 4.736-.954 1.143-.34 2.806-.618 3.693-.618.888 0 2.81-.235 4.272-.522 2.485-.488 2.955-.488 7.244.003 2.522.289 5.546.524 6.72.522 3.998-.006 12.605 1.056 15.366 1.896 1.031.313 3.211.916 4.844 1.339 1.632.424 4.019 1.274 5.303 1.891 1.284.617 2.489 1.121 2.676 1.121.53 0 5.608 2.657 6.766 3.54.57.435 1.739 1.091 2.599 1.458 3.728 1.593 6.072 3.43 12.396 9.717 5.444 5.411 5.248 5.353 5.255 1.535.004-2.762-.841-10.967-1.238-12.011-.176-.465-.473-1.855-.659-3.089-1.235-8.213-5.545-18.592-10.13-24.39-1.296-1.639-5.911-4.652-8.825-5.761a296.27 296.27 0 0 1-4.925-1.938c-5.205-2.115-6.325-2.524-8.907-3.257a135.5 135.5 0 0 1-4.53-1.373c-5.424-1.795-16.122-3.674-16.838-2.958" fill="#ec84b4"/><path d="M188.438 35.609c-.774.147-2.461.571-3.75.941-1.879.539-3.462.702-7.969.819-6.233.163-8.34.448-11.539 1.564-1.19.415-2.596.755-3.125.755-1.594.001-6.073.874-9.555 1.863a107.658 107.658 0 0 1-6.341 1.561c-4.995 1.027-13.467 4.783-22.253 9.864-1.547.894-5.976 3.224-9.843 5.176-5.386 2.719-8.678 4.655-14.063 8.267-3.867 2.593-8.648 5.678-10.625 6.854C78.754 79.595 69.531 88.1 63.473 97.161c-2.117 3.165-5.045 7.384-6.507 9.375-4.649 6.332-8.062 13.089-10.51 20.808-.952 3.003-2.98 8.441-4.429 11.875-.58 1.375-1.353 3.625-1.718 5-.364 1.375-1.137 3.976-1.716 5.781-.579 1.805-1.472 4.617-1.984 6.25-.513 1.633-1.302 3.944-1.755 5.136-.453 1.192-1.015 3.512-1.25 5.156-.683 4.778-1.696 10.517-2.544 14.413-.756 3.472-.77 3.738-.373 6.881.719 5.69.978 5.69-9.203-.003-2.484-1.389-2.26-.682.313.989 5.483 3.561 9.472 5.022 16.436 6.019 4.493.644 10.101 1.825 14.736 3.104 18.472 5.097 23.107 8.186 22.174 14.777-.917 6.475-6.481 8.694-15.02 5.991-1.7-.539-3.725-1.16-4.498-1.38-.773-.22-4.078-1.247-7.344-2.282-3.265-1.035-7.695-2.372-9.843-2.971a374.18 374.18 0 0 1-7.969-2.34c-2.235-.688-5.188-1.495-6.563-1.792-1.375-.297-3.414-.887-4.531-1.311-3.723-1.413-3.704-1.411-3.443-.254.343 1.522 1.185 2.311 3.756 3.519 6.746 3.171 8.861 4.318 10.157 5.509l1.424 1.308.297 3.219c.204 2.206.55 3.829 1.101 5.156.532 1.283.897 2.949 1.082 4.932.333 3.586.746 5.347 1.935 8.255.493 1.203 1.029 3.21 1.192 4.46.355 2.707 1.045 5.471 1.919 7.679.35.886.916 3.077 1.257 4.869.34 1.791.973 4.182 1.406 5.312.433 1.13 1.339 3.743 2.015 5.805 6.555 20.009 30.213 40.332 64.652 55.538 6.376 2.815 13.697 5.734 16.283 6.493 1.271.373 3.577 1.148 5.125 1.722 1.547.574 4.219 1.33 5.937 1.681 1.718.35 3.852.919 4.743 1.264.931.361 3.122.768 5.156.959 1.945.183 4.67.469 6.053.635 1.384.166 3.146.302 3.915.302.768 0 3.136.425 5.261.943 5.815 1.42 8.804 1.901 13.621 2.188 6.673.399 10.065.829 13.417 1.7 5.392 1.401 13.217 1.047 18.52-.837 2.524-.897 3.097-.981 6.969-1.019 4.574-.046 4.885-.093 9.531-1.425 1.719-.493 6.289-1.464 10.157-2.157 3.867-.694 8.368-1.544 10.003-1.89 1.634-.345 3.653-.628 4.486-.628 1.88 0 4.55-.68 8.009-2.039 1.462-.574 3.431-1.276 4.377-1.56 2.61-.784 8.743-3.376 13.281-5.612 2.234-1.101 8.351-4.106 13.594-6.678 10.22-5.015 13.261-6.87 19.375-11.819 2.148-1.739 5.793-4.327 8.1-5.75 12.643-7.798 28.266-23.884 35.921-36.982 2.438-4.171 5.071-11.093 6.787-17.841.437-1.719 1.334-4.883 1.993-7.031.659-2.149 1.49-5.102 1.846-6.563a122.923 122.923 0 0 1 1.453-5.312c.442-1.461.947-3.711 1.122-5 .175-1.29.59-3.821.923-5.625 2.812-15.257 2.97-41.694.298-50-.359-1.118-.933-3.649-1.276-5.625-.342-1.977-1.167-5.211-1.833-7.188-.666-1.977-1.299-4.429-1.407-5.45-.108-1.021-.621-3.061-1.138-4.532a359.933 359.933 0 0 1-1.987-5.855c-1.176-3.581-4.274-10.498-6.905-15.413-1.818-3.399-3.386-5.568-7.682-10.625-1.387-1.633-4.443-5.499-6.791-8.593-8.001-10.541-10.55-13.208-18.018-18.85-2.84-2.145-6.075-5.014-9.219-8.175-5.819-5.85-9.088-8.347-14.687-11.218-4.545-2.329-13.067-6.013-15.249-6.59-.737-.196-3.985-1.463-7.217-2.818-3.232-1.354-6.566-2.667-7.408-2.918a689.394 689.394 0 0 1-6.533-2.033c-2.75-.867-5.778-1.716-6.728-1.886-.951-.171-3.131-.726-4.844-1.235-1.713-.509-4.662-1.232-6.553-1.606-1.89-.375-4.843-1.158-6.562-1.741-1.719-.583-4.742-1.42-6.719-1.86a269.923 269.923 0 0 1-7.159-1.718c-6.931-1.786-25.654-3.361-30.028-2.525m109.4 34.766c3.008 1.412 3.853 2.408 3.603 4.247-.382 2.808-1.455 3.472-7.649 4.732-5.066 1.031-5.507 1.515-1.917 2.107 6.925 1.142 10.218 5.702 6.994 9.686-2.727 3.369-5.454 3.507-10.599.537-1.914-1.104-3.355-1.643-6.239-2.33-9.732-2.319-10.942-3.418-9.4-8.541 2.438-8.1 17.183-14.206 25.207-10.438m-39.869 21.54c1.547.162 4.219.565 5.937.895 1.719.33 3.828.687 4.688.792 1.932.238 6.626 1.46 10.156 2.646 1.461.49 3.5 1.121 4.531 1.401 1.908.518 5.496 1.87 10.004 3.77 1.378.581 3.487 1.357 4.688 1.726 5.671 1.742 9.207 4.614 13.899 11.289.688.977 1.392 1.865 1.565 1.972.34.21 3.751 7.201 3.751 7.687 0 .161.687 1.942 1.527 3.959 1.989 4.777 3.326 9.032 3.753 11.948.188 1.289.55 3.539.803 5 1.499 8.654 1.319 17.639-.506 25.313-.184.773-.443 2.353-.576 3.511-.132 1.158-.666 3.478-1.186 5.156-1.228 3.961-2.08 7.373-2.714 10.864-.345 1.899-1.006 3.893-2.036 6.141-.839 1.83-1.688 3.94-1.888 4.687-1.507 5.629-6.912 12.453-13.15 16.602-1.957 1.302-4.45 3.154-5.538 4.115-1.089.961-2.425 1.975-2.969 2.255-.544.279-2.255 1.383-3.802 2.453-1.547 1.071-3.304 2.195-3.906 2.499-.602.303-1.727 1.206-2.5 2.006-1.172 1.213-1.874 1.612-4.219 2.401-1.547.521-4.57 1.544-6.718 2.274-6.892 2.342-14.149 4.634-16.719 5.28-1.375.346-3.966 1.143-5.757 1.771-3.174 1.114-6.762 1.771-14.556 2.665-1.718.197-4.04.486-5.158.642-3.908.547-9.8.705-12.967.349-1.718-.193-4.742-.426-6.718-.518-1.977-.092-4.157-.302-4.844-.466a13.723 13.723 0 0 0-2.558-.305c-1.683-.01-6.507-.778-10.88-1.734-1.89-.413-4.351-.898-5.468-1.078-2.351-.379-6.761-1.385-9.688-2.209-1.117-.314-2.99-.656-4.163-.759-2.223-.195-4.486-.94-8.962-2.948-1.461-.656-3.312-1.43-4.114-1.72-1.477-.535-5.981-3.712-8.187-5.774-3.853-3.603-12.386-19.706-12.387-23.375 0-.231-.409-1.156-.909-2.056-.501-.9-1.078-2.479-1.284-3.511-.205-1.031-.623-2.437-.928-3.125-.305-.687-.66-1.601-.79-2.031-.129-.43-.575-1.435-.99-2.233-1.672-3.216-1.749-12.943-.241-30.579.446-5.207.706-6.497 2.116-10.469a191.51 191.51 0 0 0 1.765-5.343c.588-1.879 1.613-4.194 2.531-5.722.849-1.412 1.544-2.664 1.546-2.782.006-.42 2.254-3.077 5.868-6.934 5.55-5.925 6.931-7.238 8.973-8.536 1.031-.655 3.562-2.25 5.625-3.544 2.062-1.294 4.453-2.98 5.312-3.747.86-.767 3.461-2.648 5.782-4.178 2.32-1.531 4.84-3.246 5.6-3.812 1.33-.989 2.406-1.588 6.981-3.886 3.825-1.922 10.574-3.83 16.012-4.528 1.203-.154 3.875-.493 5.938-.752l6.25-.787c5.313-.671 9.48-1.338 12.022-1.925 10.647-2.46 24.03-3.578 32.353-2.703m-116.267 4.979c7.685 1.109 10.543 3.42 11.586 9.364.579 3.307-5.088 9.367-8.76 9.367-.62 0-6.694 4.544-8.936 6.685-5.256 5.018-11.532 3.301-11.528-3.154.001-2.759 3.424-6.541 7.976-8.814.761-.38 1.465-.824 1.565-.985.1-.162.465-.294.811-.294.429 0 .597-.173.526-.541-.083-.431-.389-.525-1.508-.466-3.695.197-5.947.508-7.798 1.077-8.447 2.597-12.788-7.359-4.915-11.273 3.103-1.543 13.627-2.027 20.981-.966" fill="#8c74bc"/><path d="M182.969 19.563c-.516.072-2.696.354-4.844.625-9.25 1.166-12.44 2.078-23.767 6.789-1.751.728-4.607 1.499-8.281 2.236-3.291.659-7.48 1.762-10.139 2.669-2.493.851-5.789 1.907-7.325 2.348-1.7.488-5.009 1.926-8.458 3.676-3.115 1.582-7.343 3.641-9.394 4.578-13.312 6.077-33.388 18.459-43.569 26.872-7.997 6.608-14.76 15.047-24.182 30.175-8.493 13.638-12.357 22.586-17.673 40.938-1.682 5.805-3.002 10.033-4.586 14.687-.862 2.533-1.553 5.298-1.836 7.344-.834 6.038-2.04 16.559-2.04 17.799 0 .675-.141 1.314-.312 1.42-.172.106-.313.888-.313 1.737 0 1.804-.232 1.889-1.55.571-2.114-2.114-9.198-2.031-9.239.109-.004.217-.239.378-.522.356-.342-.026-.453.122-.33.442.124.323.06.404-.193.247-.278-.171-.322-.007-.164.621.166.661.121.796-.197.6-.297-.184-.356-.111-.212.265.11.286.076.52-.075.521-.416 0-.574 3.709-.228 5.362.231 1.103.419 1.413.776 1.276.359-.138.429-.019.295.497-.098.373-.05.599.106.503.155-.097.283-.019.283.172 0 .191.345.856.767 1.477.423.621.682 1.268.577 1.438-.105.17-.051.222.12.116.171-.105 1.002.547 1.845 1.45.844.903 1.986 1.974 2.538 2.381.552.407.945.834.873.95-.071.116.04.216.247.223.207.006 1.212.522 2.233 1.145 1.022.624 2.079 1.134 2.351 1.134.272 0 1.616.433 2.987.961s3.689 1.219 5.15 1.534c1.46.315 3.57.854 4.687 1.198l6.563 2.019c2.492.767 5.023 1.497 5.625 1.623 1.179.247 4.004 1.109 9.687 2.957 1.977.643 4.367 1.402 5.313 1.688.945.287 2.843.895 4.218 1.351 7.131 2.37 12.92.146 13.933-5.353.421-2.286-.242-4.907-1.638-6.47-.489-.547-.888-1.087-.888-1.198 0-.112-.387-.397-.86-.634-.473-.236-1.07-.591-1.328-.787-.788-.602-7.243-3.205-9.226-3.721a138.968 138.968 0 0 1-3.899-1.091c-8.343-2.483-14.217-3.753-21.719-4.695-2.111-.265-2.721-.406-4.062-.935a583.96 583.96 0 0 0-2.907-1.122c-1.255-.481-2.351-.986-2.435-1.122-.084-.136-.778-.524-1.541-.861-1.582-.7-3.361-1.946-4.571-3.203l-.829-.861.952.191c.524.105 2.503 1.08 4.396 2.167 4.352 2.499 6.102 3.203 6.472 2.604.146-.236.213-.513.149-.616-.675-1.092-.766-6.946-.151-9.686.749-3.333 1.954-10.128 2.636-14.864.25-1.73.824-4.121 1.276-5.313.453-1.192 1.243-3.503 1.755-5.135a1285.95 1285.95 0 0 1 1.985-6.25 145.928 145.928 0 0 0 1.716-5.782c.365-1.375 1.138-3.625 1.718-5 1.448-3.434 3.476-8.871 4.429-11.875 2.447-7.719 5.86-14.476 10.51-20.807 1.462-1.991 4.39-6.21 6.506-9.375 6.059-9.061 15.282-17.567 25.903-23.888 1.976-1.176 6.757-4.261 10.625-6.855 5.385-3.612 8.677-5.547 14.062-8.266 3.867-1.953 8.297-4.282 9.844-5.177 8.785-5.081 17.257-8.836 22.253-9.864a107.064 107.064 0 0 0 6.341-1.561c3.481-.989 7.96-1.862 9.554-1.863.529 0 1.935-.34 3.125-.755 3.257-1.135 5.456-1.435 11.42-1.554 4.855-.097 5.764-.204 8.557-1.006 6.059-1.739 24.723-.714 34.531 1.896 1.633.435 4.586 1.149 6.563 1.587 1.976.438 5 1.274 6.718 1.857 1.719.583 4.672 1.366 6.563 1.74 1.89.374 4.839 1.097 6.552 1.606 1.714.509 3.894 1.065 4.844 1.235.951.171 3.979 1.02 6.729 1.887a683.02 683.02 0 0 0 6.532 2.032c.843.251 4.177 1.565 7.408 2.919 3.232 1.354 6.48 2.622 7.218 2.817 2.181.578 10.704 4.261 15.248 6.591 5.599 2.87 8.869 5.367 14.688 11.217 3.144 3.162 6.378 6.03 9.218 8.176 7.469 5.642 10.018 8.308 18.019 18.85 2.348 3.093 5.403 6.96 6.79 8.593 4.296 5.057 5.864 7.225 7.683 10.625 2.63 4.915 5.729 11.831 6.905 15.412a357.34 357.34 0 0 0 1.986 5.856c.518 1.471 1.03 3.51 1.138 4.531.108 1.021.742 3.474 1.408 5.451.666 1.976 1.491 5.21 1.833 7.187.342 1.977.916 4.508 1.276 5.625 2.734 8.497 2.578 35.022-.298 50.625a149.147 149.147 0 0 0-.924 5.625c-.175 1.289-.68 3.539-1.122 5a123.343 123.343 0 0 0-1.452 5.313c-.357 1.46-1.188 4.414-1.847 6.562-.659 2.148-1.555 5.313-1.992 7.031-1.717 6.749-4.35 13.67-6.787 17.841-7.655 13.099-23.279 29.184-35.921 36.983-2.307 1.423-5.953 4.01-8.101 5.75-6.113 4.949-9.154 6.804-19.375 11.818-5.242 2.572-11.359 5.577-13.594 6.679-4.537 2.236-10.671 4.828-13.281 5.611-.945.284-2.915.987-4.377 1.561-3.459 1.359-6.128 2.039-8.009 2.039-.832 0-2.851.282-4.486.628-1.634.345-6.136 1.196-10.003 1.889-3.867.694-8.437 1.662-10.156 2.152-1.719.489-3.547 1-4.063 1.134-.515.134-2.906.267-5.312.296-4.026.048-4.595.13-7.126 1.024-5.336 1.887-13.688 2.25-19.145.832-3.351-.871-6.743-1.3-13.417-1.699-4.816-.288-7.805-.768-13.621-2.188-2.124-.519-4.492-.943-5.261-.943-.769 0-2.53-.137-3.914-.303a295.295 295.295 0 0 0-6.054-.634c-2.034-.191-4.225-.599-5.156-.96-.89-.344-3.024-.913-4.742-1.264-1.718-.35-4.39-1.106-5.938-1.68-1.547-.574-3.854-1.349-5.124-1.722-2.587-.759-9.907-3.679-16.283-6.494-34.439-15.205-58.098-35.528-64.652-55.537-.676-2.063-1.583-4.675-2.016-5.805-.432-1.131-1.065-3.522-1.406-5.313-.341-1.791-.906-3.982-1.257-4.868-.873-2.208-1.564-4.973-1.918-7.679-.164-1.25-.718-3.293-1.231-4.541-1.092-2.652-1.89-6.238-1.909-8.578-.008-.91-.229-2.216-.491-2.904-1.12-2.93-1.43-4.223-1.68-6.989-.358-3.972-1.531-5.155-7.972-8.042-4.921-2.205-6.406-2.959-6.406-3.253 0-.17-.162-.309-.36-.309-.58 0-.114 8.952.652 12.5.352 1.632.726 4.164.831 5.625.106 1.46.388 3.349.628 4.197.274.967.436 3.081.436 5.675 0 6.181.669 8.771 6.078 23.565a870.857 870.857 0 0 1 2.51 6.937c1.258 3.564 6.348 15.533 8.213 19.313 1.622 3.289 2.041 3.859 4.929 6.719 8.073 7.991 19.523 18.527 23.896 21.987 1.632 1.292 4.226 3.538 5.764 4.99 4.913 4.639 13.281 8.972 30.259 15.667 8.82 3.478 8.956 4.077 3.202 14.075-1.336 2.32-3.35 5.414-4.478 6.875-1.127 1.46-2.776 3.781-3.664 5.156-.888 1.375-2.341 3.344-3.23 4.375-3.374 3.917-4.128 7.217-2.474 10.83 3.967 8.666 14.792 6.489 20.679-4.158 2.153-3.895 3.145-5.314 6.303-9.016 1.059-1.242 2.534-3.61 3.794-6.094 6.361-12.54 7.194-12.925 19.938-9.218 1.719.5 5.586 1.335 8.594 1.856 3.008.521 7.297 1.29 9.531 1.71 2.235.419 6.242.919 8.907 1.11 5.842.419 11.615 1.057 16.875 1.865 8.12 1.248 17.817 1.097 27.187-.423a208.15 208.15 0 0 1 9.531-1.281c2.578-.271 7.149-1.037 10.157-1.7 3.007-.663 6.692-1.433 8.188-1.71 1.496-.278 4.062-.918 5.703-1.423s4.552-1.214 6.47-1.576c1.917-.362 4.414-1.013 5.547-1.447 9.217-3.528 10.829 3.106 4.587 18.877-4.149 10.482-4.329 13.032-1.087 15.38 3.652 2.645 7.9 2.394 11.394-.674 5.872-5.156 11.713-22.238 12.213-35.721.256-6.877.316-6.962 7.61-10.693 18.017-9.218 20.562-10.794 28.593-17.698 1.719-1.478 4.742-4.056 6.719-5.729 1.977-1.673 5.984-5.374 8.906-8.226 2.922-2.851 6.789-6.405 8.594-7.899 3.744-3.098 4.385-3.821 7.559-8.53a950.602 950.602 0 0 1 5.772-8.412c6.943-10 12.301-20.314 13.428-25.844.594-2.919 1.295-5.047 2.91-8.844 2.438-5.728 2.608-6.234 3.304-9.843.282-1.461.938-3.993 1.459-5.625.798-2.502.99-3.746 1.217-7.903.571-10.419.913-13.833 1.697-16.941 1.61-6.381 1.787-19.963.336-25.781-.494-1.979-.995-5.328-1.262-8.438-.473-5.509-.682-6.673-1.84-10.265l-.741-2.297 2.557-2.547c1.407-1.401 2.961-3.25 3.455-4.11.493-.859 1.326-2.083 1.851-2.719.876-1.061 3.803-6.576 4.989-9.401 1.284-3.058.142-8.763-1.983-9.9-1.897-1.016-6.415.22-7.268 1.988-.174.361-.9 1.085-1.613 1.608-.712.523-1.845 1.788-2.515 2.812-3.921 5.985-4.926 5.667-6.972-2.2-.328-1.261-4.498-11.171-6.272-14.905-8.037-16.922-23.18-35.553-39.599-48.721-12.424-9.964-39.496-24.045-62.031-32.265a2590.6 2590.6 0 0 1-7.344-2.695c-6.377-2.35-15.693-5.416-20-6.583-2.063-.559-4.453-1.208-5.311-1.442-4.966-1.353-43.344-4.299-47.814-3.67m108.594 49.908c-.086.086-1.633.391-3.438.677-8.829 1.403-15.447 7.038-15.463 13.168-.009 3.126.901 3.675 9.468 5.713 2.318.551 4.315 1.224 5.021 1.691 5.899 3.904 10.02 3.707 12.053-.576 1.879-3.962-.437-6.718-7.045-8.383-3-.756-4.023-1.556-2.414-1.888.398-.083 2.234-.435 4.08-.782 5.83-1.1 7.425-2.164 7.425-4.959 0-1.521-.673-2.187-3.594-3.555-2.005-.939-5.605-1.592-6.093-1.106m-51.25 23.033c-5.42.62-9.147 1.23-14.219 2.326-5.279 1.14-8.737 1.733-10.119 1.733-.691 0-1.932.127-2.756.283-.825.156-3.469.517-5.875.801-8.14.961-12.143 1.723-16.663 3.171-3.096.991-9.741 4.306-12.205 6.089-.966.699-3.256 2.237-5.088 3.418-1.831 1.182-4.358 3.009-5.615 4.062-2.326 1.948-6.419 4.76-8.398 5.769-2.101 1.071-6.725 4.481-7.482 5.518-.42.574-2.663 3.04-4.986 5.479-5.325 5.591-8.564 10.863-9.863 16.053-.277 1.107-.926 3.094-1.443 4.415-1.625 4.158-1.768 5.254-2.787 21.348-.672 10.629-.299 16.524 1.225 19.381.529.99.961 1.997.961 2.238 0 .24.268.963.597 1.606.328.643.748 1.99.933 2.993.185 1.002.761 2.605 1.279 3.561.517.956.943 1.959.947 2.229.025 2.29 4.259 11.627 7.414 16.355.831 1.244 1.88 2.895 2.333 3.668 1.751 2.989 8.461 8.402 11.485 9.265.952.271 2.223.756 2.825 1.078 3.691 1.974 6.944 3.049 10.312 3.408 1.289.138 2.977.457 3.75.709 1.905.62 6.58 1.706 9.063 2.105 1.117.179 3.578.664 5.468 1.077 4.589 1.003 9.241 1.733 11.038 1.733.807 0 1.958.141 2.558.314.6.173 2.568.384 4.373.47 1.805.086 4.89.315 6.855.511 3.576.355 9.135.207 13.145-.35 1.117-.155 3.438-.444 5.156-.643 9.535-1.103 12.442-1.684 16.344-3.27 1.045-.425 3.35-1.117 5.122-1.538 3.492-.829 6.912-1.906 12.284-3.867 1.891-.69 5.125-1.781 7.188-2.424 4.737-1.477 5.82-2.024 7.062-3.57.551-.685 1.297-1.338 1.657-1.451.361-.112 2.062-1.152 3.781-2.311 1.719-1.159 3.747-2.493 4.508-2.965.76-.472 2.294-1.631 3.408-2.576 1.114-.945 3.281-2.543 4.817-3.551 6.615-4.344 11.066-9.983 13.508-17.114.39-1.139 1.299-3.375 2.019-4.968.823-1.821 1.487-3.911 1.787-5.625.52-2.975.554-3.111 2.168-8.822.607-2.148 1.245-4.68 1.417-5.625.172-.945.514-2.773.761-4.062 1.948-10.194 2.12-17.387.616-25.782a181.131 181.131 0 0 1-.802-4.954c-.41-2.847-2.25-8.649-3.867-12.194-.617-1.354-1.123-2.619-1.124-2.813-.024-2.862-7.969-14.769-11.885-17.811-2.33-1.809-5.059-3.194-8.425-4.276-1.461-.469-3.641-1.287-4.844-1.816-3.602-1.585-6.999-2.841-9.828-3.637-1.47-.413-4.5-1.322-6.734-2.02-2.235-.698-5.047-1.415-6.25-1.594a161.563 161.563 0 0 1-5.313-.921c-7.219-1.38-15.117-1.586-23.593-.616m-115.082 4.378c-6.532.745-9.875 4.782-7.693 9.29 1.409 2.912 4.106 3.834 7.884 2.697 3.373-1.015 9.648-1.24 9.826-.352.065.322-.123.62-.459.725a5.971 5.971 0 0 0-1.039.454c-2.976 1.752-3.916 2.387-5.906 3.989-4.363 3.513-4.921 6.48-1.821 9.683 2.403 2.483 7.459 1.969 9.002-.916.783-1.461 7.391-6.118 11.555-8.143 3.51-1.706 5.248-3.376 6.061-5.826 1.257-3.784-2.067-9.081-6.529-10.408-4.153-1.234-15.055-1.857-20.881-1.193m139.916 7.028c4.397.745 5.965 1.156 14.072 3.687 6.835 2.135 15.404 5.743 18.494 7.788 3.791 2.508 6.885 6.533 9.038 11.756.47 1.143 1.414 3.414 2.095 5.047 2.969 7.108 6.234 30 4.279 30-.172 0-.312-.16-.312-.354 0-1.727-13.378-13.267-17.344-14.961-.859-.367-2.028-1.023-2.598-1.458-1.159-.883-6.236-3.54-6.766-3.54-.188 0-1.392-.504-2.676-1.121-1.285-.617-3.671-1.467-5.304-1.891a154.341 154.341 0 0 1-4.844-1.339c-2.794-.85-11.353-1.899-15.491-1.899-1.242 0-4.158-.229-6.478-.508-3.896-.47-4.417-.47-6.806 0-1.423.279-3.313.508-4.201.508-.888 0-2.55.278-3.694.618-1.144.34-3.275.769-4.736.954-1.461.184-4.203.532-6.094.772-6.338.805-9.025 1.072-15.754 1.566-3.681.27-8.111.751-9.844 1.068-1.734.318-5.12.747-7.527.954-2.406.207-4.867.491-5.468.632-4.776 1.112-16.083 4.192-17.344 4.723-.86.362-3.531 1.471-5.938 2.464a270.18 270.18 0 0 0-8.437 3.682c-4.406 2.035-10.136 4.254-10.372 4.018-.081-.081.093-.513.386-.96.293-.447.722-1.718.954-2.823.386-1.841.725-2.397 4.046-6.636 1.994-2.544 3.883-5.118 4.198-5.719.314-.602 3.082-3.573 6.149-6.604 3.067-3.03 5.897-5.884 6.29-6.342.604-.705 9.819-6.936 16.521-11.169 3.064-1.936 7.146-3.51 17.297-6.67 4.492-1.399 14.199-3.278 16.929-3.278 1.105 0 2.988-.335 8.383-1.49 6.922-1.483 8.217-1.599 18.281-1.645 5.328-.025 10.391-.154 11.25-.288 2.779-.433 4.646-.342 9.366.458m-14.209 41.422c1.46.18 4.835.458 7.5.617 9.267.553 16.048 1.86 20.937 4.035 5.406 2.405 7.081 3.228 7.656 3.761.344.318 1.971 1.219 3.617 2.001 3.5 1.664 4.159 2.161 9.29 7.007 2.798 2.643 4.11 4.129 4.744 5.374.481.947 1.523 2.582 2.314 3.635 2.892 3.847 3.12 5.028 1.9 9.84-.435 1.716-.925 4.183-1.09 5.48-.247 1.952-.646 3.044-2.301 6.311a792.733 792.733 0 0 0-3.363 6.713c-2.012 4.085-3.597 5.859-7.982 8.938-2.094 1.471-4.203 3.044-4.687 3.495-1.416 1.319-8.657 6.111-10.856 7.184-1.111.541-2.419 1.374-2.906 1.85-.486.476-1.865 1.213-3.063 1.638a210.824 210.824 0 0 0-5.148 1.935c-5.79 2.268-9.751 3.542-15.087 4.855-1.509.371-3.573 1.012-4.588 1.425-4.877 1.981-21.062 4.094-28.762 3.753-6.609-.292-11.521-.659-14.688-1.096-1.461-.201-4.062-.562-5.781-.801-2.861-.398-8.938-1.562-14.844-2.842-1.289-.28-3.593-.915-5.12-1.412-1.756-.571-3.438-.903-4.581-.903-1.85 0-2.869-.362-9.205-3.272-4.111-1.888-10.266-8.693-12.575-13.902-.415-.937-1.009-2.062-1.319-2.5-.543-.764-1.144-2.718-1.898-6.166-.195-.892-.769-2.275-1.276-3.073-.536-.845-1.11-2.388-1.373-3.692-.249-1.231-.721-2.801-1.048-3.489-2.202-4.625-2.867-9.252-2.246-15.625.168-1.718.392-4.075.498-5.236l.193-2.112 2.397-1.124c1.318-.618 4.436-1.941 6.928-2.939s6.078-2.546 7.969-3.44c6.699-3.168 13.3-5.614 19.531-7.238 8.321-2.168 9.213-2.34 14.219-2.742 2.406-.193 5.256-.555 6.333-.803 1.077-.249 4.663-.666 7.968-.927 11.825-.934 13.257-1.072 17.73-1.711a806.64 806.64 0 0 1 6.804-.946c1.249-.165 3.098-.513 4.107-.775 1.01-.261 2.518-.489 3.353-.505.834-.017 2.22-.211 3.08-.432 2.01-.517 3.444-.547 6.719-.144" fill="#fff"/></g></svg>