<?xml version="1.0" encoding="UTF-8" standalone="no"?>
<svg
   xmlns:dc="http://purl.org/dc/elements/1.1/"
   xmlns:cc="http://creativecommons.org/ns#"
   xmlns:rdf="http://www.w3.org/1999/02/22-rdf-syntax-ns#"
   xmlns:svg="http://www.w3.org/2000/svg"
   xmlns="http://www.w3.org/2000/svg"
   xmlns:sodipodi="http://sodipodi.sourceforge.net/DTD/sodipodi-0.dtd"
   xmlns:inkscape="http://www.inkscape.org/namespaces/inkscape"
   class="normal"
   viewBox="0 0 400 400"
   version="1.1"
   id="svg78"
   sodipodi:docname="happy-stroked copy.svg"
   inkscape:version="1.0.2-2 (e86c870879, 2021-01-15)">
  <metadata
     id="metadata84">
    <rdf:RDF>
      <cc:Work
         rdf:about="">
        <dc:format>image/svg+xml</dc:format>
        <dc:type
           rdf:resource="http://purl.org/dc/dcmitype/StillImage" />
      </cc:Work>
    </rdf:RDF>
  </metadata>
  <defs
     id="defs82" />
  <sodipodi:namedview
     pagecolor="#ffffff"
     bordercolor="#666666"
     borderopacity="1"
     objecttolerance="10"
     gridtolerance="10"
     guidetolerance="10"
     inkscape:pageopacity="0"
     inkscape:pageshadow="2"
     inkscape:window-width="2400"
     inkscape:window-height="1321"
     id="namedview80"
     showgrid="false"
     inkscape:zoom="1.5556349"
     inkscape:cx="103.83229"
     inkscape:cy="42.103498"
     inkscape:window-x="2391"
     inkscape:window-y="-9"
     inkscape:window-maximized="1"
     inkscape:current-layer="svg78" />
  <!-- <path class="outline" fill="none" stroke="#fbfbfb" stroke-width="15" stroke-linecap="round" stroke-linejoin="round" d="M188.78 27.97c-30.262 2.852-41.62 4.644-70.485 18.735-40.135 21.28-52.904 30.287-71.022 60.568-16.239 30.583-21.66 53.653-25.228 86.363-.327 47.931 16.316 92.965 30.228 104.773 30.832 26.63 72.336 47.267 136.818 49.318 60.604-2.865 94.701-13.177 125-39.09 35.86-23.961 42.851-45.102 56.136-81.364 6.076-31.017 3.883-59.29-2.045-85-10.977-32.71-37.075-62.497-54.88-75.651-24.077-14.907-24.996-18.377-64.996-29.74-11.477-3.637-26.595-9.54-56.004-9.138z m11.219 135.87c7.312 6.508 13.644 21.444 27.321 18.743 7.633-1.508 18.85-16.52 25.631-18.1 6.409 1.93 7.374 4.454 9.816 6.322 1.966 1.504 4.624 5.417 7.5 5.363 2.133-.04 7.02-3.56 8.22-4.699 2.987-2.837 7.024-9.963 9.943-16.61" /> -->
  <!-- <path class="outline" fill="none" stroke="#fbfbfb" stroke-width="18" stroke-linecap="round" stroke-linejoin="round" d="M116.932 340.568c-.341 6.705-21.023 34.205-21.023 34.205 M270.567 339.104c6.846 13.525-5.136 34.314-5.136 34.314" /> -->
  <path
     style="fill:none;stroke:#00fb00;stroke-width:16;stroke-linecap:round;stroke-linejoin:round;stroke-miterlimit:4;stroke-dasharray:none;stroke-opacity:0.329412"
     d="m 78.157141,216.26396 c -0.433229,-0.29538 10.686604,-0.30983 27.597309,3.54831 11.44486,3.2571 24.60456,2.86436 24.60456,2.86436"
     id="path917-7-2"
     sodipodi:nodetypes="ccc" />
  <path
     style="fill:none;stroke:#00fb00;stroke-width:12;stroke-linecap:round;stroke-linejoin:round;stroke-miterlimit:4;stroke-dasharray:none;stroke-opacity:0.329412"
     d="m 356.20083,199.91121 c 3.86364,0.28409 10.91303,-2.22308 18.94381,-7.20426 16.93725,-7.99423 8.54089,-13.24888 8.54089,-13.24888"
     id="path917-0-1"
     sodipodi:nodetypes="ccc" />
</svg>
