<svg class="normal" xmlns="http://www.w3.org/2000/svg" viewBox="0 0 400 400">
  <g class="outline" fill="none" stroke="#fbfbfb" stroke-linecap="round" stroke-linejoin="round">
    <path stroke-width="15" d="M188.78 27.97c-30.262 2.852-41.62 4.644-70.485 18.735-40.135 21.28-52.904 30.287-71.022 60.568-16.239 30.583-21.66 53.653-25.228 86.363-.327 47.931 16.316 92.965 30.228 104.773 30.832 26.63 72.336 47.267 136.818 49.318 60.604-2.865 94.701-13.177 125-39.09 35.86-23.961 42.851-45.102 56.136-81.364 6.076-31.017 3.883-59.29-2.045-85-10.977-32.71-37.075-62.497-54.88-75.651-24.077-14.907-24.996-18.377-64.996-29.74-11.477-3.637-26.595-9.54-56.004-9.138z m11.219 135.87c7.312 6.508 13.644 21.444 27.321 18.743 7.633-1.508 18.85-16.52 25.631-18.1 6.409 1.93 7.374 4.454 9.816 6.322 1.966 1.504 4.624 5.417 7.5 5.363 2.133-.04 7.02-3.56 8.22-4.699 2.987-2.837 7.024-9.963 9.943-16.61" />
    <path stroke-width="18" d="M116.932 340.568c-.341 6.705-21.023 34.205-21.023 34.205 M270.567 339.104c6.846 13.525-5.136 34.314-5.136 34.314" />
    <path stroke-width="16" d="M78.157 216.264c-.433-.295 10.687-.31 27.597 3.548 11.445 3.257 24.605 2.865 24.605 2.865" />
    <path stroke-width="12" d="M356.2 199.911c3.864.284 10.914-2.223 18.945-7.204 16.937-7.994 8.54-13.249 8.54-13.249" />
    <path stroke-width="4" d="M171.108 143.437c4.598-7.036 12.771-17.942 24.244-21.056 8.14-2.21 21.352 2.284 26.975 10.023" />
    <path stroke-width="4" d="M171.108 143.437s2.495.797 5.87-.047c2.203-.54 4.104-.694 11.625-7.291 3.224-2.828 8.695-4.975 12.079-5.244 9.76-1.854 14.035 1.192 21.133 1.647" />
    <path stroke-width="6" d="M176.817 140.417s10.004-10.888 19.285-13.54c5.062-1.687 18.2 1.808 18.2 1.808" />
    <path stroke-width="4" d="M265.665 127.807c3.273-5.63 10.32-11.112 18.98-11.936 7.359-.7 19.092 6.425 24.205 11.51.95.943.102 2.462.155 1.772" />
    <path stroke-width="4" d="M265.665 127.807c1.557.722 3.236.347 4.302.105 8.278-1.871 10.485-3.611 15.949-3.426 10.202.617 17.639 6.058 23.09 4.667" />
    <path stroke-width="6" d="M271.896 124.867s7.312-4.82 10.647-4.74c9.12-.442 20.69 6.026 20.69 6.026M123.757 217.814s2.165-13.607 4.335.174c9.619-3.465 12.316-2.125 12.014.495-.402 3.484-6.111 9.233-7.9 8.958M357.352 202.922c-6.84-.224-15.21-4.495-3.287-6.806 2.449-10.267-.627-.323 4.998.273" />
    <path stroke-width="6" d="M78.157 216.264c-.433-.295 10.687-.31 27.597 3.548 11.445 3.257 24.605 2.865 24.605 2.865" />
    <path stroke-width="2" d="M356.2 199.911c3.864.284 10.914-2.223 18.945-7.204 16.937-7.994 8.54-13.249 8.54-13.249" />
  </g>
  <path d="M188.125 35.921 C 187.352 36.069,185.664 36.493,184.375 36.864 C 182.482 37.409,180.953 37.564,176.432 37.671 C 170.283 37.817,168.119 38.111,164.867 39.245 C 163.677 39.660,162.271 40.000,161.742 40.000 C 160.148 40.001,155.669 40.874,152.188 41.863 C 150.383 42.376,147.529 43.078,145.847 43.424 C 140.851 44.452,132.379 48.207,123.594 53.288 C 122.047 54.183,117.617 56.512,113.750 58.465 C 108.365 61.184,105.073 63.119,99.688 66.731 C 95.820 69.325,91.039 72.410,89.063 73.586 C 78.525 79.858,69.754 87.930,63.787 96.849 C 61.670 100.014,58.741 104.233,57.279 106.224 C 52.629 112.555,49.216 119.312,46.769 127.031 C 45.816 130.035,43.788 135.472,42.340 138.906 C 41.760 140.281,40.987 142.531,40.622 143.906 C 40.257 145.281,39.485 147.883,38.906 149.688 C 38.327 151.492,37.434 154.305,36.921 155.938 C 36.409 157.570,35.619 159.881,35.166 161.073 C 34.714 162.265,34.151 164.585,33.916 166.230 C 32.648 175.108,31.318 181.644,29.907 185.938 C 28.169 191.227,28.276 203.541,30.149 213.594 C 30.565 215.828,31.036 218.581,31.197 219.712 C 31.357 220.843,32.020 223.093,32.669 224.712 C 33.570 226.958,33.908 228.326,34.092 230.481 C 34.381 233.869,34.807 235.685,35.997 238.594 C 36.489 239.797,37.025 241.804,37.189 243.054 C 37.543 245.760,38.234 248.525,39.107 250.733 C 39.458 251.619,40.023 253.810,40.364 255.601 C 40.705 257.392,41.338 259.783,41.770 260.914 C 42.203 262.044,43.110 264.656,43.786 266.719 C 50.297 286.597,73.464 306.466,107.813 321.631 C 114.189 324.446,121.509 327.366,124.096 328.125 C 125.366 328.498,127.673 329.273,129.220 329.847 C 130.768 330.421,133.440 331.177,135.158 331.527 C 136.876 331.878,139.010 332.447,139.900 332.791 C 140.831 333.152,143.022 333.560,145.056 333.751 C 147.002 333.934,149.726 334.219,151.110 334.385 C 152.494 334.551,154.255 334.688,155.024 334.688 C 155.793 334.688,158.161 335.112,160.285 335.631 C 166.101 337.051,169.090 337.531,173.906 337.819 C 180.580 338.218,183.972 338.647,187.323 339.518 C 192.780 340.936,201.132 340.573,206.468 338.686 C 208.999 337.792,209.568 337.710,213.594 337.662 C 216.000 337.633,218.391 337.500,218.906 337.366 C 219.422 337.232,221.250 336.721,222.969 336.232 C 224.688 335.742,229.258 334.774,233.125 334.080 C 236.992 333.387,241.494 332.536,243.128 332.191 C 244.763 331.845,246.782 331.563,247.614 331.563 C 249.495 331.563,252.164 330.883,255.623 329.524 C 257.085 328.950,259.055 328.247,260.000 327.963 C 262.610 327.180,268.744 324.588,273.281 322.352 C 275.516 321.250,281.633 318.245,286.875 315.673 C 297.096 310.659,300.137 308.804,306.250 303.855 C 308.398 302.115,312.044 299.528,314.351 298.105 C 326.915 290.354,342.024 274.792,349.647 261.747 C 352.087 257.572,354.727 250.628,356.431 243.906 C 356.866 242.188,357.711 239.260,358.308 237.400 C 358.904 235.541,359.603 233.010,359.859 231.775 C 360.115 230.541,360.667 228.477,361.085 227.188 C 362.224 223.676,362.754 221.382,363.107 218.438 C 363.282 216.977,363.765 213.813,364.179 211.406 C 364.593 209.000,365.024 206.287,365.135 205.378 L 365.337 203.725 364.021 204.396 C 359.756 206.572,356.417 206.793,351.863 205.202 C 342.596 201.964,341.839 195.783,350.461 193.766 C 352.250 193.348,352.369 193.212,352.659 191.281 C 353.346 186.699,356.417 186.927,357.732 191.656 C 358.235 193.466,358.263 193.497,359.221 193.341 C 360.194 193.183,365.188 191.339,365.781 190.918 C 365.953 190.796,367.281 190.094,368.732 189.359 C 371.104 188.156,374.365 185.511,373.967 185.113 C 373.881 185.027,373.199 185.275,372.452 185.665 C 371.034 186.404,368.198 186.646,366.506 186.171 L 365.669 185.937 365.804 180.221 C 365.955 173.863,365.288 167.540,364.069 163.750 C 363.709 162.633,363.135 160.102,362.793 158.125 C 362.451 156.148,361.626 152.914,360.960 150.938 C 360.294 148.961,359.660 146.508,359.552 145.487 C 359.444 144.466,358.932 142.427,358.414 140.956 C 357.896 139.485,357.003 136.850,356.428 135.100 C 355.252 131.519,352.153 124.603,349.523 119.688 C 347.704 116.288,346.136 114.120,341.840 109.063 C 340.453 107.430,337.398 103.563,335.050 100.470 C 327.135 90.042,324.660 87.465,317.188 81.871 C 314.752 80.048,311.457 77.113,308.438 74.077 C 302.606 68.215,299.334 65.715,293.750 62.852 C 289.206 60.522,280.683 56.839,278.502 56.261 C 277.764 56.066,274.516 54.798,271.284 53.444 C 268.053 52.090,264.719 50.776,263.876 50.525 C 263.033 50.274,260.094 49.360,257.344 48.493 C 254.594 47.626,251.566 46.777,250.615 46.606 C 249.665 46.436,247.485 45.880,245.771 45.371 C 244.058 44.862,241.109 44.139,239.219 43.765 C 237.328 43.391,234.375 42.608,232.656 42.025 C 230.938 41.442,227.914 40.605,225.938 40.165 C 223.961 39.725,220.740 38.952,218.779 38.446 C 211.751 36.635,192.629 35.060,188.125 35.921 M289.464 114.198 C 294.594 115.031,296.571 115.970,303.473 120.851 C 304.743 121.749,306.753 123.155,307.940 123.976 C 310.513 125.756,311.247 126.824,311.249 128.792 C 311.252 132.259,306.836 132.326,297.068 129.008 C 287.151 125.640,284.526 125.665,272.996 129.236 C 267.283 131.006,263.161 130.187,263.860 127.421 C 265.821 119.670,279.536 112.586,289.464 114.198 M203.801 120.131 C 215.152 122.326,228.119 131.485,223.360 133.946 C 222.231 134.530,220.373 134.341,215.012 133.095 C 207.562 131.363,197.640 132.476,192.969 135.567 C 190.584 137.145,186.710 140.123,184.961 141.723 C 181.816 144.601,178.502 145.781,173.564 145.781 C 168.176 145.781,167.561 143.919,171.435 139.330 C 172.107 138.535,173.148 137.078,173.750 136.094 C 174.976 134.087,180.188 128.725,182.813 126.769 C 183.758 126.065,184.989 125.101,185.549 124.627 C 189.886 120.955,197.881 118.986,203.801 120.131 M293.750 147.656 C 293.964 147.914,294.337 148.125,294.579 148.125 C 294.821 148.125,295.108 148.371,295.217 148.672 C 295.325 148.973,295.673 149.592,295.988 150.048 C 296.910 151.380,296.683 155.769,295.555 158.438 C 295.373 158.867,295.049 159.641,294.835 160.156 C 293.437 163.513,291.268 167.429,289.494 169.797 C 288.741 170.802,287.898 172.102,287.621 172.685 C 287.345 173.269,286.571 174.310,285.903 174.998 C 285.234 175.687,284.688 176.352,284.688 176.475 C 284.688 176.879,281.438 180.000,281.016 180.000 C 280.790 180.000,280.524 180.211,280.426 180.469 C 280.327 180.727,280.067 180.938,279.849 180.938 C 279.630 180.938,279.290 181.132,279.093 181.370 C 278.345 182.271,274.498 183.218,272.239 183.056 C 270.208 182.911,269.770 182.750,265.890 180.729 C 265.434 180.491,264.981 180.090,264.884 179.836 C 264.787 179.582,264.511 179.375,264.272 179.375 C 264.032 179.375,262.658 178.145,261.218 176.641 C 258.625 173.933,258.078 173.482,256.563 172.801 C 255.529 172.336,253.825 172.633,252.982 173.425 C 252.609 173.776,252.197 174.063,252.066 174.063 C 251.936 174.063,251.122 174.836,250.258 175.781 C 249.394 176.727,248.512 177.500,248.299 177.500 C 248.085 177.500,247.317 178.203,246.593 179.063 C 245.868 179.922,245.082 180.625,244.846 180.625 C 244.611 180.625,244.117 181.047,243.750 181.563 C 243.383 182.078,242.877 182.500,242.625 182.500 C 242.374 182.500,242.092 182.697,241.999 182.939 C 241.535 184.149,234.863 187.820,231.094 188.940 C 227.984 189.864,223.725 189.564,220.156 188.169 C 218.339 187.459,213.438 184.911,213.438 184.677 C 213.438 184.527,212.946 184.171,212.346 183.886 C 211.745 183.601,210.690 182.821,210.002 182.153 C 209.313 181.484,208.646 180.938,208.521 180.938 C 208.140 180.938,201.875 174.569,201.875 174.182 C 201.875 173.984,201.523 173.592,201.094 173.310 C 200.664 173.028,200.313 172.586,200.313 172.327 C 200.313 172.067,200.102 171.774,199.844 171.676 C 199.586 171.577,199.375 171.295,199.375 171.051 C 199.375 170.806,199.164 170.524,198.906 170.426 C 198.648 170.327,198.438 170.102,198.438 169.926 C 198.438 169.750,197.934 168.904,197.318 168.047 C 192.517 161.365,198.327 152.632,204.461 157.311 C 205.048 157.759,205.650 158.125,205.799 158.125 C 206.212 158.125,208.750 160.704,208.750 161.123 C 208.750 161.325,209.102 161.721,209.531 162.003 C 209.961 162.284,210.313 162.706,210.313 162.940 C 210.313 163.174,210.664 163.596,211.094 163.878 C 211.523 164.159,211.875 164.509,211.875 164.655 C 211.875 164.895,217.134 170.313,217.367 170.313 C 217.422 170.313,218.403 171.021,219.547 171.887 C 224.379 175.544,226.754 176.120,229.869 174.389 C 230.886 173.824,232.105 173.157,232.578 172.908 C 233.051 172.658,233.438 172.324,233.438 172.165 C 233.438 172.005,233.632 171.875,233.870 171.875 C 234.108 171.875,234.533 171.523,234.815 171.094 C 235.097 170.664,235.508 170.313,235.730 170.313 C 235.951 170.313,236.444 169.891,236.826 169.375 C 237.207 168.859,237.623 168.438,237.751 168.438 C 238.122 168.438,245.171 161.443,245.399 160.850 C 245.513 160.554,245.817 160.313,246.077 160.313 C 246.336 160.313,246.778 159.961,247.060 159.531 C 247.342 159.102,247.745 158.750,247.956 158.750 C 248.168 158.750,248.591 158.474,248.896 158.136 C 250.507 156.356,257.238 156.037,260.000 157.608 C 260.773 158.049,261.871 158.646,262.440 158.936 C 263.008 159.226,263.833 159.935,264.273 160.513 C 264.714 161.090,265.260 161.563,265.486 161.563 C 265.713 161.563,266.575 162.334,267.402 163.277 C 268.229 164.220,269.082 164.994,269.297 164.996 C 269.512 164.998,269.688 165.129,269.688 165.287 C 269.688 165.840,271.804 166.875,272.935 166.875 C 274.020 166.875,278.125 163.387,278.125 162.465 C 278.125 162.144,282.722 154.089,283.277 153.438 C 283.496 153.180,283.770 152.660,283.885 152.283 C 284.852 149.106,292.123 145.696,293.750 147.656 M90.017 208.388 C 92.347 208.746,96.074 209.393,98.299 209.825 C 100.523 210.257,102.906 210.695,103.594 210.798 C 105.424 211.073,108.827 212.009,112.031 213.119 C 115.873 214.449,117.610 214.753,120.039 214.519 L 122.110 214.319 122.300 212.936 C 123.000 207.827,127.048 207.455,129.375 212.285 L 130.156 213.906 131.978 213.823 C 132.981 213.777,134.242 213.512,134.781 213.233 C 136.018 212.593,139.010 212.607,140.269 213.259 C 145.442 215.934,142.182 225.951,135.000 229.446 C 130.365 231.701,127.043 231.839,118.418 230.137 C 117.119 229.880,115.009 229.540,113.731 229.382 C 109.262 228.827,104.190 228.097,100.625 227.495 C 97.549 226.976,95.417 226.697,87.813 225.817 C 79.383 224.841,77.577 224.474,74.844 223.181 C 69.710 220.752,68.423 215.342,71.924 210.912 C 74.659 207.453,79.525 206.774,90.017 208.388 " stroke="none" fill="currentColor" fill-rule="evenodd"></path>
</svg>