<svg id="svg" version="1.1" xmlns="http://www.w3.org/2000/svg" xmlns:xlink="http://www.w3.org/1999/xlink" width="400" height="400" viewBox="0, 0, 400,400"><g id="svgg"><path id="path0" d="M182.656 19.563 C 182.141 19.636,179.961 19.917,177.813 20.188 C 168.563 21.354,165.372 22.266,154.046 26.977 C 152.294 27.705,149.439 28.476,145.764 29.213 C 142.473 29.872,138.284 30.975,135.625 31.882 C 133.133 32.733,129.837 33.789,128.301 34.230 C 126.600 34.718,123.292 36.156,119.843 37.906 C 116.727 39.488,112.500 41.547,110.448 42.484 C 97.133 48.563,77.060 60.943,66.874 69.361 C 59.046 75.829,52.393 84.153,43.010 99.219 C 34.517 112.857,30.653 121.805,25.337 140.156 C 23.655 145.961,22.335 150.190,20.751 154.844 C 19.295 159.124,19.061 160.437,17.646 172.303 C 15.517 190.162,15.453 214.178,17.512 222.500 C 18.553 226.707,19.043 231.386,19.055 237.238 C 19.067 242.891,19.835 245.805,25.140 260.313 C 26.115 262.977,27.244 266.098,27.650 267.249 C 28.910 270.819,34.000 282.786,35.864 286.563 C 37.469 289.815,37.923 290.438,40.637 293.125 C 48.580 300.986,60.043 311.529,64.375 314.956 C 66.008 316.248,68.602 318.494,70.140 319.946 C 75.054 324.587,83.419 328.918,100.414 335.619 C 107.749 338.512,108.843 339.821,107.074 343.594 C 105.572 346.797,101.417 353.682,99.435 356.250 C 98.308 357.711,96.659 360.031,95.771 361.406 C 94.883 362.781,93.430 364.750,92.541 365.781 C 84.527 375.085,92.376 386.202,103.187 380.859 C 106.799 379.073,108.266 377.563,110.744 373.082 C 112.899 369.184,113.891 367.765,117.049 364.063 C 118.108 362.821,119.583 360.452,120.843 357.969 C 127.193 345.450,128.093 344.976,139.458 348.167 C 141.824 348.832,146.184 349.795,149.146 350.308 C 152.108 350.821,156.359 351.584,158.594 352.004 C 160.828 352.423,164.836 352.923,167.500 353.114 C 173.367 353.534,179.141 354.174,184.375 354.982 C 192.526 356.241,202.769 356.084,212.188 354.556 C 214.852 354.123,219.141 353.547,221.719 353.275 C 224.297 353.004,228.867 352.238,231.875 351.575 C 234.883 350.912,238.568 350.142,240.064 349.865 C 241.559 349.587,244.126 348.947,245.766 348.442 C 247.407 347.937,250.318 347.228,252.236 346.866 C 254.154 346.504,256.650 345.856,257.783 345.426 C 260.469 344.407,262.187 344.333,263.337 345.186 C 267.052 347.938,266.751 352.267,262.022 364.063 C 257.586 375.127,257.585 378.198,262.020 380.463 C 264.430 381.695,268.118 381.806,270.193 380.710 C 277.140 377.039,283.993 359.358,284.578 343.594 C 284.834 336.705,285.058 336.394,292.500 332.587 C 310.502 323.379,313.063 321.794,321.094 314.890 C 322.813 313.412,325.836 310.835,327.813 309.164 C 329.789 307.493,333.727 303.856,336.563 301.083 C 339.398 298.310,343.125 294.879,344.844 293.458 C 348.598 290.356,349.531 289.312,352.543 284.844 C 353.817 282.953,356.422 279.156,358.331 276.406 C 365.274 266.406,370.632 256.092,371.759 250.562 C 372.353 247.644,373.054 245.515,374.669 241.719 C 377.107 235.991,377.277 235.485,377.973 231.875 C 378.255 230.414,378.911 227.883,379.432 226.250 C 380.230 223.749,380.422 222.504,380.649 218.348 C 381.220 207.926,381.561 204.515,382.346 201.406 C 383.961 195.009,384.142 180.835,382.684 175.000 C 382.181 172.988,381.686 169.664,381.406 166.406 C 380.950 161.120,380.814 160.405,379.286 155.280 C 378.845 153.802,378.393 151.552,378.280 150.280 C 377.849 145.397,377.545 144.355,375.148 139.531 C 373.762 136.742,372.486 133.642,371.995 131.875 C 365.878 109.844,347.363 83.540,325.781 66.219 C 313.376 56.264,286.289 42.174,263.750 33.953 C 262.117 33.358,258.813 32.145,256.406 31.258 C 250.029 28.908,240.714 25.842,236.406 24.675 C 234.344 24.116,231.954 23.467,231.095 23.233 C 229.387 22.768,215.354 21.301,202.813 20.278 C 195.210 19.657,184.655 19.283,182.656 19.563 M205.000 36.404 C 212.435 37.031,214.436 37.327,218.779 38.446 C 220.740 38.952,223.961 39.725,225.938 40.165 C 227.914 40.605,230.938 41.442,232.656 42.025 C 234.375 42.608,237.328 43.391,239.219 43.765 C 241.109 44.139,244.058 44.862,245.771 45.371 C 247.485 45.880,249.665 46.436,250.615 46.606 C 251.566 46.777,254.594 47.626,257.344 48.493 C 260.094 49.360,263.033 50.274,263.876 50.525 C 264.719 50.776,268.053 52.090,271.284 53.444 C 274.516 54.798,277.764 56.066,278.502 56.261 C 280.683 56.839,289.206 60.522,293.750 62.852 C 299.334 65.715,302.606 68.215,308.438 74.077 C 311.457 77.113,314.752 80.048,317.188 81.871 C 324.660 87.465,327.135 90.042,335.050 100.470 C 337.398 103.563,340.453 107.430,341.840 109.063 C 346.136 114.120,347.704 116.288,349.523 119.688 C 352.153 124.603,355.252 131.519,356.428 135.100 C 357.003 136.850,357.896 139.485,358.414 140.956 C 358.932 142.427,359.444 144.466,359.552 145.487 C 359.660 146.508,360.294 148.961,360.960 150.938 C 361.626 152.914,362.451 156.148,362.793 158.125 C 363.135 160.102,363.709 162.633,364.069 163.750 C 366.803 172.247,366.647 198.772,363.771 214.375 C 363.438 216.180,363.022 218.711,362.847 220.000 C 362.672 221.289,362.167 223.539,361.725 225.000 C 361.283 226.461,360.630 228.852,360.273 230.313 C 359.916 231.773,359.085 234.727,358.426 236.875 C 357.767 239.023,356.871 242.188,356.434 243.906 C 354.717 250.655,352.084 257.576,349.647 261.747 C 342.024 274.792,326.915 290.354,314.351 298.105 C 312.044 299.528,308.398 302.115,306.250 303.855 C 300.137 308.804,297.096 310.659,286.875 315.673 C 281.633 318.245,275.516 321.250,273.281 322.352 C 268.744 324.588,262.610 327.180,260.000 327.963 C 259.055 328.247,257.085 328.950,255.623 329.524 C 252.164 330.883,249.495 331.563,247.614 331.563 C 246.782 331.563,244.763 331.845,243.128 332.191 C 241.494 332.536,236.992 333.387,233.125 334.080 C 229.258 334.774,224.688 335.742,222.969 336.232 C 221.250 336.721,219.422 337.232,218.906 337.366 C 218.391 337.500,216.000 337.633,213.594 337.662 C 209.568 337.710,208.999 337.792,206.468 338.686 C 201.132 340.573,192.780 340.936,187.323 339.518 C 183.972 338.647,180.580 338.218,173.906 337.819 C 169.090 337.531,166.101 337.051,160.285 335.631 C 158.161 335.112,155.793 334.688,155.024 334.688 C 154.255 334.688,152.494 334.551,151.110 334.385 C 149.726 334.219,147.002 333.934,145.056 333.751 C 143.022 333.560,140.831 333.152,139.900 332.791 C 139.010 332.447,136.876 331.878,135.158 331.527 C 133.440 331.177,130.768 330.421,129.220 329.847 C 127.673 329.273,125.366 328.498,124.096 328.125 C 121.509 327.366,114.189 324.446,107.813 321.631 C 73.464 306.466,50.297 286.597,43.786 266.719 C 43.110 264.656,42.203 262.044,41.770 260.914 C 41.338 259.783,40.705 257.392,40.364 255.601 C 40.023 253.810,39.458 251.619,39.107 250.733 C 38.234 248.525,37.543 245.760,37.189 243.054 C 37.025 241.804,36.489 239.797,35.997 238.594 C 34.807 235.685,34.381 233.869,34.092 230.481 C 33.908 228.326,33.570 226.958,32.669 224.712 C 32.020 223.093,31.357 220.843,31.197 219.712 C 31.036 218.581,30.565 215.828,30.149 213.594 C 28.276 203.541,28.169 191.227,29.907 185.938 C 31.318 181.644,32.648 175.108,33.916 166.230 C 34.151 164.585,34.714 162.265,35.166 161.073 C 35.619 159.881,36.409 157.570,36.921 155.938 C 37.434 154.305,38.327 151.492,38.906 149.688 C 39.485 147.883,40.257 145.281,40.622 143.906 C 40.987 142.531,41.760 140.281,42.340 138.906 C 43.788 135.472,45.816 130.035,46.769 127.031 C 49.216 119.312,52.629 112.555,57.279 106.224 C 58.741 104.233,61.670 100.014,63.787 96.849 C 69.754 87.930,78.525 79.858,89.063 73.586 C 91.039 72.410,95.820 69.325,99.688 66.731 C 105.073 63.119,108.365 61.184,113.750 58.465 C 117.617 56.512,122.047 54.183,123.594 53.288 C 132.379 48.207,140.851 44.452,145.847 43.424 C 147.529 43.078,150.383 42.376,152.188 41.863 C 155.669 40.874,160.148 40.001,161.742 40.000 C 162.271 40.000,163.677 39.660,164.867 39.245 C 168.119 38.111,170.283 37.817,176.432 37.671 C 180.953 37.564,182.482 37.409,184.375 36.864 C 189.137 35.494,193.134 35.405,205.000 36.404 M276.719 110.953 C 274.802 111.913,274.318 112.255,272.979 113.600 C 271.853 114.729,271.377 115.429,270.107 117.813 C 268.935 120.014,269.999 125.022,271.953 126.497 C 272.254 126.725,272.500 127.113,272.500 127.361 C 272.500 127.610,272.676 127.813,272.892 127.813 C 273.107 127.813,273.671 128.224,274.146 128.726 C 276.512 131.233,284.143 131.106,285.719 128.533 C 285.856 128.309,286.165 128.125,286.405 128.125 C 286.645 128.125,287.024 127.777,287.249 127.351 C 287.473 126.925,288.078 125.988,288.594 125.268 C 289.768 123.629,290.032 117.806,288.984 116.649 C 288.684 116.316,288.438 115.894,288.438 115.710 C 288.438 115.276,285.580 112.357,284.899 112.096 C 284.611 111.985,284.375 111.765,284.375 111.606 C 284.375 110.388,278.796 109.912,276.719 110.953 M200.017 120.212 C 193.097 122.733,191.901 134.160,198.114 138.399 C 200.763 140.207,205.552 140.723,208.971 139.570 C 216.825 136.921,217.625 124.454,210.191 120.543 C 208.459 119.631,202.171 119.426,200.017 120.212 M288.533 147.747 C 287.182 148.470,284.143 151.435,283.885 152.283 C 283.770 152.660,283.496 153.180,283.277 153.438 C 282.722 154.089,278.125 162.144,278.125 162.465 C 278.125 163.387,274.020 166.875,272.935 166.875 C 271.804 166.875,269.688 165.840,269.688 165.287 C 269.688 165.129,269.512 164.998,269.297 164.996 C 269.082 164.994,268.229 164.220,267.402 163.277 C 266.575 162.334,265.713 161.563,265.486 161.563 C 265.260 161.563,264.714 161.090,264.273 160.513 C 263.833 159.935,263.008 159.226,262.440 158.936 C 261.871 158.646,260.773 158.049,260.000 157.608 C 257.238 156.037,250.507 156.356,248.896 158.136 C 248.591 158.474,248.168 158.750,247.956 158.750 C 247.745 158.750,247.342 159.102,247.060 159.531 C 246.778 159.961,246.336 160.313,246.077 160.313 C 245.817 160.313,245.513 160.554,245.399 160.850 C 245.171 161.443,238.122 168.438,237.751 168.438 C 237.623 168.438,237.207 168.859,236.826 169.375 C 236.444 169.891,235.951 170.313,235.730 170.313 C 235.508 170.313,235.097 170.664,234.815 171.094 C 234.533 171.523,234.108 171.875,233.870 171.875 C 233.632 171.875,233.438 172.005,233.438 172.165 C 233.438 172.324,233.051 172.658,232.578 172.908 C 232.105 173.157,230.886 173.824,229.869 174.389 C 226.754 176.120,224.379 175.544,219.547 171.887 C 218.403 171.021,217.422 170.313,217.367 170.313 C 217.134 170.313,211.875 164.895,211.875 164.655 C 211.875 164.509,211.523 164.159,211.094 163.878 C 210.664 163.596,210.313 163.174,210.313 162.940 C 210.313 162.706,209.961 162.284,209.531 162.003 C 209.102 161.721,208.750 161.325,208.750 161.123 C 208.750 160.704,206.212 158.125,205.799 158.125 C 205.650 158.125,205.048 157.759,204.461 157.311 C 198.327 152.632,192.517 161.365,197.318 168.047 C 197.934 168.904,198.438 169.750,198.438 169.926 C 198.438 170.102,198.648 170.327,198.906 170.426 C 199.164 170.524,199.375 170.806,199.375 171.051 C 199.375 171.295,199.586 171.577,199.844 171.676 C 200.102 171.774,200.313 172.067,200.313 172.327 C 200.313 172.586,200.664 173.028,201.094 173.310 C 201.523 173.592,201.875 173.984,201.875 174.182 C 201.875 174.569,208.140 180.938,208.521 180.938 C 208.646 180.938,209.313 181.484,210.002 182.153 C 210.690 182.821,211.745 183.601,212.346 183.886 C 212.946 184.171,213.438 184.527,213.438 184.677 C 213.438 184.911,218.339 187.459,220.156 188.169 C 223.725 189.564,227.984 189.864,231.094 188.940 C 234.863 187.820,241.535 184.149,241.999 182.939 C 242.092 182.697,242.374 182.500,242.625 182.500 C 242.877 182.500,243.383 182.078,243.750 181.563 C 244.117 181.047,244.611 180.625,244.846 180.625 C 245.082 180.625,245.868 179.922,246.593 179.063 C 247.317 178.203,248.085 177.500,248.299 177.500 C 248.512 177.500,249.394 176.727,250.258 175.781 C 251.122 174.836,251.936 174.063,252.066 174.063 C 252.197 174.063,252.609 173.776,252.982 173.425 C 253.825 172.633,255.529 172.336,256.563 172.801 C 258.078 173.482,258.625 173.933,261.218 176.641 C 262.658 178.145,264.032 179.375,264.272 179.375 C 264.511 179.375,264.787 179.582,264.884 179.836 C 264.981 180.090,265.434 180.491,265.890 180.729 C 269.770 182.750,270.208 182.911,272.239 183.056 C 274.498 183.218,278.345 182.271,279.093 181.370 C 279.290 181.132,279.630 180.938,279.849 180.938 C 280.067 180.938,280.327 180.727,280.426 180.469 C 280.524 180.211,280.790 180.000,281.016 180.000 C 281.438 180.000,284.688 176.879,284.688 176.475 C 284.688 176.352,285.234 175.687,285.903 174.998 C 286.571 174.310,287.345 173.269,287.621 172.685 C 287.898 172.102,288.741 170.802,289.494 169.797 C 291.268 167.429,293.437 163.513,294.835 160.156 C 295.049 159.641,295.373 158.867,295.555 158.438 C 296.683 155.769,296.910 151.380,295.988 150.048 C 295.673 149.592,295.325 148.973,295.217 148.672 C 295.108 148.371,294.821 148.125,294.579 148.125 C 294.337 148.125,293.964 147.914,293.750 147.656 C 293.199 146.992,289.836 147.051,288.533 147.747 M75.509 207.334 C 72.654 208.351,70.426 211.164,68.323 216.406 C 67.564 218.297,65.811 222.681,64.428 226.148 C 63.044 229.615,61.619 233.026,61.261 233.728 C 60.903 234.430,59.331 238.132,57.768 241.955 C 56.205 245.778,54.596 249.561,54.192 250.361 C 48.788 261.062,48.951 267.824,54.758 273.937 C 57.345 276.661,58.761 277.330,61.521 277.130 C 65.615 276.834,66.875 274.694,66.875 268.036 C 66.875 264.063,66.973 263.156,67.617 261.182 C 68.025 259.930,68.462 257.992,68.588 256.875 C 68.876 254.307,69.662 252.408,71.821 249.063 C 74.629 244.712,75.260 243.553,78.167 237.411 C 85.352 222.227,87.186 215.915,85.528 212.082 C 83.753 207.979,79.437 205.934,75.509 207.334 " stroke="none" fill="#fbfbfb" fill-rule="evenodd"></path><path id="path1" d="M188.125 35.921 C 187.352 36.069,185.664 36.493,184.375 36.864 C 182.482 37.409,180.953 37.564,176.432 37.671 C 170.283 37.817,168.119 38.111,164.867 39.245 C 163.677 39.660,162.271 40.000,161.742 40.000 C 160.148 40.001,155.669 40.874,152.188 41.863 C 150.383 42.376,147.529 43.078,145.847 43.424 C 140.851 44.452,132.379 48.207,123.594 53.288 C 122.047 54.183,117.617 56.512,113.750 58.465 C 108.365 61.184,105.073 63.119,99.688 66.731 C 95.820 69.325,91.039 72.410,89.063 73.586 C 78.525 79.858,69.754 87.930,63.787 96.849 C 61.670 100.014,58.741 104.233,57.279 106.224 C 52.629 112.555,49.216 119.312,46.769 127.031 C 45.816 130.035,43.788 135.472,42.340 138.906 C 41.760 140.281,40.987 142.531,40.622 143.906 C 40.257 145.281,39.485 147.883,38.906 149.688 C 38.327 151.492,37.434 154.305,36.921 155.938 C 36.409 157.570,35.619 159.881,35.166 161.073 C 34.714 162.265,34.151 164.585,33.916 166.230 C 32.648 175.108,31.318 181.644,29.907 185.938 C 28.169 191.227,28.276 203.541,30.149 213.594 C 30.565 215.828,31.036 218.581,31.197 219.712 C 31.357 220.843,32.020 223.093,32.669 224.712 C 33.570 226.958,33.908 228.326,34.092 230.481 C 34.381 233.869,34.807 235.685,35.997 238.594 C 36.489 239.797,37.025 241.804,37.189 243.054 C 37.543 245.760,38.234 248.525,39.107 250.733 C 39.458 251.619,40.023 253.810,40.364 255.601 C 40.705 257.392,41.338 259.783,41.770 260.914 C 42.203 262.044,43.110 264.656,43.786 266.719 C 50.297 286.597,73.464 306.466,107.813 321.631 C 114.189 324.446,121.509 327.366,124.096 328.125 C 125.366 328.498,127.673 329.273,129.220 329.847 C 130.768 330.421,133.440 331.177,135.158 331.527 C 136.876 331.878,139.010 332.447,139.900 332.791 C 140.831 333.152,143.022 333.560,145.056 333.751 C 147.002 333.934,149.726 334.219,151.110 334.385 C 152.494 334.551,154.255 334.688,155.024 334.688 C 155.793 334.688,158.161 335.112,160.285 335.631 C 166.101 337.051,169.090 337.531,173.906 337.819 C 180.580 338.218,183.972 338.647,187.323 339.518 C 192.780 340.936,201.132 340.573,206.468 338.686 C 208.999 337.792,209.568 337.710,213.594 337.662 C 216.000 337.633,218.391 337.500,218.906 337.366 C 219.422 337.232,221.250 336.721,222.969 336.232 C 224.688 335.742,229.258 334.774,233.125 334.080 C 236.992 333.387,241.494 332.536,243.128 332.191 C 244.763 331.845,246.782 331.563,247.614 331.563 C 249.495 331.563,252.164 330.883,255.623 329.524 C 257.085 328.950,259.055 328.247,260.000 327.963 C 262.610 327.180,268.744 324.588,273.281 322.352 C 275.516 321.250,281.633 318.245,286.875 315.673 C 297.096 310.659,300.137 308.804,306.250 303.855 C 308.398 302.115,312.044 299.528,314.351 298.105 C 326.915 290.354,342.024 274.792,349.647 261.747 C 352.084 257.576,354.717 250.655,356.434 243.906 C 356.871 242.188,357.767 239.023,358.426 236.875 C 359.085 234.727,359.916 231.773,360.273 230.313 C 360.630 228.852,361.283 226.461,361.725 225.000 C 362.167 223.539,362.672 221.289,362.847 220.000 C 363.022 218.711,363.438 216.180,363.771 214.375 C 366.647 198.772,366.803 172.247,364.069 163.750 C 363.709 162.633,363.135 160.102,362.793 158.125 C 362.451 156.148,361.626 152.914,360.960 150.938 C 360.294 148.961,359.660 146.508,359.552 145.487 C 359.444 144.466,358.932 142.427,358.414 140.956 C 357.896 139.485,357.003 136.850,356.428 135.100 C 355.252 131.519,352.153 124.603,349.523 119.688 C 347.704 116.288,346.136 114.120,341.840 109.063 C 340.453 107.430,337.398 103.563,335.050 100.470 C 327.135 90.042,324.660 87.465,317.188 81.871 C 314.752 80.048,311.457 77.113,308.438 74.077 C 302.606 68.215,299.334 65.715,293.750 62.852 C 289.206 60.522,280.683 56.839,278.502 56.261 C 277.764 56.066,274.516 54.798,271.284 53.444 C 268.053 52.090,264.719 50.776,263.876 50.525 C 263.033 50.274,260.094 49.360,257.344 48.493 C 254.594 47.626,251.566 46.777,250.615 46.606 C 249.665 46.436,247.485 45.880,245.771 45.371 C 244.058 44.862,241.109 44.139,239.219 43.765 C 237.328 43.391,234.375 42.608,232.656 42.025 C 230.938 41.442,227.914 40.605,225.938 40.165 C 223.961 39.725,220.740 38.952,218.779 38.446 C 211.751 36.635,192.629 35.060,188.125 35.921 M283.119 110.815 C 283.810 111.092,284.375 111.448,284.375 111.606 C 284.375 111.765,284.611 111.985,284.899 112.096 C 285.580 112.357,288.438 115.276,288.438 115.710 C 288.438 115.894,288.684 116.316,288.984 116.649 C 290.032 117.806,289.768 123.629,288.594 125.268 C 288.078 125.988,287.473 126.925,287.249 127.351 C 287.024 127.777,286.645 128.125,286.405 128.125 C 286.165 128.125,285.856 128.309,285.719 128.533 C 284.143 131.106,276.512 131.233,274.146 128.726 C 273.671 128.224,273.107 127.813,272.892 127.813 C 272.676 127.813,272.500 127.610,272.500 127.361 C 272.500 127.113,272.254 126.725,271.953 126.497 C 269.999 125.022,268.935 120.014,270.107 117.813 C 271.377 115.429,271.853 114.729,272.979 113.600 C 276.027 110.540,279.825 109.497,283.119 110.815 M210.191 120.543 C 217.625 124.454,216.825 136.921,208.971 139.570 C 205.552 140.723,200.763 140.207,198.114 138.399 C 191.901 134.160,193.097 122.733,200.017 120.212 C 202.171 119.426,208.459 119.631,210.191 120.543 M293.750 147.656 C 293.964 147.914,294.337 148.125,294.579 148.125 C 294.821 148.125,295.108 148.371,295.217 148.672 C 295.325 148.973,295.673 149.592,295.988 150.048 C 296.910 151.380,296.683 155.769,295.555 158.438 C 295.373 158.867,295.049 159.641,294.835 160.156 C 293.437 163.513,291.268 167.429,289.494 169.797 C 288.741 170.802,287.898 172.102,287.621 172.685 C 287.345 173.269,286.571 174.310,285.903 174.998 C 285.234 175.687,284.688 176.352,284.688 176.475 C 284.688 176.879,281.438 180.000,281.016 180.000 C 280.790 180.000,280.524 180.211,280.426 180.469 C 280.327 180.727,280.067 180.938,279.849 180.938 C 279.630 180.938,279.290 181.132,279.093 181.370 C 278.345 182.271,274.498 183.218,272.239 183.056 C 270.208 182.911,269.770 182.750,265.890 180.729 C 265.434 180.491,264.981 180.090,264.884 179.836 C 264.787 179.582,264.511 179.375,264.272 179.375 C 264.032 179.375,262.658 178.145,261.218 176.641 C 258.625 173.933,258.078 173.482,256.563 172.801 C 255.529 172.336,253.825 172.633,252.982 173.425 C 252.609 173.776,252.197 174.063,252.066 174.063 C 251.936 174.063,251.122 174.836,250.258 175.781 C 249.394 176.727,248.512 177.500,248.299 177.500 C 248.085 177.500,247.317 178.203,246.593 179.063 C 245.868 179.922,245.082 180.625,244.846 180.625 C 244.611 180.625,244.117 181.047,243.750 181.563 C 243.383 182.078,242.877 182.500,242.625 182.500 C 242.374 182.500,242.092 182.697,241.999 182.939 C 241.535 184.149,234.863 187.820,231.094 188.940 C 227.984 189.864,223.725 189.564,220.156 188.169 C 218.339 187.459,213.438 184.911,213.438 184.677 C 213.438 184.527,212.946 184.171,212.346 183.886 C 211.745 183.601,210.690 182.821,210.002 182.153 C 209.313 181.484,208.646 180.938,208.521 180.938 C 208.140 180.938,201.875 174.569,201.875 174.182 C 201.875 173.984,201.523 173.592,201.094 173.310 C 200.664 173.028,200.313 172.586,200.313 172.327 C 200.313 172.067,200.102 171.774,199.844 171.676 C 199.586 171.577,199.375 171.295,199.375 171.051 C 199.375 170.806,199.164 170.524,198.906 170.426 C 198.648 170.327,198.438 170.102,198.438 169.926 C 198.438 169.750,197.934 168.904,197.318 168.047 C 192.517 161.365,198.327 152.632,204.461 157.311 C 205.048 157.759,205.650 158.125,205.799 158.125 C 206.212 158.125,208.750 160.704,208.750 161.123 C 208.750 161.325,209.102 161.721,209.531 162.003 C 209.961 162.284,210.313 162.706,210.313 162.940 C 210.313 163.174,210.664 163.596,211.094 163.878 C 211.523 164.159,211.875 164.509,211.875 164.655 C 211.875 164.895,217.134 170.313,217.367 170.313 C 217.422 170.313,218.403 171.021,219.547 171.887 C 224.379 175.544,226.754 176.120,229.869 174.389 C 230.886 173.824,232.105 173.157,232.578 172.908 C 233.051 172.658,233.438 172.324,233.438 172.165 C 233.438 172.005,233.632 171.875,233.870 171.875 C 234.108 171.875,234.533 171.523,234.815 171.094 C 235.097 170.664,235.508 170.313,235.730 170.313 C 235.951 170.313,236.444 169.891,236.826 169.375 C 237.207 168.859,237.623 168.438,237.751 168.438 C 238.122 168.438,245.171 161.443,245.399 160.850 C 245.513 160.554,245.817 160.313,246.077 160.313 C 246.336 160.313,246.778 159.961,247.060 159.531 C 247.342 159.102,247.745 158.750,247.956 158.750 C 248.168 158.750,248.591 158.474,248.896 158.136 C 250.507 156.356,257.238 156.037,260.000 157.608 C 260.773 158.049,261.871 158.646,262.440 158.936 C 263.008 159.226,263.833 159.935,264.273 160.513 C 264.714 161.090,265.260 161.563,265.486 161.563 C 265.713 161.563,266.575 162.334,267.402 163.277 C 268.229 164.220,269.082 164.994,269.297 164.996 C 269.512 164.998,269.688 165.129,269.688 165.287 C 269.688 165.840,271.804 166.875,272.935 166.875 C 274.020 166.875,278.125 163.387,278.125 162.465 C 278.125 162.144,282.722 154.089,283.277 153.438 C 283.496 153.180,283.770 152.660,283.885 152.283 C 284.852 149.106,292.123 145.696,293.750 147.656 M81.486 207.734 C 88.349 211.194,87.661 217.346,78.167 237.411 C 75.260 243.553,74.629 244.712,71.821 249.063 C 69.662 252.408,68.876 254.307,68.588 256.875 C 68.462 257.992,68.025 259.930,67.617 261.182 C 66.973 263.156,66.875 264.063,66.875 268.036 C 66.875 274.694,65.615 276.834,61.521 277.130 C 58.761 277.330,57.345 276.661,54.758 273.937 C 48.951 267.824,48.788 261.062,54.192 250.361 C 54.596 249.561,56.205 245.778,57.768 241.955 C 59.331 238.132,60.903 234.430,61.261 233.728 C 61.619 233.026,63.044 229.615,64.428 226.148 C 65.811 222.681,67.564 218.297,68.323 216.406 C 71.647 208.121,76.244 205.092,81.486 207.734 " stroke="none" fill="#8c74bc" fill-rule="evenodd"></path></g></svg>