<?xml version="1.0" encoding="UTF-8" standalone="no"?>
<svg
   xmlns:dc="http://purl.org/dc/elements/1.1/"
   xmlns:cc="http://creativecommons.org/ns#"
   xmlns:rdf="http://www.w3.org/1999/02/22-rdf-syntax-ns#"
   xmlns:svg="http://www.w3.org/2000/svg"
   xmlns="http://www.w3.org/2000/svg"
   xmlns:sodipodi="http://sodipodi.sourceforge.net/DTD/sodipodi-0.dtd"
   xmlns:inkscape="http://www.inkscape.org/namespaces/inkscape"
   width="400"
   height="400"
   version="1.1"
   id="svg948"
   sodipodi:docname="normal-2.svg"
   inkscape:version="1.0.2-2 (e86c870879, 2021-01-15)">
  <metadata
     id="metadata954">
    <rdf:RDF>
      <cc:Work
         rdf:about="">
        <dc:format>image/svg+xml</dc:format>
        <dc:type
           rdf:resource="http://purl.org/dc/dcmitype/StillImage" />
      </cc:Work>
    </rdf:RDF>
  </metadata>
  <defs
     id="defs952" />
  <sodipodi:namedview
     pagecolor="#ffffff"
     bordercolor="#666666"
     borderopacity="1"
     objecttolerance="10"
     gridtolerance="10"
     guidetolerance="10"
     inkscape:pageopacity="0"
     inkscape:pageshadow="2"
     inkscape:window-width="1920"
     inkscape:window-height="1051"
     id="namedview950"
     showgrid="false"
     inkscape:zoom="1.1"
     inkscape:cx="171.50224"
     inkscape:cy="228.42889"
     inkscape:window-x="-9"
     inkscape:window-y="-9"
     inkscape:window-maximized="1"
     inkscape:current-layer="svg948" />
  <path
     fill="none"
     stroke="#000"
     stroke-width="20"
     stroke-linecap="round"
     style="stroke-linejoin:round;stroke-miterlimit:4;stroke-dasharray:none;stroke-opacity:.24705882"
     d="M203.163 130.447c.042.2.015.066.015.066l-.015-.066M277.752 120.904c.041.2.015.066.015.066l-.015-.066"
     id="path944" />
  <path
     fill="none"
     stroke="#000000"
     stroke-width="15"
     stroke-linecap="round"
     style="stroke-linejoin:miter;stroke-miterlimit:4;stroke-dasharray:none;stroke-opacity:0.246964;paint-order:normal"
     d="m 188.78,27.97 c -30.262,2.852 -41.62,4.644 -70.485,18.735 -40.135,21.28 -52.904,30.287 -71.022,60.568 -16.239,30.583 -21.66,53.653 -25.228,86.363 -0.327,47.931 16.316,92.965 30.228,104.773 30.832,26.63 72.336,47.267 136.818,49.318 60.604,-2.865 94.701,-13.177 125,-39.09 35.86,-23.961 42.851,-45.102 56.136,-81.364 6.076,-31.017 3.883,-59.29 -2.045,-85 -10.977,-32.71 -37.075,-62.497 -54.88,-75.651 -24.077,-14.907 -24.996,-18.377 -64.996,-29.74 -11.477,-3.637 -26.59527,-9.540273 -56.00427,-9.138273 z m 11.219,135.87 c 7.312,6.508 13.644,21.444 27.321,18.743 7.633,-1.508 18.85,-16.52 25.631,-18.1 6.409,1.93 7.374,4.454 9.816,6.322 1.966,1.504 4.624,5.417 7.5,5.363 2.133,-0.04 7.02,-3.56 8.22,-4.699 2.987,-2.837 7.024,-9.963 9.943,-16.61 M 75.986,216.31 c -7.254,17.633 -13.167,28.446 -17.281,38.419 -4.602,7.67 -0.055,15.712 -0.055,15.712 m 58.282,70.127 c -0.341,6.705 -21.023,34.205 -21.023,34.205 m 174.658,-35.669 c 6.846,13.525 -5.136,34.314 -5.136,34.314"
     id="path946"
     sodipodi:nodetypes="cccccccccccccccccsccccccccc" />
</svg>
