<svg xmlns="http://www.w3.org/2000/svg" width="400" height="400">
  <path style="fill:none;stroke:#00dbf2;stroke-width:15;stroke-linecap:round;stroke-linejoin:miter;stroke-miterlimit:4;stroke-dasharray:none;stroke-opacity:.246964;paint-order:normal" d="M188.78 27.97c-30.262 2.852-41.62 4.644-70.485 18.735-40.135 21.28-52.904 30.287-71.022 60.568-16.239 30.583-21.66 53.653-25.228 86.363-.327 47.931 16.316 92.965 30.228 104.773 30.832 26.63 72.336 47.267 136.818 49.318 60.604-2.865 94.701-13.177 125-39.09 35.86-23.961 42.851-45.102 56.136-81.364 6.076-31.017 3.883-59.29-2.045-85-10.977-32.71-37.075-62.497-54.88-75.651-24.077-14.907-24.996-18.377-64.996-29.74-11.477-3.637-30.118-9.313-59.527-8.911z" />
  <path style="fill:none;stroke:#00dbf2;stroke-width:20;stroke-linecap:round;stroke-linejoin:round;stroke-miterlimit:4;stroke-dasharray:none;stroke-opacity:.24705882" d="M203.163 130.447c.042.2.015.066.015.066l-.015-.066M277.752 120.904c.041.2.015.066.015.066l-.015-.066" />
  <path style="fill:none;stroke:#00dbf2;stroke-width:14;stroke-linecap:round;stroke-linejoin:round;stroke-miterlimit:4;stroke-dasharray:none;stroke-opacity:.247059;paint-order:normal" d="M199.999 163.84c7.312 6.508 13.644 21.444 27.321 18.743 7.633-1.508 18.85-16.52 25.631-18.1 6.409 1.93 7.374 4.454 9.816 6.322 1.966 1.504 4.624 5.417 7.5 5.363 2.133-.04 7.02-3.56 8.22-4.699 2.987-2.837 7.024-9.963 9.943-16.61" />
  <path style="fill:none;stroke:#00dbf2;stroke-width:15;stroke-linecap:round;stroke-linejoin:round;stroke-miterlimit:4;stroke-dasharray:none;stroke-opacity:.247059" d="M75.986 216.31c-7.254 17.633-13.167 28.446-17.281 38.419-4.602 7.67-.055 15.712-.055 15.712" />
  <path style="fill:none;stroke:#00dbf2;stroke-width:18;stroke-linecap:round;stroke-linejoin:round;stroke-miterlimit:4;stroke-dasharray:none;stroke-opacity:.247059" d="M270.567 339.104c6.846 13.525-5.136 34.314-5.136 34.314" />
  <path style="fill:none;stroke:#00dbf2;stroke-width:18;stroke-linecap:round;stroke-linejoin:round;stroke-miterlimit:4;stroke-dasharray:none;stroke-opacity:.247059" d="M116.932 340.568c-.341 6.705-21.023 34.205-21.023 34.205" />
</svg>