<?xml version="1.0" encoding="UTF-8" standalone="no"?>
<svg
   xmlns:dc="http://purl.org/dc/elements/1.1/"
   xmlns:cc="http://creativecommons.org/ns#"
   xmlns:rdf="http://www.w3.org/1999/02/22-rdf-syntax-ns#"
   xmlns:svg="http://www.w3.org/2000/svg"
   xmlns="http://www.w3.org/2000/svg"
   xmlns:sodipodi="http://sodipodi.sourceforge.net/DTD/sodipodi-0.dtd"
   xmlns:inkscape="http://www.inkscape.org/namespaces/inkscape"
   id="svg"
   version="1.1"
   width="400"
   height="400"
   viewBox="0, 0, 400,400"
   sodipodi:docname="singing.svg"
   inkscape:version="1.0.2-2 (e86c870879, 2021-01-15)">
  <metadata
     id="metadata52">
    <rdf:RDF>
      <cc:Work
         rdf:about="">
        <dc:format>image/svg+xml</dc:format>
        <dc:type
           rdf:resource="http://purl.org/dc/dcmitype/StillImage" />
      </cc:Work>
    </rdf:RDF>
  </metadata>
  <defs
     id="defs50" />
  <sodipodi:namedview
     pagecolor="#ffffff"
     bordercolor="#666666"
     borderopacity="1"
     objecttolerance="10"
     gridtolerance="10"
     guidetolerance="10"
     inkscape:pageopacity="0"
     inkscape:pageshadow="2"
     inkscape:window-width="1920"
     inkscape:window-height="1051"
     id="namedview48"
     showgrid="false"
     inkscape:zoom="1.1"
     inkscape:cx="-16.770298"
     inkscape:cy="120.65133"
     inkscape:window-x="-9"
     inkscape:window-y="-9"
     inkscape:window-maximized="1"
     inkscape:current-layer="svgg" />
  <g
     id="svgg">
    <path
       id="path0"
       d="m 244.219,145.476 c -0.86,0.221 -2.246,0.415 -3.08,0.432 -0.835,0.016 -2.343,0.244 -3.353,0.505 -1.009,0.262 -2.858,0.61 -4.107,0.775 -1.25,0.164 -4.312,0.59 -6.804,0.946 -4.473,0.639 -5.905,0.777 -17.73,1.711 -3.305,0.261 -6.891,0.678 -7.968,0.927 -1.077,0.248 -3.927,0.61 -6.333,0.803 -5.006,0.402 -5.898,0.574 -14.219,2.742 -6.231,1.624 -12.832,4.07 -19.531,7.238 -1.891,0.894 -5.477,2.442 -7.969,3.44 -2.492,0.998 -5.61,2.321 -6.928,2.939 l -2.397,1.124 -0.193,2.112 c -0.106,1.161 -0.33,3.518 -0.498,5.236 -0.621,6.373 0.044,11 2.246,15.625 0.327,0.688 0.799,2.258 1.048,3.489 0.263,1.304 0.837,2.847 1.373,3.692 0.507,0.798 1.081,2.181 1.276,3.073 0.754,3.448 1.355,5.402 1.898,6.166 0.31,0.438 0.904,1.563 1.319,2.5 2.309,5.209 8.464,12.014 12.575,13.902 6.336,2.91 7.355,3.272 9.205,3.272 1.143,0 2.825,0.332 4.581,0.903 1.527,0.497 3.831,1.132 5.12,1.412 5.906,1.28 11.983,2.444 14.844,2.842 1.719,0.239 4.32,0.6 5.781,0.801 3.167,0.437 8.079,0.804 14.688,1.096 7.7,0.341 23.885,-1.772 28.762,-3.753 1.015,-0.413 3.079,-1.054 4.588,-1.425 5.336,-1.313 9.297,-2.587 15.087,-4.855 1.633,-0.639 3.949,-1.51 5.148,-1.935 1.198,-0.425 2.577,-1.162 3.063,-1.638 0.487,-0.476 1.795,-1.309 2.906,-1.85 2.199,-1.073 9.44,-5.865 10.856,-7.184 0.484,-0.451 2.593,-2.024 4.687,-3.495 4.385,-3.079 5.97,-4.853 7.982,-8.938 0.748,-1.519 2.261,-4.54 3.363,-6.713 1.655,-3.267 2.054,-4.359 2.301,-6.311 0.165,-1.297 0.655,-3.764 1.09,-5.48 1.22,-4.812 0.992,-5.993 -1.9,-9.84 -0.791,-1.053 -1.833,-2.688 -2.314,-3.635 -0.634,-1.245 -1.946,-2.731 -4.744,-5.374 -5.131,-4.846 -5.79,-5.343 -9.29,-7.007 -1.646,-0.782 -3.273,-1.683 -3.617,-2.001 -0.575,-0.533 -2.25,-1.356 -7.656,-3.761 -4.889,-2.175 -11.67,-3.482 -20.937,-4.035 -2.665,-0.159 -6.04,-0.437 -7.5,-0.617 -3.275,-0.403 -4.709,-0.373 -6.719,0.144"
       stroke="none"
       fill="#f9edf2"
       fill-rule="evenodd"
       sodipodi:nodetypes="ccccssccccscccccccccccsccccccccccccccccccccccsscc" />
    <path
       id="path1"
       d="m 257.381,103.348 c -0.123,0.123 -5.525,0.322 -12.005,0.443 -11.556,0.215 -17.564,0.832 -19.449,1.997 -0.167,0.103 -1.253,0.308 -2.413,0.456 -1.159,0.147 -3.092,0.419 -4.295,0.605 -1.203,0.185 -4.297,0.632 -6.875,0.991 -6.614,0.923 -7.377,1.11 -16.875,4.139 -4.512,1.438 -9.24,3.397 -11.221,4.65 -5.289,3.341 -17.06,11.25 -17.06,11.461 0,0.139 -2.684,2.91 -5.964,6.159 -3.28,3.249 -6.223,6.399 -6.54,7.001 -0.317,0.602 -2.213,3.183 -4.214,5.737 -3.235,4.128 -3.669,4.828 -3.909,6.305 -0.149,0.913 -0.494,2.093 -0.768,2.622 -0.314,0.608 -0.37,0.961 -0.152,0.961 0.649,0 7.328,-2.735 12.015,-4.92 2.578,-1.202 5.039,-2.293 5.469,-2.424 0.43,-0.132 2.34,-0.906 4.245,-1.721 2.19,-0.937 5.983,-2.132 10.312,-3.248 3.767,-0.972 7.552,-1.954 8.412,-2.182 0.859,-0.229 3.601,-0.592 6.094,-0.806 2.492,-0.215 5.949,-0.651 7.682,-0.969 1.734,-0.319 6.163,-0.8 9.844,-1.07 6.729,-0.494 9.416,-0.761 15.755,-1.566 1.89,-0.24 4.633,-0.588 6.094,-0.772 1.46,-0.185 3.592,-0.614 4.736,-0.954 1.143,-0.34 2.806,-0.618 3.693,-0.618 0.888,0 2.81,-0.235 4.272,-0.522 2.485,-0.488 2.955,-0.488 7.244,0.003 2.522,0.289 5.546,0.524 6.72,0.522 3.998,-0.006 12.605,1.056 15.366,1.896 1.031,0.313 3.211,0.916 4.844,1.339 1.632,0.424 4.019,1.274 5.303,1.891 1.284,0.617 2.489,1.121 2.676,1.121 0.53,0 5.608,2.657 6.766,3.54 0.57,0.435 1.739,1.091 2.599,1.458 3.728,1.593 6.072,3.43 12.396,9.717 5.444,5.411 5.248,5.353 5.255,1.535 0.004,-2.762 -0.841,-10.967 -1.238,-12.011 -0.176,-0.465 -0.473,-1.855 -0.659,-3.089 -1.235,-8.213 -5.545,-18.592 -10.13,-24.39 -1.296,-1.639 -5.911,-4.652 -8.825,-5.761 -1.334,-0.508 -3.55,-1.38 -4.925,-1.938 -5.205,-2.115 -6.325,-2.524 -8.907,-3.257 -1.461,-0.414 -3.499,-1.032 -4.53,-1.373 -5.424,-1.795 -16.122,-3.674 -16.838,-2.958"
       stroke="none"
       fill="#ec84b4"
       fill-rule="evenodd"
       sodipodi:nodetypes="ccccccccssscccsccccccccsccscccccsscccccccccccc" />
    <path
       id="path2"
       d="m 188.438,35.609 c -0.774,0.147 -2.461,0.571 -3.75,0.941 -1.879,0.539 -3.462,0.702 -7.969,0.819 -6.233,0.163 -8.34,0.448 -11.539,1.564 -1.19,0.415 -2.596,0.755 -3.125,0.755 -1.594,10e-4 -6.073,0.874 -9.555,1.863 -1.805,0.512 -4.658,1.215 -6.341,1.561 -4.995,1.027 -13.467,4.783 -22.253,9.864 -1.547,0.894 -5.976,3.224 -9.843,5.176 -5.386,2.719 -8.678,4.655 -14.063,8.267 -3.867,2.593 -8.648,5.678 -10.625,6.854 -10.621,6.322 -19.844,14.827 -25.902,23.888 -2.117,3.165 -5.045,7.384 -6.507,9.375 -4.649,6.332 -8.062,13.089 -10.51,20.808 -0.952,3.003 -2.98,8.441 -4.429,11.875 -0.58,1.375 -1.353,3.625 -1.718,5 -0.364,1.375 -1.137,3.976 -1.716,5.781 -0.579,1.805 -1.472,4.617 -1.984,6.25 -0.513,1.633 -1.302,3.944 -1.755,5.136 -0.453,1.192 -1.015,3.512 -1.25,5.156 -0.683,4.778 -1.696,10.517 -2.544,14.413 -0.756,3.472 -0.77,3.738 -0.373,6.881 0.719,5.69 0.978,5.69 -9.203,-0.003 -2.484,-1.389 -2.26,-0.682 0.313,0.989 5.483,3.561 9.472,5.022 16.436,6.019 4.493,0.644 10.101,1.825 14.736,3.104 18.472,5.097 23.107,8.186 22.174,14.777 -0.917,6.475 -6.481,8.694 -15.02,5.991 -1.7,-0.539 -3.725,-1.16 -4.498,-1.38 -0.773,-0.22 -4.078,-1.247 -7.344,-2.282 -3.265,-1.035 -7.695,-2.372 -9.843,-2.971 -2.149,-0.599 -5.735,-1.652 -7.969,-2.34 -2.235,-0.688 -5.188,-1.495 -6.563,-1.792 -1.375,-0.297 -3.414,-0.887 -4.531,-1.311 -3.723,-1.413 -3.704,-1.411 -3.443,-0.254 0.343,1.522 1.185,2.311 3.756,3.519 6.746,3.171 8.861,4.318 10.157,5.509 l 1.424,1.308 0.297,3.219 c 0.204,2.206 0.55,3.829 1.101,5.156 0.532,1.283 0.897,2.949 1.082,4.932 0.333,3.586 0.746,5.347 1.935,8.255 0.493,1.203 1.029,3.21 1.192,4.46 0.355,2.707 1.045,5.471 1.919,7.679 0.35,0.886 0.916,3.077 1.257,4.869 0.34,1.791 0.973,4.182 1.406,5.312 0.433,1.13 1.339,3.743 2.015,5.805 6.555,20.009 30.213,40.332 64.652,55.538 6.376,2.815 13.697,5.734 16.283,6.493 1.271,0.373 3.577,1.148 5.125,1.722 1.547,0.574 4.219,1.33 5.937,1.681 1.718,0.35 3.852,0.919 4.743,1.264 0.931,0.361 3.122,0.768 5.156,0.959 1.945,0.183 4.67,0.469 6.053,0.635 1.384,0.166 3.146,0.302 3.915,0.302 0.768,0 3.136,0.425 5.261,0.943 5.815,1.42 8.804,1.901 13.621,2.188 6.673,0.399 10.065,0.829 13.417,1.7 5.392,1.401 13.217,1.047 18.52,-0.837 2.524,-0.897 3.097,-0.981 6.969,-1.019 4.574,-0.046 4.885,-0.093 9.531,-1.425 1.719,-0.493 6.289,-1.464 10.157,-2.157 3.867,-0.694 8.368,-1.544 10.003,-1.89 1.634,-0.345 3.653,-0.628 4.486,-0.628 1.88,0 4.55,-0.68 8.009,-2.039 1.462,-0.574 3.431,-1.276 4.377,-1.56 2.61,-0.784 8.743,-3.376 13.281,-5.612 2.234,-1.101 8.351,-4.106 13.594,-6.678 10.22,-5.015 13.261,-6.87 19.375,-11.819 2.148,-1.739 5.793,-4.327 8.1,-5.75 12.643,-7.798 28.266,-23.884 35.921,-36.982 2.438,-4.171 5.071,-11.093 6.787,-17.841 0.437,-1.719 1.334,-4.883 1.993,-7.031 0.659,-2.149 1.49,-5.102 1.846,-6.563 0.357,-1.461 1.011,-3.852 1.453,-5.312 0.442,-1.461 0.947,-3.711 1.122,-5 0.175,-1.29 0.59,-3.821 0.923,-5.625 2.812,-15.257 2.97,-41.694 0.298,-50 -0.359,-1.118 -0.933,-3.649 -1.276,-5.625 -0.342,-1.977 -1.167,-5.211 -1.833,-7.188 -0.666,-1.977 -1.299,-4.429 -1.407,-5.45 -0.108,-1.021 -0.621,-3.061 -1.138,-4.532 -0.518,-1.471 -1.412,-4.106 -1.987,-5.855 -1.176,-3.581 -4.274,-10.498 -6.905,-15.413 -1.818,-3.399 -3.386,-5.568 -7.682,-10.625 -1.387,-1.633 -4.443,-5.499 -6.791,-8.593 -8.001,-10.541 -10.55,-13.208 -18.018,-18.85 -2.84,-2.145 -6.075,-5.014 -9.219,-8.175 -5.819,-5.85 -9.088,-8.347 -14.687,-11.218 -4.545,-2.329 -13.067,-6.013 -15.249,-6.59 -0.737,-0.196 -3.985,-1.463 -7.217,-2.818 -3.232,-1.354 -6.566,-2.667 -7.408,-2.918 -0.843,-0.251 -3.783,-1.166 -6.533,-2.033 -2.75,-0.867 -5.778,-1.716 -6.728,-1.886 -0.951,-0.171 -3.131,-0.726 -4.844,-1.235 -1.713,-0.509 -4.662,-1.232 -6.553,-1.606 -1.89,-0.375 -4.843,-1.158 -6.562,-1.741 -1.719,-0.583 -4.742,-1.42 -6.719,-1.86 -1.977,-0.44 -5.198,-1.213 -7.159,-1.718 -6.931,-1.786 -25.654,-3.361 -30.028,-2.525 m 109.4,34.766 c 3.008,1.412 3.853,2.408 3.603,4.247 -0.382,2.808 -1.455,3.472 -7.649,4.732 -5.066,1.031 -5.507,1.515 -1.917,2.107 6.925,1.142 10.218,5.702 6.994,9.686 -2.727,3.369 -5.454,3.507 -10.599,0.537 -1.914,-1.104 -3.355,-1.643 -6.239,-2.33 -9.732,-2.319 -10.942,-3.418 -9.4,-8.541 2.438,-8.1 17.183,-14.206 25.207,-10.438 m -39.869,21.54 c 1.547,0.162 4.219,0.565 5.937,0.895 1.719,0.33 3.828,0.687 4.688,0.792 1.932,0.238 6.626,1.46 10.156,2.646 1.461,0.49 3.5,1.121 4.531,1.401 1.908,0.518 5.496,1.87 10.004,3.77 1.378,0.581 3.487,1.357 4.688,1.726 5.671,1.742 9.207,4.614 13.899,11.289 0.688,0.977 1.392,1.865 1.565,1.972 0.34,0.21 3.751,7.201 3.751,7.687 0,0.161 0.687,1.942 1.527,3.959 1.989,4.777 3.326,9.032 3.753,11.948 0.188,1.289 0.55,3.539 0.803,5 1.499,8.654 1.319,17.639 -0.506,25.313 -0.184,0.773 -0.443,2.353 -0.576,3.511 -0.132,1.158 -0.666,3.478 -1.186,5.156 -1.228,3.961 -2.08,7.373 -2.714,10.864 -0.345,1.899 -1.006,3.893 -2.036,6.141 -0.839,1.83 -1.688,3.94 -1.888,4.687 -1.507,5.629 -6.912,12.453 -13.15,16.602 -1.957,1.302 -4.45,3.154 -5.538,4.115 -1.089,0.961 -2.425,1.975 -2.969,2.255 -0.544,0.279 -2.255,1.383 -3.802,2.453 -1.547,1.071 -3.304,2.195 -3.906,2.499 -0.602,0.303 -1.727,1.206 -2.5,2.006 -1.172,1.213 -1.874,1.612 -4.219,2.401 -1.547,0.521 -4.57,1.544 -6.718,2.274 -6.892,2.342 -14.149,4.634 -16.719,5.28 -1.375,0.346 -3.966,1.143 -5.757,1.771 -3.174,1.114 -6.762,1.771 -14.556,2.665 -1.718,0.197 -4.04,0.486 -5.158,0.642 -3.908,0.547 -9.8,0.705 -12.967,0.349 -1.718,-0.193 -4.742,-0.426 -6.718,-0.518 -1.977,-0.092 -4.157,-0.302 -4.844,-0.466 -0.688,-0.163 -1.839,-0.301 -2.558,-0.305 -1.683,-0.01 -6.507,-0.778 -10.88,-1.734 -1.89,-0.413 -4.351,-0.898 -5.468,-1.078 -2.351,-0.379 -6.761,-1.385 -9.688,-2.209 -1.117,-0.314 -2.99,-0.656 -4.163,-0.759 -2.223,-0.195 -4.486,-0.94 -8.962,-2.948 -1.461,-0.656 -3.312,-1.43 -4.114,-1.72 -1.477,-0.535 -5.981,-3.712 -8.187,-5.774 -3.853,-3.603 -12.386,-19.706 -12.387,-23.375 0,-0.231 -0.409,-1.156 -0.909,-2.056 -0.501,-0.9 -1.078,-2.479 -1.284,-3.511 -0.205,-1.031 -0.623,-2.437 -0.928,-3.125 -0.305,-0.687 -0.66,-1.601 -0.79,-2.031 -0.129,-0.43 -0.575,-1.435 -0.99,-2.233 -1.672,-3.216 -1.749,-12.943 -0.241,-30.579 0.446,-5.207 0.706,-6.497 2.116,-10.469 0.426,-1.203 1.221,-3.608 1.765,-5.343 0.588,-1.879 1.613,-4.194 2.531,-5.722 0.849,-1.412 1.544,-2.664 1.546,-2.782 0.006,-0.42 2.254,-3.077 5.868,-6.934 5.55,-5.925 6.931,-7.238 8.973,-8.536 1.031,-0.655 3.562,-2.25 5.625,-3.544 2.062,-1.294 4.453,-2.98 5.312,-3.747 0.86,-0.767 3.461,-2.648 5.782,-4.178 2.32,-1.531 4.84,-3.246 5.6,-3.812 1.33,-0.989 2.406,-1.588 6.981,-3.886 3.825,-1.922 10.574,-3.83 16.012,-4.528 1.203,-0.154 3.875,-0.493 5.938,-0.752 2.062,-0.26 4.875,-0.614 6.25,-0.787 5.313,-0.671 9.48,-1.338 12.022,-1.925 10.647,-2.46 24.03,-3.578 32.353,-2.703 m -116.267,4.979 c 7.685,1.109 10.543,3.42 11.586,9.364 0.579,3.307 -5.088,9.367 -8.76,9.367 -0.62,0 -6.694,4.544 -8.936,6.685 -5.256,5.018 -11.532,3.301 -11.528,-3.154 0.001,-2.759 3.424,-6.541 7.976,-8.814 0.761,-0.38 1.465,-0.824 1.565,-0.985 0.1,-0.162 0.465,-0.294 0.811,-0.294 0.429,0 0.597,-0.173 0.526,-0.541 -0.083,-0.431 -0.389,-0.525 -1.508,-0.466 -3.695,0.197 -5.947,0.508 -7.798,1.077 -8.447,2.597 -12.788,-7.359 -4.915,-11.273 3.103,-1.543 13.627,-2.027 20.981,-0.966"
       stroke="none"
       fill="#8c74bc"
       fill-rule="evenodd"
       sodipodi:nodetypes="ccccccccccccccccscssccscccccscccsccccccccccccsccscccccsccccccccscccccccccccccccsscccccccccccscscsscccccsccccccccccccccsccccccccccccccsccccsccsccccccccccccccccccccccccccccccccccsccscsccccc" />
    <path
       id="path3"
       d="M182.969 19.563 C 182.453 19.635,180.273 19.917,178.125 20.188 C 168.875 21.354,165.685 22.266,154.358 26.977 C 152.607 27.705,149.751 28.476,146.077 29.213 C 142.786 29.872,138.597 30.975,135.938 31.882 C 133.445 32.733,130.149 33.789,128.613 34.230 C 126.913 34.718,123.604 36.156,120.155 37.906 C 117.040 39.488,112.812 41.547,110.761 42.484 C 97.449 48.561,77.373 60.943,67.192 69.356 C 59.195 75.964,52.432 84.403,43.010 99.531 C 34.517 113.169,30.653 122.117,25.337 140.469 C 23.655 146.274,22.335 150.502,20.751 155.156 C 19.889 157.689,19.198 160.454,18.915 162.500 C 18.081 168.538,16.875 179.059,16.875 180.299 C 16.875 180.974,16.734 181.613,16.563 181.719 C 16.391 181.825,16.250 182.607,16.250 183.456 C 16.250 185.260,16.018 185.345,14.700 184.027 C 12.586 181.913,5.502 181.996,5.461 184.136 C 5.457 184.353,5.222 184.514,4.939 184.492 C 4.597 184.466,4.486 184.614,4.609 184.934 C 4.733 185.257,4.669 185.338,4.416 185.181 C 4.138 185.010,4.094 185.174,4.252 185.802 C 4.418 186.463,4.373 186.598,4.055 186.402 C 3.758 186.218,3.699 186.291,3.843 186.667 C 3.953 186.953,3.919 187.187,3.768 187.188 C 3.352 187.188,3.194 190.897,3.540 192.550 C 3.771 193.653,3.959 193.963,4.316 193.826 C 4.675 193.688,4.745 193.807,4.611 194.323 C 4.513 194.696,4.561 194.922,4.717 194.826 C 4.872 194.729,5.000 194.807,5.000 194.998 C 5.000 195.189,5.345 195.854,5.767 196.475 C 6.190 197.096,6.449 197.743,6.344 197.913 C 6.239 198.083,6.293 198.135,6.464 198.029 C 6.635 197.924,7.466 198.576,8.309 199.479 C 9.153 200.382,10.295 201.453,10.847 201.860 C 11.399 202.267,11.792 202.694,11.720 202.810 C 11.649 202.926,11.760 203.026,11.967 203.033 C 12.174 203.039,13.179 203.555,14.200 204.178 C 15.222 204.802,16.279 205.312,16.551 205.312 C 16.823 205.312,18.167 205.745,19.538 206.273 C 20.909 206.801,23.227 207.492,24.688 207.807 C 26.148 208.122,28.258 208.661,29.375 209.005 C 30.492 209.348,33.445 210.257,35.938 211.024 C 38.430 211.791,40.961 212.521,41.563 212.647 C 42.742 212.894,45.567 213.756,51.250 215.604 C 53.227 216.247,55.617 217.006,56.563 217.292 C 57.508 217.579,59.406 218.187,60.781 218.643 C 67.912 221.013,73.701 218.789,74.714 213.290 C 75.135 211.004,74.472 208.383,73.076 206.820 C 72.587 206.273,72.188 205.733,72.188 205.622 C 72.188 205.510,71.801 205.225,71.328 204.988 C 70.855 204.752,70.258 204.397,70.000 204.201 C 69.212 203.599,62.757 200.996,60.774 200.480 C 59.747 200.213,57.992 199.722,56.875 199.389 C 48.532 196.906,42.658 195.636,35.156 194.694 C 33.045 194.429,32.435 194.288,31.094 193.759 C 30.750 193.623,29.442 193.119,28.187 192.637 C 26.932 192.156,25.836 191.651,25.752 191.515 C 25.668 191.379,24.974 190.991,24.211 190.654 C 22.629 189.954,20.850 188.708,19.640 187.451 L 18.811 186.590 19.763 186.781 C 20.287 186.886,22.266 187.861,24.159 188.948 C 28.511 191.447,30.261 192.151,30.631 191.552 C 30.777 191.316,30.844 191.039,30.780 190.936 C 30.105 189.844,30.014 183.990,30.629 181.250 C 31.378 177.917,32.583 171.122,33.265 166.386 C 33.515 164.656,34.089 162.265,34.541 161.073 C 34.994 159.881,35.784 157.570,36.296 155.938 C 36.809 154.305,37.702 151.492,38.281 149.688 C 38.860 147.883,39.632 145.281,39.997 143.906 C 40.362 142.531,41.135 140.281,41.715 138.906 C 43.163 135.472,45.191 130.035,46.144 127.031 C 48.591 119.312,52.004 112.555,56.654 106.224 C 58.116 104.233,61.044 100.014,63.160 96.849 C 69.219 87.788,78.442 79.282,89.063 72.961 C 91.039 71.785,95.820 68.700,99.688 66.106 C 105.073 62.494,108.365 60.559,113.750 57.840 C 117.617 55.887,122.047 53.558,123.594 52.663 C 132.379 47.582,140.851 43.827,145.847 42.799 C 147.529 42.453,150.383 41.751,152.188 41.238 C 155.669 40.249,160.148 39.376,161.742 39.375 C 162.271 39.375,163.677 39.035,164.867 38.620 C 168.124 37.485,170.323 37.185,176.287 37.066 C 181.142 36.969,182.051 36.862,184.844 36.060 C 190.903 34.321,209.567 35.346,219.375 37.956 C 221.008 38.391,223.961 39.105,225.938 39.543 C 227.914 39.981,230.938 40.817,232.656 41.400 C 234.375 41.983,237.328 42.766,239.219 43.140 C 241.109 43.514,244.058 44.237,245.771 44.746 C 247.485 45.255,249.665 45.811,250.615 45.981 C 251.566 46.152,254.594 47.001,257.344 47.868 C 260.094 48.735,263.033 49.649,263.876 49.900 C 264.719 50.151,268.053 51.465,271.284 52.819 C 274.516 54.173,277.764 55.441,278.502 55.636 C 280.683 56.214,289.206 59.897,293.750 62.227 C 299.349 65.097,302.619 67.594,308.438 73.444 C 311.582 76.606,314.816 79.474,317.656 81.620 C 325.125 87.262,327.674 89.928,335.675 100.470 C 338.023 103.563,341.078 107.430,342.465 109.063 C 346.761 114.120,348.329 116.288,350.148 119.688 C 352.778 124.603,355.877 131.519,357.053 135.100 C 357.628 136.850,358.521 139.485,359.039 140.956 C 359.557 142.427,360.069 144.466,360.177 145.487 C 360.285 146.508,360.919 148.961,361.585 150.938 C 362.251 152.914,363.076 156.148,363.418 158.125 C 363.760 160.102,364.334 162.633,364.694 163.750 C 367.428 172.247,367.272 198.772,364.396 214.375 C 364.063 216.180,363.647 218.711,363.472 220.000 C 363.297 221.289,362.792 223.539,362.350 225.000 C 361.908 226.461,361.255 228.852,360.898 230.313 C 360.541 231.773,359.710 234.727,359.051 236.875 C 358.392 239.023,357.496 242.188,357.059 243.906 C 355.342 250.655,352.709 257.576,350.272 261.747 C 342.617 274.846,326.993 290.931,314.351 298.730 C 312.044 300.153,308.398 302.740,306.250 304.480 C 300.137 309.429,297.096 311.284,286.875 316.298 C 281.633 318.870,275.516 321.875,273.281 322.977 C 268.744 325.213,262.610 327.805,260.000 328.588 C 259.055 328.872,257.085 329.575,255.623 330.149 C 252.164 331.508,249.495 332.188,247.614 332.188 C 246.782 332.188,244.763 332.470,243.128 332.816 C 241.494 333.161,236.992 334.012,233.125 334.705 C 229.258 335.399,224.688 336.367,222.969 336.857 C 221.250 337.346,219.422 337.857,218.906 337.991 C 218.391 338.125,216.000 338.258,213.594 338.287 C 209.568 338.335,208.999 338.417,206.468 339.311 C 201.132 341.198,192.780 341.561,187.323 340.143 C 183.972 339.272,180.580 338.843,173.906 338.444 C 169.090 338.156,166.101 337.676,160.285 336.256 C 158.161 335.737,155.793 335.313,155.024 335.313 C 154.255 335.313,152.494 335.176,151.110 335.010 C 149.726 334.844,147.002 334.559,145.056 334.376 C 143.022 334.185,140.831 333.777,139.900 333.416 C 139.010 333.072,136.876 332.503,135.158 332.152 C 133.440 331.802,130.768 331.046,129.220 330.472 C 127.673 329.898,125.366 329.123,124.096 328.750 C 121.509 327.991,114.189 325.071,107.813 322.256 C 73.374 307.051,49.715 286.728,43.161 266.719 C 42.485 264.656,41.578 262.044,41.145 260.914 C 40.713 259.783,40.080 257.392,39.739 255.601 C 39.398 253.810,38.833 251.619,38.482 250.733 C 37.609 248.525,36.918 245.760,36.564 243.054 C 36.400 241.804,35.846 239.761,35.333 238.513 C 34.241 235.861,33.443 232.275,33.424 229.935 C 33.416 229.025,33.195 227.719,32.933 227.031 C 31.813 224.101,31.503 222.808,31.253 220.042 C 30.895 216.070,29.722 214.887,23.281 212.000 C 18.360 209.795,16.875 209.041,16.875 208.747 C 16.875 208.577,16.713 208.438,16.515 208.438 C 15.935 208.438,16.401 217.390,17.167 220.938 C 17.519 222.570,17.893 225.102,17.998 226.563 C 18.104 228.023,18.386 229.912,18.626 230.760 C 18.900 231.727,19.062 233.841,19.062 236.435 C 19.062 242.616,19.731 245.206,25.140 260.000 C 26.115 262.664,27.244 265.786,27.650 266.937 C 28.908 270.501,33.998 282.470,35.863 286.250 C 37.485 289.539,37.904 290.109,40.792 292.969 C 48.865 300.960,60.315 311.496,64.688 314.956 C 66.320 316.248,68.914 318.494,70.452 319.946 C 75.365 324.585,83.733 328.918,100.711 335.613 C 109.531 339.091,109.667 339.690,103.913 349.688 C 102.577 352.008,100.563 355.102,99.435 356.563 C 98.308 358.023,96.659 360.344,95.771 361.719 C 94.883 363.094,93.430 365.063,92.541 366.094 C 89.167 370.011,88.413 373.311,90.067 376.924 C 94.034 385.590,104.859 383.413,110.746 372.766 C 112.899 368.871,113.891 367.452,117.049 363.750 C 118.108 362.508,119.583 360.140,120.843 357.656 C 127.204 345.116,128.037 344.731,140.781 348.438 C 142.500 348.938,146.367 349.773,149.375 350.294 C 152.383 350.815,156.672 351.584,158.906 352.004 C 161.141 352.423,165.148 352.923,167.813 353.114 C 173.655 353.533,179.428 354.171,184.688 354.979 C 192.808 356.227,202.505 356.076,211.875 354.556 C 214.539 354.123,218.828 353.547,221.406 353.275 C 223.984 353.004,228.555 352.238,231.563 351.575 C 234.570 350.912,238.255 350.142,239.751 349.865 C 241.247 349.587,243.813 348.947,245.454 348.442 C 247.095 347.937,250.006 347.228,251.924 346.866 C 253.841 346.504,256.338 345.853,257.471 345.419 C 266.688 341.891,268.300 348.525,262.058 364.296 C 257.909 374.778,257.729 377.328,260.971 379.676 C 264.623 382.321,268.871 382.070,272.365 379.002 C 278.237 373.846,284.078 356.764,284.578 343.281 C 284.834 336.404,284.894 336.319,292.188 332.588 C 310.205 323.370,312.750 321.794,320.781 314.890 C 322.500 313.412,325.523 310.834,327.500 309.161 C 329.477 307.488,333.484 303.787,336.406 300.935 C 339.328 298.084,343.195 294.530,345.000 293.036 C 348.744 289.938,349.385 289.215,352.559 284.506 C 353.825 282.629,356.422 278.844,358.331 276.094 C 365.274 266.094,370.632 255.780,371.759 250.250 C 372.353 247.331,373.054 245.203,374.669 241.406 C 377.107 235.678,377.277 235.172,377.973 231.563 C 378.255 230.102,378.911 227.570,379.432 225.938 C 380.230 223.436,380.422 222.192,380.649 218.035 C 381.220 207.616,381.562 204.202,382.346 201.094 C 383.956 194.713,384.133 181.131,382.682 175.313 C 382.188 173.334,381.687 169.985,381.420 166.875 C 380.947 161.366,380.738 160.202,379.580 156.610 L 378.839 154.313 381.396 151.766 C 382.803 150.365,384.357 148.516,384.851 147.656 C 385.344 146.797,386.177 145.573,386.702 144.937 C 387.578 143.876,390.505 138.361,391.691 135.536 C 392.975 132.478,391.833 126.773,389.708 125.636 C 387.811 124.620,383.293 125.856,382.440 127.624 C 382.266 127.985,381.540 128.709,380.827 129.232 C 380.115 129.755,378.982 131.020,378.312 132.044 C 374.391 138.029,373.386 137.711,371.340 129.844 C 371.012 128.583,366.842 118.673,365.068 114.939 C 357.031 98.017,341.888 79.386,325.469 66.218 C 313.045 56.254,285.973 42.173,263.438 33.953 C 261.805 33.358,258.500 32.145,256.094 31.258 C 249.717 28.908,240.401 25.842,236.094 24.675 C 234.031 24.116,231.641 23.467,230.783 23.233 C 225.817 21.880,187.439 18.934,182.969 19.563 M291.563 69.471 C 291.477 69.557,289.930 69.862,288.125 70.148 C 279.296 71.551,272.678 77.186,272.662 83.316 C 272.653 86.442,273.563 86.991,282.130 89.029 C 284.448 89.580,286.445 90.253,287.151 90.720 C 293.050 94.624,297.171 94.427,299.204 90.144 C 301.083 86.182,298.767 83.426,292.159 81.761 C 289.159 81.005,288.136 80.205,289.745 79.873 C 290.143 79.790,291.979 79.438,293.825 79.091 C 299.655 77.991,301.250 76.927,301.250 74.132 C 301.250 72.611,300.577 71.945,297.656 70.577 C 295.651 69.638,292.051 68.985,291.563 69.471 M240.313 92.504 C 234.893 93.124,231.166 93.734,226.094 94.830 C 220.815 95.970,217.357 96.563,215.975 96.563 C 215.284 96.563,214.043 96.690,213.219 96.846 C 212.394 97.002,209.750 97.363,207.344 97.647 C 199.204 98.608,195.201 99.370,190.681 100.818 C 187.585 101.809,180.940 105.124,178.476 106.907 C 177.510 107.606,175.220 109.144,173.388 110.325 C 171.557 111.507,169.030 113.334,167.773 114.387 C 165.447 116.335,161.354 119.147,159.375 120.156 C 157.274 121.227,152.650 124.637,151.893 125.674 C 151.473 126.248,149.230 128.714,146.907 131.153 C 141.582 136.744,138.343 142.016,137.044 147.206 C 136.767 148.313,136.118 150.300,135.601 151.621 C 133.976 155.779,133.833 156.875,132.814 172.969 C 132.142 183.598,132.515 189.493,134.039 192.350 C 134.568 193.340,135.000 194.347,135.000 194.588 C 135.000 194.828,135.268 195.551,135.597 196.194 C 135.925 196.837,136.345 198.184,136.530 199.187 C 136.715 200.189,137.291 201.792,137.809 202.748 C 138.326 203.704,138.752 204.707,138.756 204.977 C 138.781 207.267,143.015 216.604,146.170 221.332 C 147.001 222.576,148.050 224.227,148.503 225.000 C 150.254 227.989,156.964 233.402,159.988 234.265 C 160.940 234.536,162.211 235.021,162.813 235.343 C 166.504 237.317,169.757 238.392,173.125 238.751 C 174.414 238.889,176.102 239.208,176.875 239.460 C 178.780 240.080,183.455 241.166,185.938 241.565 C 187.055 241.744,189.516 242.229,191.406 242.642 C 195.995 243.645,200.647 244.375,202.444 244.375 C 203.251 244.375,204.402 244.516,205.002 244.689 C 205.602 244.862,207.570 245.073,209.375 245.159 C 211.180 245.245,214.265 245.474,216.230 245.670 C 219.806 246.025,225.365 245.877,229.375 245.320 C 230.492 245.165,232.813 244.876,234.531 244.677 C 244.066 243.574,246.973 242.993,250.875 241.407 C 251.920 240.982,254.225 240.290,255.997 239.869 C 259.489 239.040,262.909 237.963,268.281 236.002 C 270.172 235.312,273.406 234.221,275.469 233.578 C 280.206 232.101,281.289 231.554,282.531 230.008 C 283.082 229.323,283.828 228.670,284.188 228.557 C 284.549 228.445,286.250 227.405,287.969 226.246 C 289.688 225.087,291.716 223.753,292.477 223.281 C 293.237 222.809,294.771 221.650,295.885 220.705 C 296.999 219.760,299.166 218.162,300.702 217.154 C 307.317 212.810,311.768 207.171,314.210 200.040 C 314.600 198.901,315.509 196.665,316.229 195.072 C 317.052 193.251,317.716 191.161,318.016 189.447 C 318.536 186.472,318.570 186.336,320.184 180.625 C 320.791 178.477,321.429 175.945,321.601 175.000 C 321.773 174.055,322.115 172.227,322.362 170.938 C 324.310 160.744,324.482 153.551,322.978 145.156 C 322.732 143.781,322.371 141.552,322.176 140.202 C 321.766 137.355,319.926 131.553,318.309 128.008 C 317.692 126.654,317.186 125.389,317.185 125.195 C 317.161 122.333,309.216 110.426,305.300 107.384 C 302.970 105.575,300.241 104.190,296.875 103.108 C 295.414 102.639,293.234 101.821,292.031 101.292 C 288.429 99.707,285.032 98.451,282.203 97.655 C 280.733 97.242,277.703 96.333,275.469 95.635 C 273.234 94.937,270.422 94.220,269.219 94.041 C 268.016 93.863,265.625 93.448,263.906 93.120 C 256.687 91.740,248.789 91.534,240.313 92.504 M125.231 96.882 C 118.699 97.627,115.356 101.664,117.538 106.172 C 118.947 109.084,121.644 110.006,125.422 108.869 C 128.795 107.854,135.070 107.629,135.248 108.517 C 135.313 108.839,135.125 109.137,134.789 109.242 C 134.475 109.340,134.008 109.544,133.750 109.696 C 130.774 111.448,129.834 112.083,127.844 113.685 C 123.481 117.198,122.923 120.165,126.023 123.368 C 128.426 125.851,133.482 125.337,135.025 122.452 C 135.808 120.991,142.416 116.334,146.580 114.309 C 150.090 112.603,151.828 110.933,152.641 108.483 C 153.898 104.699,150.574 99.402,146.112 98.075 C 141.959 96.841,131.057 96.218,125.231 96.882 M265.147 103.910 C 269.544 104.655,271.112 105.066,279.219 107.597 C 286.054 109.732,294.623 113.340,297.713 115.385 C 301.504 117.893,304.598 121.918,306.751 127.141 C 307.221 128.284,308.165 130.555,308.846 132.188 C 311.815 139.296,315.080 162.188,313.125 162.188 C 312.953 162.188,312.813 162.028,312.813 161.834 C 312.813 160.107,299.435 148.567,295.469 146.873 C 294.610 146.506,293.441 145.850,292.871 145.415 C 291.712 144.532,286.635 141.875,286.105 141.875 C 285.917 141.875,284.713 141.371,283.429 140.754 C 282.144 140.137,279.758 139.287,278.125 138.863 C 276.492 138.440,274.313 137.837,273.281 137.524 C 270.487 136.674,261.928 135.625,257.790 135.625 C 256.548 135.625,253.632 135.396,251.312 135.117 C 247.416 134.647,246.895 134.647,244.506 135.117 C 243.083 135.396,241.193 135.625,240.305 135.625 C 239.417 135.625,237.755 135.903,236.611 136.243 C 235.467 136.583,233.336 137.012,231.875 137.197 C 230.414 137.381,227.672 137.729,225.781 137.969 C 219.443 138.774,216.756 139.041,210.027 139.535 C 206.346 139.805,201.916 140.286,200.183 140.603 C 198.449 140.921,195.063 141.350,192.656 141.557 C 190.250 141.764,187.789 142.048,187.188 142.189 C 182.412 143.301,171.105 146.381,169.844 146.912 C 168.984 147.274,166.313 148.383,163.906 149.376 C 161.500 150.369,157.703 152.026,155.469 153.058 C 151.063 155.093,145.333 157.312,145.097 157.076 C 145.016 156.995,145.190 156.563,145.483 156.116 C 145.776 155.669,146.205 154.398,146.437 153.293 C 146.823 151.452,147.162 150.896,150.483 146.657 C 152.477 144.113,154.366 141.539,154.681 140.938 C 154.995 140.336,157.763 137.365,160.830 134.334 C 163.897 131.304,166.727 128.450,167.120 127.992 C 167.724 127.287,176.939 121.056,183.641 116.823 C 186.705 114.887,190.787 113.313,200.938 110.153 C 205.430 108.754,215.137 106.875,217.867 106.875 C 218.972 106.875,220.855 106.540,226.250 105.385 C 233.172 103.902,234.467 103.786,244.531 103.740 C 249.859 103.715,254.922 103.586,255.781 103.452 C 258.560 103.019,260.427 103.110,265.147 103.910 M250.938 145.332 C 252.398 145.512,255.773 145.790,258.438 145.949 C 267.705 146.502,274.486 147.809,279.375 149.984 C 284.781 152.389,286.456 153.212,287.031 153.745 C 287.375 154.063,289.002 154.964,290.648 155.746 C 294.148 157.410,294.807 157.907,299.938 162.753 C 302.736 165.396,304.048 166.882,304.682 168.127 C 305.163 169.074,306.205 170.709,306.996 171.762 C 309.888 175.609,310.116 176.790,308.896 181.602 C 308.461 183.318,307.971 185.785,307.806 187.082 C 307.559 189.034,307.160 190.126,305.505 193.393 C 304.403 195.566,302.890 198.587,302.142 200.106 C 300.130 204.191,298.545 205.965,294.160 209.044 C 292.066 210.515,289.957 212.088,289.473 212.539 C 288.057 213.858,280.816 218.650,278.617 219.723 C 277.506 220.264,276.198 221.097,275.711 221.573 C 275.225 222.049,273.846 222.786,272.648 223.211 C 271.449 223.636,269.133 224.507,267.500 225.146 C 261.710 227.414,257.749 228.688,252.413 230.001 C 250.904 230.372,248.840 231.013,247.825 231.426 C 242.948 233.407,226.763 235.520,219.063 235.179 C 212.454 234.887,207.542 234.520,204.375 234.083 C 202.914 233.882,200.313 233.521,198.594 233.282 C 195.733 232.884,189.656 231.720,183.750 230.440 C 182.461 230.160,180.157 229.525,178.630 229.028 C 176.874 228.457,175.192 228.125,174.049 228.125 C 172.199 228.125,171.180 227.763,164.844 224.853 C 160.733 222.965,154.578 216.160,152.269 210.951 C 151.854 210.014,151.260 208.889,150.950 208.451 C 150.407 207.687,149.806 205.733,149.052 202.285 C 148.857 201.393,148.283 200.010,147.776 199.212 C 147.240 198.367,146.666 196.824,146.403 195.520 C 146.154 194.289,145.682 192.719,145.355 192.031 C 143.153 187.406,142.488 182.779,143.109 176.406 C 143.277 174.688,143.501 172.331,143.607 171.170 L 143.800 169.058 146.197 167.934 C 147.515 167.316,150.633 165.993,153.125 164.995 C 155.617 163.997,159.203 162.449,161.094 161.555 C 167.793 158.387,174.394 155.941,180.625 154.317 C 188.946 152.149,189.838 151.977,194.844 151.575 C 197.250 151.382,200.100 151.020,201.177 150.772 C 202.254 150.523,205.840 150.106,209.145 149.845 C 220.970 148.911,222.402 148.773,226.875 148.134 C 229.367 147.778,232.429 147.352,233.679 147.188 C 234.928 147.023,236.777 146.675,237.786 146.413 C 238.796 146.152,240.304 145.924,241.139 145.908 C 241.973 145.891,243.359 145.697,244.219 145.476 C 246.229 144.959,247.663 144.929,250.938 145.332 "
       stroke="none"
       fill="#ffffff"
       fill-rule="evenodd" />
  </g>
</svg>
