<svg xmlns="http://www.w3.org/2000/svg" width="400" height="400" viewBox="0 0 400 400" xmlns:v="https://vecta.io/nano">
  <path d="M15.583 1.607c-.275.042-.818.223-1.206.402s-.848.324-1.021.324c-.923 0-4.912 1.931-6.543 3.167-.885.671-2.48 2.42-2.48 2.72 0 .04-.258.501-.573 1.025s-.77 1.601-1.01 2.395l-.583 1.86c-.702 2.017-.537 7.046.306 9.333.953 2.587 1.038 2.707 3.61 5.079.61.563 3.132 1.921 3.567 1.921.374 0-.468 1.636-1.271 2.471-.713.739.508 1.955 1.326 1.321.323-.25 1.461-1.743 1.462-1.918.001-.068.17-.335.377-.593l.376-.47 1.165.243c3.801.793 6.139.76 9.485-.134 1.294-.346 1.387-.228.943 1.205-.425 1.375-.348 1.709.396 1.709.879 0 1.423-.86 1.764-2.793l.214-1.209.932-.447a11.68 11.68 0 0 0 2.453-1.632c2.263-2.031 3.667-3.92 4.163-5.602.146-.496.321-.976.389-1.067.158-.214.475-2.163.597-3.667.128-1.573-.296-4.391-.808-5.367-.154-.293-.28-.615-.28-.716 0-1.158-3.364-5.401-4.916-6.2l-1.75-.911c-1.839-.962-4.852-2.1-6.166-2.328-.56-.098-4.453-.194-4.918-.121M211.95 2.4c-.565.524-.908 1.371-1.044 2.58s-.105 1.164-1.323 1.758c-2.616 1.275-6.416 5.454-6.416 7.055 0 .169-.071.378-.158.465-.961.962-1.065 7.598-.149 9.444.169.34.307.717.307.838 0 .32 1.222 2.659 1.686 3.225.985 1.204 2.598 2.693 3.493 3.226 4.85 2.888 10.33 4.074 13.583 2.94.635-.221 1.615-.521 2.177-.666 6.416-1.657 10.612-7.384 10.634-14.515.017-5.721-.95-8.026-4.677-11.142-.522-.436-2.861-1.608-3.21-1.608-.103 0-.186-.112-.186-.25s.075-.25.166-.25.167-.087.167-.193.3-.591.667-1.076c.728-.964.832-1.529.362-1.955-.718-.65-1.404-.175-2.614 1.807-.392.642-.814 1.151-.939 1.131a22.25 22.25 0 0 1-.976-.215c-.7-.166-1.695-.313-4.043-.597-1.028-.124-2.581.073-5.016.637-1.772.41-1.909.319-1.429-.945.646-1.699.02-2.697-1.062-1.694M21 3.608c5.021 1.296 6.748 2.309 9.256 5.431 4.059 5.049 3.144 13.757-1.792 17.051-.393.262-.864.606-1.047.764-1.375 1.184-5.486 2.669-8 2.89-.184.016-.606.087-.94.158-.564.119-1.676.021-4.56-.402-3.439-.504-7.427-2.659-8.95-4.833-1.413-2.019-2.229-6.73-1.637-9.445 1.018-4.665 2.558-7.231 5.469-9.114C13.336 3.173 16.67 2.49 21 3.608m200.268 2.566c6.252.921 10.323 3.482 11.247 7.076l.481 1.833c.843 3.191.465 6.281-1.244 10.167-2.394 5.44-10.071 8.647-16.585 6.928-4.53-1.195-6.493-2.372-8.838-5.298-1.394-1.739-1.671-2.34-2.342-5.077-.826-3.368.355-8.427 2.473-10.592 2.43-2.485 5.749-4.228 9.123-4.793.917-.153 1.892-.34 2.167-.415.766-.208 1.03-.195 3.518.171M24.596 9.986c-.668.738.328 1.936 1.059 1.274.443-.4.455-1.189.023-1.421-.471-.252-.756-.213-1.082.147m-6.729.714c-.384.384-.245 1.287.232 1.504.907.413 1.835-.746 1.148-1.433-.317-.318-1.094-.358-1.38-.071m212.392 1.008c-.035.115-.106.546-.157.959s-.433 1.421-.848 2.242c-1.002 1.983-.953 2.969.132 2.697.417-.105 2.281-4.179 2.281-4.987 0-.817-1.199-1.592-1.408-.911M25.72 13.295a16.68 16.68 0 0 0-.83.983l-.36.472-.39-.354c-1.022-.929-1.261-.918-2.39.104-1.163 1.053-1.436 1.05-2.523-.023-.872-.861-1.28-.968-1.5-.393-.153.399.705 1.547 1.564 2.092 1.169.741 1.551.671 3.118-.577l.608-.485.45.362c1.141.919 1.605.815 2.567-.575.936-1.353.676-2.682-.314-1.606M6.864 18.38c-.242.291-2.031 4.56-2.031 4.845 0 1.219 1.362 1.382 1.534.184.067-.467.456-1.498.877-2.322.757-1.484.933-2.344.556-2.72-.261-.262-.713-.255-.936.013m208.127 1.258c-.408.26-.844.597-.97.75-.305.371-.445.353-1.09-.138-1.124-.858-2.551.056-3.013 1.929-.274 1.111.688.978 1.409-.195.587-.954.582-.953 1.333-.311.786.672 1.064.627 2.122-.34 1.156-1.056 1.447-1.056 2.484 0 1.26 1.284 2.207.787 1.147-.602-1.1-1.443-2.28-1.819-3.422-1.093m2.556 4.032c-.938.377-.507 1.663.556 1.663.868 0 1.194-.869.564-1.5-.363-.362-.556-.39-1.12-.163m-6.677.923c-.713.499-.219 1.671.652 1.545a.78.78 0 0 0 .427-1.398c-.551-.479-.596-.485-1.079-.147m-95.037 76.729c-.229.08-.716.153-1.083.162-.608.016-2.38.577-3.955 1.251-.598.257-2.192 1.793-3.3 3.182-.292.366-.822 1.292-1.176 2.057l-.645 1.391-.629-.378c-.346-.207-.924-.589-1.286-.849-.739-.529-1.276-.597-1.664-.209-.752.752-.089 1.539 2.667 3.167.29.171.291.238.023 1.583-.752 3.774-.739 5.49.065 8.904.173.734.315 1.39.315 1.459.002.204-.74.142-1.498-.125-1.202-.424-1.834-.194-1.834.669 0 .621 2.127 1.578 3.514 1.58.567.001.623.054 1.145 1.092.301.6.633 1.182.736 1.292s.385.462.626.783c.936 1.25 3.516 3.667 3.913 3.667.054 0 .297.136.541.302.633.433 3.572 1.365 4.304 1.365.34 0 1.053.089 1.584.199 1.287.266 4.111-.171 5.761-.891.388-.17.768-.308.843-.308.662 0 3.27-1.755 4.367-2.94 1.875-2.023 3.468-5.114 4.616-8.959.423-1.415.386-5.8-.059-6.935-.197-.504-.453-1.291-.568-1.75-1.179-4.691-5.048-8.799-9.434-10.017l-1.805-.516c-.96-.283-5.439-.451-6.084-.228m200.334.161c-5.969 1.176-9.409 4.667-11.923 12.1-.66 1.951-.791 5.86-.252 7.5l.683 2.162c2.415 7.939 8.891 11.629 18.325 10.446 1.06-.134 2.988-.764 4.183-1.369 1.304-.659 3.535-3.364 4.39-5.322.26-.596.496-1.111.525-1.145s.617.322 1.305.792c1.391.947 1.955 1.058 2.348.459.322-.492.126-1.106-.494-1.549-.237-.169-.597-.446-.802-.615s-.66-.456-1.013-.637c-.729-.373-.714-.139-.199-3.222.507-3.033.244-6.527-.662-8.791-.156-.389.708-.4 1.698-.022.972.371 1.554.211 1.554-.428 0-.883-1.277-1.641-3.032-1.801l-.988-.089-.567-1.127c-.539-1.069-1.331-2.104-2.946-3.85-2.648-2.861-7.802-4.345-12.133-3.492m-195.834 1.259c4.646.899 7.365 2.537 9.387 5.656 3.31 5.107 3.68 9.348 1.354 15.527-2.437 6.475-9.239 9.689-16.241 7.674-4.236-1.219-7.59-5.594-8.575-11.182a62.91 62.91 0 0 0-.448-2.311c-.189-.833-.19-.82.445-4.807.582-3.648 2.574-7.35 4.767-8.856 2.014-1.383 6.614-2.223 9.311-1.701m202.777.882c4.738 1.415 7.933 6.334 8.853 13.626.531 4.215-2.071 11.21-4.957 13.329-1.848 1.356-6.751 2.447-8.923 1.986-4.309-.916-7.381-2.348-8.794-4.101-3.529-4.379-4.901-9.584-3.613-13.714.085-.275.312-1.052.503-1.728.991-3.507 2.321-5.515 5.1-7.699 2.965-2.33 7.526-2.985 11.831-1.699m-211.429 1.111c-.61.65-.41.995.655 1.131.561.071 1.409.373 2.197.782 1.933 1.005 2.967 1.071 2.967.191 0-.459-.455-.746-2.624-1.653-2.309-.965-2.665-1.016-3.195-.451m203.527 4.375c-.559.226-.113.936.917 1.458.65.329.68.636.125 1.296-.616.732-.534 1.17.417 2.219.458.506.833 1.037.833 1.179s-.375.654-.833 1.139c-1.18 1.248-1.013 2.041.283 1.343 1.81-.975 2.219-2.733.967-4.159-.695-.791-.713-.967-.167-1.615.769-.914.357-1.739-1.285-2.571-.81-.411-.902-.432-1.257-.289M312 110c-.432.432-.42.595.076 1.091.488.488.777.514 1.148.104.822-.908-.359-2.06-1.224-1.195m.833 6.5c-.593.593-.171 1.667.655 1.667.819 0 1.162-1.259.475-1.741-.49-.343-.729-.327-1.13.074m-189.166.833c-.425.425-.423.841.006 1.302.641.688 1.494.249 1.494-.767 0-.839-.882-1.153-1.5-.535m-3.283.459c-1.635 1.459-1.733 2.707-.317 4.029.538.502.541.692.016 1.315-.823.978-.181 2.147 1.54 2.805 1.449.553 1.596-.406.194-1.268-.954-.587-.952-.582-.31-1.333.67-.784.627-1.053-.34-2.138-1.04-1.167-1.038-1.401.017-2.469 1.39-1.408.67-2.254-.8-.941m4.225 6.179c-.553.612-.256 1.529.496 1.529.844 0 1.209-1.095.525-1.574-.48-.336-.684-.327-1.021.045m195.912 3.92c-.549.662-.209.977 2.137 1.982 2.52 1.08 2.944 1.145 3.516.536.552-.587.291-.956-.786-1.112-.454-.065-1.44-.426-2.191-.802-1.606-.804-2.367-.976-2.676-.604M11.792 201.513c-.56.326-1.286 2.159-1.29 3.256-.002.68-.01.689-1.127 1.233-2.59 1.259-6.542 5.493-6.542 7.008 0 .104-.105.426-.233.715-.334.752-.439 1.198-.609 2.608-.084.688-.201 1.505-.26 1.815-.134.696.361 3.768.769 4.769.075.183.261.671.414 1.083 2.366 6.389 12.566 11.333 18.919 9.17.504-.172 1.367-.443 1.917-.603 4.732-1.374 8.195-4.514 9.631-8.734 1.053-3.095 1.017-2.866 1.007-6.416l-.01-3.334-.674-1.853c-.899-2.474-1.02-2.683-2.159-3.738-2.045-1.893-3.063-2.561-4.67-3.064-.544-.17-.472-.466.45-1.864.726-1.101.803-1.3.641-1.655-.582-1.278-1.799-.505-3.154 2.003-.32.593-.623.612-2.729.174-2.373-.493-6.078-.377-7.916.247-1.445.491-2.292-.02-1.534-.925.894-1.067.246-2.528-.841-1.895m205.415 1.163c-.39.077-1.14.287-1.667.465a44.12 44.12 0 0 1-1.707.539c-2.554.729-6.247 3.185-7.549 5.02-1.199 1.691-1.566 2.508-2.423 5.383-1.861 6.248.508 13.55 5.15 15.87a30.82 30.82 0 0 0 1.531.702c.977.411.978.371-.071 1.939-.822 1.229-.85 1.309-.619 1.722.641 1.148 2.006.211 3.239-2.222.208-.411.534-.413 2.242-.014 2.602.609 6.892.384 9.632-.505.403-.13.418.459.039 1.532-.406 1.151-.243 1.726.49 1.726.787 0 1.839-2.129 1.839-3.72 0-.306.224-.492 1.125-.935 2.62-1.288 6.542-5.591 6.542-7.178 0-.11.104-.436.232-.725.882-1.996.932-6.768.093-8.858-1.925-4.8-3.345-6.414-7.408-8.428-1.284-.635-2.429-1.156-2.544-1.156s-.341-.071-.5-.157c-1.48-.807-5.794-1.369-7.666-1m5.543 2.024c4.523 1.121 6.619 2.361 8.996 5.323 2.696 3.361 3.298 7.875 1.681 12.615-1.657 4.862-9.459 8.956-15.633 8.205-2.962-.36-3.553-.471-4.875-.918-5.445-1.838-7.738-4.79-8.363-10.765-.258-2.469 1.384-7.507 3.227-9.899 1.291-1.675 5.6-4.191 7.975-4.657 3.382-.662 3.961-.654 6.992.096m-201.25.82c4.286.647 8.535 2.86 9.98 5.197.699 1.131 1.964 6.381 1.793 7.44-.733 4.532-2.441 8.445-4.297 9.843-6.059 4.564-10.572 5.129-17.893 2.238-1.12-.442-2.583-1.335-2.583-1.577 0-.064-.304-.326-.675-.584-5.356-3.711-5.826-14.336-.813-18.383 3.323-2.683 4.939-3.375 10.321-4.422.557-.108 2.624.015 4.167.248m8.622 5.382c-.132.132-.284.619-.339 1.083a4.83 4.83 0 0 1-.513 1.555c-1.084 1.861-1.306 3.154-.583 3.383 1.001.318 3.192-5.069 2.355-5.788-.507-.435-.675-.478-.92-.233m195.987.069c-.372.411-.347.913.063 1.284.793.718 1.789-.469 1.065-1.27-.363-.401-.773-.406-1.128-.014m-6.742.729c-.326.326-.247 1.263.122 1.461.712.381 1.511-.028 1.511-.773 0-.702-1.139-1.182-1.633-.688m7.457 3.122c-.595.968-.68.995-1.354.428-.729-.613-1.18-.532-2.319.417-1.263 1.051-1.292 1.047-2.662-.365-.865-.891-1.69-.489-1.054.513 1.227 1.935 2.65 2.315 4.136 1.105.817-.666 1.429-.849 1.429-.428 0 .393 1.108.714 1.593.461.603-.314 1.621-1.949 1.545-2.483-.107-.755-.736-.586-1.314.352m-211.907 3.939c-.275.143-.729.48-1.008.749-.627.605-.651.605-1.351-.01-.905-.795-1.452-.616-2.374.776-.551.833-.691 1.788-.284 1.945.315.121.645-.165 1.167-1.013.507-.822.582-.841 1.212-.314.837.7 1.129.696 1.923-.022 1.511-1.368 1.864-1.389 2.882-.17.768.92 1.416 1.008 1.416.193 0-1.294-2.421-2.736-3.583-2.134m193.483.713c-.699.817-2.078 4.569-1.89 5.141.397 1.203 1.235 1.102 1.373-.166.062-.564.36-1.376.856-2.331.843-1.623.98-2.489.439-2.779-.43-.23-.472-.222-.778.135m-191.275 3.539c-.339.198-.399 1.146-.092 1.454.284.283 1.062.248 1.372-.062.793-.793-.289-1.969-1.28-1.392M10.5 224c-.401.401-.417.64-.074 1.13.462.66 1.574.248 1.574-.584 0-.293-.611-.879-.917-.879-.137 0-.4.15-.583.333m306.75 76.333c-.183.079-.708.149-1.167.156-.799.012-2.682.592-4.264 1.313-.45.205-1.125.773-1.736 1.46l-1.474 1.639c-.488.53-1.609 2.749-1.609 3.186 0 .404-.313.29-1.599-.587-.673-.458-1.343-.833-1.49-.833-.785 0-1.153.735-.747 1.494.165.31 2.046 1.672 2.308 1.672.613 0 .7.588.335 2.264-.557 2.552-.526 5.916.074 8.219l.452 1.774c0 .22-.676.175-1.381-.093-1.348-.512-1.952-.382-1.952.422 0 .881 1.387 1.581 3.602 1.817.411.044.577.233 1.147 1.314.705 1.333 2.915 3.945 3.918 4.631.32.22.622.451.669.514.148.199 2.02 1.138 2.266 1.138.129 0 .553.146.941.325 1.53.703 5.567.987 7.457.525 4.703-1.15 7.817-3.574 9.793-7.622 2.398-4.914 3.124-9.219 2.046-12.144-.169-.459-.398-1.209-.51-1.667-.568-2.33-3.117-6.506-4.7-7.7-3.189-2.406-10.092-4.2-12.379-3.217m4.083 1.414c3.584.707 6.673 2.16 8.139 3.83 1.317 1.5 3.347 5.207 3.699 6.756l.323 1.417c.582 2.537-.374 7.555-2.08 10.923-.862 1.7-3.891 4.599-5.664 5.42-5.252 2.434-12.642.853-15.11-3.233a11.48 11.48 0 0 0-.765-1.095c-4.42-5.392-3.556-17.148 1.602-21.808 1.892-1.709 6.809-2.812 9.856-2.21m-203.916 1.026l-1.334.253c-.55.102-1.225.28-1.5.394s-.936.378-1.469.585c-2.263.878-4.831 3.114-6.029 5.25-1.709 3.046-2.654 5.578-3.016 8.078-.4 2.76-.329 3.616.513 6.25l.441 1.417c.374 1.257 1.733 3.801 2.894 5.417 4.105 5.718 16.841 6.859 21.25 1.903l1.441-1.578c.197-.198.598-.877.891-1.509l.705-1.511c.209-.442.373-.39 1.765.56 1.266.864 2.364.8 2.364-.139 0-.628-.637-1.186-2.974-2.601-.288-.175-.364-.331-.288-.598.168-.589.566-2.935.726-4.277.164-1.374-.076-3.86-.535-5.55-.485-1.79-.457-1.812 1.606-1.27.877.23 1.299.053 1.299-.545 0-.897-.979-1.491-3.008-1.826l-1.142-.189-.44-.931c-.38-.8-1.054-1.8-1.658-2.456a136.73 136.73 0 0 1-1.002-1.137c-2.404-2.748-8.011-4.694-11.5-3.99m195.32.95c-.668.58-.418.984.709 1.146.454.066 1.446.43 2.205.81 1.715.858 2.569 1.011 2.838.507.333-.621-.048-.942-2.194-1.851-2.608-1.104-2.928-1.159-3.558-.612m-189.987 1.195c4.402 1.138 7.988 5.414 9.014 10.749.656 3.407.657 3.563.069 7.916-.655 4.846-3.753 8.824-7.583 9.737-.825.196-1.725.434-2 .528-2.294.782-7.707-.347-10.627-2.217-4.652-2.978-7.075-9.862-5.547-15.757 1.645-6.352 4.626-9.793 9.554-11.031l1.62-.409c.795-.204 3.889.068 5.5.484m-7.306 5.693c-.315.316-.052.773.723 1.254.961.598.974.64.416 1.37-.626.822-.543 1.288.417 2.348.458.506.833.961.833 1.01 0 .311-.589 1.125-1.091 1.508-.452.345-.581.553-.542.882.106.915 1.285.387 2.326-1.042.707-.969.608-1.774-.356-2.918l-.708-.84.519-.629c.285-.347.519-.76.519-.92 0-.878-2.527-2.551-3.056-2.023m-3.168.86c-.359.397-.349.744.029 1.087.579.524 1.528.177 1.528-.558 0-.751-1.037-1.103-1.557-.529m212.594 4.788c-.914.641-.032 2.103.941 1.559.604-.337.692-1.181.161-1.552-.473-.332-.636-.332-1.102-.007m-3.328.494c-1.714 1.467-1.779 2.309-.318 4.142l.475.595-.516.626c-.832 1.01-.401 1.913 1.291 2.705 1.237.58 1.981-.038.931-.772-.236-.164-.624-.456-.862-.648l-.433-.349.445-.583c.661-.867.591-1.423-.291-2.289-.405-.397-.773-.861-.817-1.032-.085-.323.76-1.648 1.05-1.648.344 0 .723-.818.502-1.084-.323-.389-.715-.298-1.457.337m-208.433 1.218c-.758.838.226 2.061 1.163 1.446.739-.484.34-1.75-.551-1.75-.185 0-.46.137-.612.304M325.667 323c-.589.589-.218 1.5.612 1.5.836 0 1.125-.956.449-1.488-.544-.428-.645-.429-1.061-.012m-205 6.5c-.32.598.076.909 2.407 1.885 2.559 1.073 2.781 1.108 3.35.539.674-.674.47-.983-.757-1.142-.413-.054-1.425-.438-2.25-.854-1.657-.836-2.465-.961-2.75-.428" fill="#fafafb" fill-rule="evenodd" />
</svg>