<?xml version="1.0" encoding="UTF-8" standalone="no"?>
<svg
   xmlns:dc="http://purl.org/dc/elements/1.1/"
   xmlns:cc="http://creativecommons.org/ns#"
   xmlns:rdf="http://www.w3.org/1999/02/22-rdf-syntax-ns#"
   xmlns:svg="http://www.w3.org/2000/svg"
   xmlns="http://www.w3.org/2000/svg"
   xmlns:sodipodi="http://sodipodi.sourceforge.net/DTD/sodipodi-0.dtd"
   xmlns:inkscape="http://www.inkscape.org/namespaces/inkscape"
   width="400"
   height="400"
   viewBox="0 0 400 400"
   fill-rule="evenodd"
   version="1.1"
   id="svg78"
   sodipodi:docname="trans-bonger-wooper.svg"
   inkscape:version="1.0.2-2 (e86c870879, 2021-01-15)">
  <metadata
     id="metadata84">
    <rdf:RDF>
      <cc:Work
         rdf:about="">
        <dc:format>image/svg+xml</dc:format>
        <dc:type
           rdf:resource="http://purl.org/dc/dcmitype/StillImage" />
      </cc:Work>
    </rdf:RDF>
  </metadata>
  <defs
     id="defs82" />
  <sodipodi:namedview
     pagecolor="#ffffff"
     bordercolor="#666666"
     borderopacity="1"
     objecttolerance="10"
     gridtolerance="10"
     guidetolerance="10"
     inkscape:pageopacity="0"
     inkscape:pageshadow="2"
     inkscape:window-width="1920"
     inkscape:window-height="1051"
     id="namedview80"
     showgrid="false"
     inkscape:zoom="2.8284271"
     inkscape:cx="185.5333"
     inkscape:cy="148.38897"
     inkscape:window-x="-9"
     inkscape:window-y="-9"
     inkscape:window-maximized="1"
     inkscape:current-layer="svg78" />
  <path
     d="m 244.531,145.476 c -0.859,0.221 -2.245,0.415 -3.08,0.432 -0.835,0.017 -2.343,0.244 -3.352,0.505 -1.009,0.261 -2.858,0.61 -4.108,0.775 l -6.803,0.946 c -4.474,0.639 -5.906,0.777 -17.73,1.711 -3.306,0.261 -6.892,0.678 -7.969,0.927 -1.077,0.249 -3.926,0.61 -6.333,0.803 -5.006,0.402 -5.897,0.574 -14.218,2.742 -6.232,1.624 -12.833,4.07 -19.532,7.238 -1.89,0.894 -5.476,2.441 -7.968,3.438 -2.492,0.997 -5.446,2.234 -6.563,2.749 -1.117,0.515 -2.263,1.013 -2.547,1.107 -0.701,0.231 -1.058,4.514 -1.011,12.115 0.038,6.063 0.355,7.67 2.161,10.954 0.249,0.453 0.662,1.815 0.916,3.026 0.35045,1.47312 0.87129,2.9004 1.552,4.253 0.598,1.128 1.168,2.579 1.266,3.224 0.268,1.758 1.429,5.483 1.876,6.017 0.216,0.257 0.856,1.451 1.423,2.652 2.32,4.92 9.111,12.527 12.177,13.639 0.773,0.281 2.812,1.159 4.531,1.952 2.739,1.263 3.386,1.441 5.244,1.442 1.168,0.001 2.62,0.211 3.234,0.468 1.937,0.809 10.494,2.762 19.334,4.413 1.375,0.257 3.836,0.594 5.469,0.748 l 8.75,0.834 c 9.344,0.892 15.285,0.642 27.813,-1.171 3.158,-0.457 6.926,-1.402 9.289,-2.33 1.07,-0.42 3.179,-1.036 4.687,-1.368 2.369,-0.522 5.281,-1.459 14.617,-4.704 1.032,-0.359 2.227,-0.846 2.657,-1.084 0.43,-0.238 1.569,-0.66 2.531,-0.939 0.981,-0.284 2.08,-0.861 2.5,-1.312 0.413,-0.442 1.711,-1.29 2.887,-1.884 2.754,-1.392 8.462,-5.185 11.457,-7.614 1.289,-1.046 3.705,-2.817 5.369,-3.936 3.693,-2.484 8.376,-8.724 8.381,-11.169 0.001,-0.196 0.461,-1.13 1.024,-2.075 1.877,-3.154 3.033,-6.076 3.325,-8.402 0.156,-1.236 0.668,-3.853 1.139,-5.816 1.018,-4.241 0.88,-4.895 -1.789,-8.5 -0.866,-1.169 -1.969,-2.899 -2.453,-3.844 -0.634,-1.241 -1.995,-2.779 -4.891,-5.527 -5.23,-4.964 -5.908,-5.478 -9.458,-7.165 -1.645,-0.782 -3.272,-1.683 -3.616,-2.001 -0.576,-0.533 -2.251,-1.356 -7.656,-3.761 -4.89,-2.175 -11.671,-3.482 -20.938,-4.035 -2.664,-0.159 -6.039,-0.437 -7.5,-0.617 -3.215,-0.396 -4.071,-0.376 -6.094,0.144 m -35.078,100.052 c 0.301,0.079 0.793,0.079 1.094,0 0.301,-0.079 0.055,-0.143 -0.547,-0.143 -0.602,0 -0.848,0.064 -0.547,0.143"
     fill="#f3ccdc"
     id="path72"
     sodipodi:nodetypes="csscccscccsscccccccccccccccscccscccccccccccccccscccssc" />
  <path
     d="m 254.688,103.76 c -1.29,0.121 -6.493,0.24 -11.563,0.264 -9.348,0.044 -13.753,0.525 -17.286,1.887 -0.484,0.186 -1.469,0.339 -2.19,0.339 -0.81025,0.0121 -1.61621,0.12014 -2.401,0.322 -0.6,0.177 -2.287,0.448 -3.748,0.602 -5.843,0.615 -11.919,1.82 -16.562,3.284 -7.828,2.467 -9.516,3.041 -12.273,4.175 -3.202,1.318 -3.797,1.666 -12.102,7.078 -7.254,4.727 -8.848,5.837 -9.32,6.485 -0.227,0.312 -2.948,3.061 -6.047,6.108 -3.099,3.047 -5.891,6.032 -6.205,6.634 -0.314,0.602 -2.207,3.181 -4.207,5.734 -3.698,4.72 -4.222,5.582 -4.221,6.955 0,0.425 -0.283,1.327 -0.629,2.005 l -0.629,1.232 2.27,-0.817 c 2.877,-1.036 8.266,-3.332 10.679,-4.55 1.021,-0.515 3.695,-1.679 5.942,-2.586 l 5.648,-2.304 c 0.859,-0.36 4.614,-1.432 8.344,-2.383 l 7.572,-2.028 c 0.435,-0.166 3.008,-0.517 5.719,-0.781 6.046,-0.588 6.473,-0.643 9.722,-1.242 1.434,-0.265 6.449,-0.762 11.146,-1.105 4.697,-0.343 9.5,-0.766 10.674,-0.94 l 5.203,-0.785 c 1.687,-0.257 3.464,-0.468 3.95,-0.468 0.486,0 2.236,-0.352 3.889,-0.781 1.653,-0.429 3.674,-0.782 4.488,-0.782 0.814,0 2.535,-0.206 3.824,-0.457 2.048,-0.4 2.974,-0.401 7.344,-0.009 l 9.844,0.783 c 8.746,0.606 16.791,2.419 22.307,5.029 1.051,0.497 2.061,0.904 2.243,0.904 0.524,10e-4 5.61,2.665 6.758,3.541 0.57,0.434 1.739,1.09 2.598,1.457 3.751,1.603 6.095,3.443 12.552,9.853 4.952,4.916 5.056,4.997 5.235,4.106 0.428,-2.141 -0.414,-12.596 -1.192,-14.803 -0.246,-0.696 -0.545,-2.091 -0.664,-3.1 -0.849,-7.166 -5.95,-19.242 -10.175,-24.087 -1.38,-1.582 -5.986,-4.621 -8.141,-5.371 -0.923,-0.321 -2.521,-0.964 -3.553,-1.429 -3.326,-1.5 -7.718,-3.057 -14.062,-4.986 l -5.24,-1.612 c -0.819,-0.26 -2.647,-0.609 -4.062,-0.775 -1.415,-0.166 -3.136,-0.438 -3.823,-0.603 -1.383,-0.332 -4.087,-0.33 -7.656,0.007"
     fill="#ec84b4"
     id="path74"
     sodipodi:nodetypes="ccccccccccssccccccccccccsccssscccccccsccccccccscc" />
  <path
     d="M182.969 19.563l-4.844.625c-9.25 1.166-12.44 2.078-23.767 6.789-1.751.728-4.607 1.499-8.281 2.236-3.291.659-7.48 1.762-10.139 2.669-2.493.851-5.789 1.907-7.325 2.348-1.7.488-5.009 1.926-8.458 3.676-3.115 1.582-7.343 3.641-9.394 4.578-13.312 6.077-33.388 18.459-43.569 26.872-7.997 6.608-14.76 15.047-24.182 30.175-8.493 13.638-12.357 22.586-17.673 40.938-1.682 5.805-3.002 10.033-4.586 14.687-.862 2.533-1.553 5.298-1.836 7.344-.834 6.038-2.04 16.559-2.04 17.799 0 .675-.141 1.314-.312 1.42s-.313.888-.313 1.737c0 1.811-.115 1.858-1.431.582-2.853-2.765-9.774-1.747-10.785 1.587-.922 3.042-.804 8.342.19 8.534.169.033.288.236.264.45s.081.391.234.391.278.167.278.37.271.661.602 1.016.647.841.703 1.08c.125.536 4.851 5.034 5.289 5.034.175 0 .229.144.12.32s-.08.282.065.235 1.001.387 1.904.966c2.235 1.432 7.161 3.298 10.38 3.93 1.46.287 3.289.724 4.062.971l4.219 1.355c1.547.498 4.5 1.348 6.562 1.889s4.313 1.173 5 1.405c1.257.425 7.773 2.506 15.308 4.889 8.798 2.783 14.14 1.239 15.583-4.504.947-3.771-.922-8.163-4.2-9.871-2.015-1.051-6.909-3.039-8.878-3.608l-2.656-.785c-2.328-.725-7.198-2.032-9.375-2.515-.946-.21-2.915-.699-4.375-1.086-3.148-.834-5.858-1.308-9.063-1.583-2.589-.222-6.901-1.526-9.068-2.743-.77-.433-1.893-1.014-2.494-1.292-1.888-.872-5.745-3.598-5.092-3.598.337 0 1.737.953 2.04 1.388.126.182.232.23.234.106s.814.248 1.802.826c7.063 4.127 7.727 4.008 6.995-1.263-.426-3.076-.416-3.263.371-6.875.868-3.987 1.877-9.696 2.566-14.515.235-1.644.797-3.964 1.25-5.156a114.02 114.02 0 0 0 1.755-5.136l1.984-6.25a144.25 144.25 0 0 0 1.716-5.781 45.86 45.86 0 0 1 1.718-5c1.449-3.434 3.477-8.872 4.429-11.875 2.448-7.719 5.861-14.476 10.51-20.808 1.462-1.991 4.39-6.21 6.507-9.375 6.058-9.061 15.281-17.566 25.902-23.888 1.977-1.176 6.758-4.261 10.625-6.854 5.385-3.612 8.677-5.548 14.063-8.267 3.867-1.952 8.296-4.282 9.843-5.176 8.786-5.081 17.258-8.837 22.253-9.864a107.66 107.66 0 0 0 6.341-1.561c3.482-.989 7.961-1.862 9.555-1.863.529 0 1.935-.34 3.125-.755 3.205-1.118 5.327-1.406 11.383-1.543 4.858-.11 5.817-.224 8.593-1.018 5.99-1.713 24.165-.696 33.907 1.897 1.632.434 4.585 1.148 6.562 1.587s5 1.273 6.719 1.856 4.672 1.366 6.562 1.741 4.84 1.097 6.553 1.606 3.893 1.064 4.844 1.235 3.978 1.019 6.728 1.886l6.533 2.033c.842.251 4.176 1.564 7.408 2.918s6.48 2.622 7.217 2.818c2.182.577 10.704 4.261 15.249 6.59 5.599 2.871 8.868 5.368 14.687 11.218 3.144 3.161 6.379 6.03 9.219 8.175 7.468 5.642 10.017 8.309 18.018 18.85 2.348 3.094 5.404 6.96 6.791 8.593 4.296 5.057 5.864 7.226 7.682 10.625 2.631 4.915 5.729 11.832 6.905 15.413l1.987 5.855c.517 1.471 1.03 3.511 1.138 4.532s.741 3.473 1.407 5.45 1.491 5.211 1.833 7.188.917 4.507 1.276 5.625c2.672 8.306 2.514 34.743-.298 50a148.29 148.29 0 0 0-.923 5.625c-.175 1.289-.68 3.539-1.122 5s-1.096 3.851-1.453 5.312-1.187 4.414-1.846 6.563-1.556 5.312-1.993 7.031c-1.716 6.748-4.349 13.67-6.787 17.841-7.655 13.098-23.278 29.184-35.921 36.982-2.307 1.423-5.952 4.011-8.1 5.75-6.114 4.949-9.155 6.804-19.375 11.819l-13.594 6.678c-4.538 2.236-10.671 4.828-13.281 5.612-.946.284-2.915.986-4.377 1.56-3.459 1.359-6.129 2.039-8.009 2.039-.833 0-2.852.283-4.486.628s-6.136 1.196-10.003 1.89-8.438 1.664-10.157 2.157c-4.646 1.332-4.957 1.379-9.531 1.425-3.872.038-4.445.122-6.969 1.019-5.303 1.884-13.128 2.238-18.52.837-3.352-.871-6.744-1.301-13.417-1.7-4.817-.287-7.806-.768-13.621-2.188-2.125-.518-4.493-.943-5.261-.943s-2.531-.136-3.915-.302-4.108-.452-6.053-.635c-2.034-.191-4.225-.598-5.156-.959-.891-.345-3.025-.914-4.743-1.264s-4.39-1.107-5.937-1.681-3.854-1.349-5.125-1.722c-2.586-.759-9.907-3.678-16.283-6.493-34.439-15.206-58.097-35.529-64.652-55.538-.676-2.062-1.582-4.675-2.015-5.805s-1.066-3.521-1.406-5.312-.907-3.983-1.257-4.869c-.874-2.208-1.564-4.972-1.919-7.679a21.53 21.53 0 0 0-1.192-4.46c-1.194-2.921-1.605-4.682-1.925-8.255-.19-2.119-.509-3.533-1.092-4.837-.612-1.368-.897-2.695-1.107-5.156l-.284-3.314-1.427-1.308c-1.306-1.197-3.604-2.44-10.218-5.528-1.319-.616-2.634-1.44-2.921-1.83-.794-1.078-.449 8.731.453 12.885.354 1.632.73 4.164.835 5.625s.388 3.349.628 4.197c.274.967.436 3.081.436 5.675 0 6.181.669 8.771 6.078 23.565l2.51 6.937c1.258 3.564 6.348 15.533 8.213 19.313 1.622 3.289 2.041 3.859 4.929 6.719 8.073 7.991 19.523 18.527 23.896 21.987a106.2 106.2 0 0 1 5.764 4.99c4.913 4.639 13.281 8.972 30.259 15.667 8.82 3.478 8.956 4.077 3.202 14.075-1.336 2.32-3.35 5.414-4.478 6.875s-2.776 3.781-3.664 5.156-2.341 3.344-3.23 4.375c-3.374 3.917-4.128 7.217-2.474 10.83 3.967 8.666 14.792 6.489 20.679-4.158 2.153-3.895 3.145-5.314 6.303-9.016 1.059-1.242 2.534-3.61 3.794-6.094 6.361-12.54 7.194-12.925 19.938-9.218 1.719.5 5.586 1.335 8.594 1.856l9.531 1.71c2.235.419 6.242.919 8.907 1.11 5.842.419 11.615 1.057 16.875 1.865 8.12 1.248 17.817 1.097 27.187-.423a208.15 208.15 0 0 1 9.531-1.281c2.578-.271 7.149-1.037 10.157-1.7l8.188-1.71a62.2 62.2 0 0 0 5.703-1.423c1.641-.505 4.552-1.214 6.47-1.576s4.414-1.013 5.547-1.447c9.217-3.528 10.829 3.106 4.587 18.877-4.149 10.482-4.329 13.032-1.087 15.38 3.652 2.645 7.9 2.394 11.394-.674 5.872-5.156 11.713-22.238 12.213-35.721.256-6.877.316-6.962 7.61-10.693 18.017-9.218 20.562-10.794 28.593-17.698l6.719-5.729c1.977-1.673 5.984-5.374 8.906-8.226s6.789-6.405 8.594-7.899c3.744-3.098 4.385-3.821 7.559-8.53l5.772-8.412c6.943-10 12.301-20.314 13.428-25.844.594-2.919 1.295-5.047 2.91-8.844 2.438-5.728 2.608-6.234 3.304-9.843.282-1.461.938-3.993 1.459-5.625.798-2.502.99-3.746 1.217-7.903.571-10.419.913-13.833 1.697-16.941 1.61-6.381 1.787-19.963.336-25.781-.494-1.979-.995-5.328-1.262-8.438-.473-5.509-.682-6.673-1.84-10.265l-.741-2.297 2.557-2.547c1.407-1.401 2.961-3.25 3.455-4.11s1.326-2.083 1.851-2.719c.876-1.061 3.803-6.576 4.989-9.401 1.284-3.058.142-8.763-1.983-9.9-1.897-1.016-6.415.22-7.268 1.988-.174.361-.9 1.085-1.613 1.608s-1.845 1.788-2.515 2.812c-3.921 5.985-4.926 5.667-6.972-2.2-.328-1.261-4.498-11.171-6.272-14.905-8.037-16.922-23.18-35.553-39.599-48.721-12.424-9.964-39.496-24.045-62.031-32.265l-7.344-2.695c-6.377-2.35-15.693-5.416-20-6.583l-5.311-1.442c-4.966-1.353-43.344-4.299-47.814-3.67m96.82 53.994c-5.112 1.669-9.012 8.323-7.074 12.068 1.222 2.361 16.014 5.97 18.239 4.451 5.139-3.508 3.364-12.764-3.048-15.902-2.093-1.024-5.97-1.319-8.117-.617m-38.07 18.467c-.172.073-1.719.276-3.438.453-3.468.358-8.84 1.258-12.187 2.044s-6.91 1.407-9.844 1.719a259.69 259.69 0 0 0-6.25.774c-1.977.271-4.959.636-6.628.812-6.865.723-16.504 3.546-20.247 5.93-.773.492-1.707 1.009-2.075 1.148s-1.633.926-2.812 1.75-3.691 2.493-5.582 3.712-4 2.729-4.687 3.357c-1.852 1.694-4.324 3.447-7.656 5.429-4.422 2.631-7.391 4.823-8.852 6.534-.718.841-2.361 2.612-3.652 3.937-2.747 2.819-6.559 7.236-6.559 7.601 0 .14-.621 1.278-1.381 2.531-1.596 2.631-2.433 4.64-3.333 8.003-.353 1.319-1.034 3.383-1.514 4.586-2.755 6.906-3.716 35.087-1.37 40.156 1.749 3.778 2.259 5.151 2.613 7.031a13.98 13.98 0 0 0 1.263 3.511c.5.9.91 1.825.91 2.056 0 2.3 3.963 11.114 7.333 16.308l2.597 4.063c1.723 2.76 7.748 7.729 10.643 8.778.802.29 2.653 1.064 4.114 1.72 4.476 2.008 6.739 2.753 8.962 2.948a27.11 27.11 0 0 1 4.163.763c2.454.695 6.572 1.616 12.031 2.692 10.218 2.012 12.437 2.328 20.625 2.937l7.64.665c4.015.406 7.65.249 15.329-.665 12.671-1.508 14.988-1.952 19.531-3.746 1.203-.475 3.032-1.032 4.063-1.238 2.552-.511 8.221-2.265 13.125-4.062a230.12 230.12 0 0 1 8.247-2.809c3.886-1.226 4.288-1.427 5.625-2.812.792-.821 1.932-1.741 2.534-2.044s2.359-1.428 3.906-2.499 3.235-2.168 3.75-2.439 2.063-1.442 3.438-2.601 3.872-2.999 5.549-4.09c5.678-3.691 11.252-10.845 12.732-16.341.207-.768.995-2.721 1.751-4.34 1.52-3.253 1.858-4.328 2.455-7.819.499-2.916 2.187-9.482 2.819-10.967.257-.602.605-2.148.774-3.437s.731-4.735 1.248-7.657.944-6.297.949-7.5c.013-3.383-.607-11.302-1.089-13.906a147.71 147.71 0 0 1-.794-4.844c-.435-3.018-1.731-7.195-3.735-12.031-.819-1.977-1.596-3.945-1.728-4.375-.379-1.236-3.283-7.155-3.609-7.357-.162-.1-.856-.982-1.544-1.959-4.739-6.742-8.262-9.581-14.059-11.33-1.29-.388-3.258-1.115-4.374-1.614-2.895-1.294-8.176-3.265-11.095-4.14l-6.719-2.025c-2.32-.701-5.556-1.478-7.19-1.727s-3.954-.682-5.156-.965c-2.055-.484-20.608-1.008-21.56-.609m-103.421 5.86c-5.126 1.784-8.118 8.456-6.142 13.693.742 1.967 2.384 4.361 2.992 4.361.223 0 .808.21 1.301.466 2.611 1.362 10.914-1.099 14.329-4.247 7.379-6.802-2.263-17.83-12.48-14.273m126.546 6.017c6.228 1.035 17.996 4.666 24.375 7.522 1.031.462 2.625 1.1 3.543 1.42 2.074.721 7.416 4.222 8.735 5.724 3.356 3.822 8.115 14.253 9.423 20.652l1.17 5.625c1.073 5.029 1.772 16.419 1.035 16.875-.172.106-.312.025-.312-.179 0-1.723-13.062-12.971-17.031-14.667-.86-.367-2.029-1.023-2.599-1.458-1.158-.883-6.236-3.54-6.766-3.54-.187 0-1.392-.504-2.676-1.121s-3.671-1.467-5.303-1.891-3.813-1.026-4.844-1.339c-2.761-.84-11.368-1.902-15.366-1.896-1.174.002-4.198-.233-6.72-.522-4.289-.491-4.759-.491-7.244-.003-1.462.287-3.384.522-4.272.522s-2.55.278-3.693.618-3.276.769-4.736.954l-6.094.772c-6.339.805-9.026 1.072-15.755 1.566-3.681.27-8.11.751-9.844 1.07s-5.19.754-7.682.969-5.235.577-6.094.806l-8.438 2.185c-3.781.973-7.648 2.113-8.593 2.534s-3.407 1.435-5.469 2.257-4.596 1.92-5.63 2.442c-2.431 1.228-7.812 3.522-10.702 4.562l-2.269.817.634-1.244c.349-.684.721-1.875.827-2.648.163-1.189.765-2.136 3.922-6.173 2.051-2.622 3.989-5.26 4.306-5.862s3.084-3.593 6.15-6.647l6.858-6.875c.706-.727 2.604-2.139 4.218-3.138s5.372-3.41 8.351-5.358c3.869-2.531 6.41-3.947 8.906-4.963 3.214-1.308 4.892-1.88 11.929-4.066 3.737-1.161 7.396-1.969 11.406-2.52l10.033-1.413a76.57 76.57 0 0 0 4.844-.976c5.752-1.363 7.745-1.541 17.623-1.57 5.242-.016 10.234-.143 11.094-.284 2.136-.348 4.681-.214 8.75.461m-14.219 41.431c1.461.18 4.836.458 7.5.617 9.267.553 16.048 1.86 20.938 4.035 5.405 2.405 7.08 3.228 7.656 3.761.344.318 1.971 1.219 3.616 2.001 3.55 1.687 4.228 2.201 9.458 7.165 2.896 2.748 4.257 4.286 4.891 5.527.484.945 1.587 2.675 2.453 3.844 2.669 3.605 2.807 4.259 1.789 8.5-.471 1.963-.983 4.58-1.139 5.816-.292 2.326-1.448 5.248-3.325 8.402-.563.945-1.023 1.879-1.024 2.075-.005 2.445-4.688 8.685-8.381 11.169-1.664 1.119-4.08 2.89-5.369 3.936-2.995 2.429-8.703 6.222-11.457 7.614-1.176.594-2.474 1.442-2.887 1.884-.42.451-1.519 1.028-2.5 1.312-.962.279-2.102.702-2.531.939s-1.625.725-2.657 1.084c-9.336 3.245-12.248 4.182-14.617 4.704-1.508.332-3.617.948-4.687 1.368-2.363.928-6.131 1.873-9.289 2.33-12.528 1.813-18.469 2.063-27.813 1.171l-8.75-.834c-1.633-.154-4.094-.491-5.469-.748-8.84-1.651-17.397-3.604-19.334-4.413-.614-.257-2.066-.467-3.234-.468-1.858-.001-2.505-.179-5.244-1.442-1.719-.793-3.758-1.671-4.531-1.952-3.066-1.112-9.857-8.719-12.177-13.639-.567-1.201-1.207-2.395-1.423-2.652-.447-.534-1.608-4.259-1.876-6.017-.098-.645-.668-2.096-1.266-3.224a19.5 19.5 0 0 1-1.552-4.253c-.254-1.211-.667-2.573-.916-3.026-1.806-3.284-2.123-4.891-2.161-10.954-.047-7.601.31-11.884 1.011-12.115.284-.094 1.43-.593 2.547-1.107s4.07-1.752 6.563-2.749 6.078-2.544 7.968-3.438c6.699-3.168 13.3-5.614 19.532-7.238 8.321-2.168 9.212-2.34 14.218-2.742 2.407-.193 5.256-.555 6.333-.803s4.663-.666 7.969-.927c11.824-.934 13.256-1.072 17.73-1.711l6.803-.946c1.25-.165 3.098-.513 4.108-.775s2.518-.489 3.352-.505 2.221-.211 3.08-.432c2.023-.52 2.879-.54 6.094-.144"
     fill="#fcfbfc"
     id="path76" />
</svg>
